<svg width="20" height="22" viewBox="0 0 20 22" fill="none" xmlns="http://www.w3.org/2000/svg">
<path d="M15.8262 18.9216C12.5841 21.8799 7.41591 21.8797 4.17399 18.9212C1.63969 16.6084 0 13.3557 0 10V10C0 6.37621 2.20625 3.1175 5.57086 1.77166L6.28609 1.48556C8.6702 0.531919 11.3298 0.531918 13.7139 1.48556L14.4291 1.77166C17.7937 3.1175 20 6.37621 20 10V10C20 13.3568 18.3604 16.6092 15.8262 18.9216ZM6.68165 3.24438C3.8656 4.3004 2 6.99247 2 10V10C2.06 12.312 2.86995 14.542 4.31995 16.348V16.348C7.13291 19.8759 12.8671 19.8759 15.6801 16.348V16.348C17.1301 14.542 17.94 12.312 18 10V10C18 6.99247 16.1344 4.3004 13.3184 3.24438L12.809 3.05337C10.9979 2.37421 9.00209 2.37421 7.19101 3.05337L6.68165 3.24438Z" fill="#213315"/>
<path d="M10 10C11.38 10 12.5 8.881 12.5 7.5C12.5 6.119 11.38 5 10 5C8.62 5 7.5 6.119 7.5 7.5C7.5 8.881 8.62 10 10 10Z" fill="#213315"/>
<path d="M6.88374 11.7896C5.09062 12.6767 5.37886 15.1395 7.08997 16.176V16.176C7.96997 16.704 8.98 16.988 10 17C11.02 16.988 12.03 16.704 12.91 16.176V16.176C14.6217 15.1391 14.9122 12.6765 13.1178 11.7904C12.0772 11.2765 10.8307 11 10 11C9.16466 11 7.92149 11.2762 6.88374 11.7896Z" fill="#213315"/>
</svg>
