<svg width="22" height="18" viewBox="0 0 22 18" fill="none" xmlns="http://www.w3.org/2000/svg">
<path fill-rule="evenodd" clip-rule="evenodd" d="M14.7101 0.985126C14.6041 1.12344 14.5917 1.47599 14.6829 1.76856C14.8217 2.21515 13.7783 3.1607 8.19538 7.64706C4.53634 10.5875 1.35205 13.2825 1.1191 13.636C-0.235511 15.6937 2.17403 18.1878 5.09879 17.7553C5.98336 17.6244 7.2925 16.6881 13.0322 12.0822C19.1244 7.19333 20.0137 6.56582 20.8495 6.56582C22.6399 6.56582 22.2467 5.87427 18.9399 3.20831C16.0346 0.865861 15.1556 0.403799 14.7101 0.985126ZM17.6747 4.30597L18.83 5.25962L17.2283 6.56748L15.6263 7.87511H13.1125H10.5987L13.3918 5.6136C14.928 4.36977 16.2605 3.35209 16.3523 3.35209C16.4444 3.35209 17.0396 3.7813 17.6747 4.30597ZM19.1312 14.3314C18.2454 15.7404 18.3455 16.5607 19.4527 16.9676C20.4143 17.3208 21.5779 16.9069 21.8212 16.1249C22.0122 15.5112 20.7072 13.1123 20.1826 13.1123C20.0258 13.1123 19.5525 13.6608 19.1312 14.3314Z" fill="#BFD6AF"/>
</svg>
