<svg width="24" height="22" viewBox="0 0 24 22" fill="none" xmlns="http://www.w3.org/2000/svg">
<path fill-rule="evenodd" clip-rule="evenodd" d="M0.974807 0.972548C0.384048 2.29245 0.966024 2.44984 6.43751 2.44984H11.6822L10.2318 3.7223C8.53667 5.21006 8.48512 6.21978 10.1054 6.19982L11.1453 6.18674V11.2841V16.3815L10.1054 16.3684C8.48894 16.3484 8.53629 17.3578 10.2211 18.8364L11.6604 20.0991L6.34281 20.1907L1.0256 20.282V21.1V21.918H12.2909H23.5562V21.1V20.282L18.2389 20.1907L12.9213 20.0991L14.3606 18.8364C16.0455 17.3578 16.0928 16.3484 14.4763 16.3684L13.4365 16.3815V11.2841V6.18674L14.4763 6.19982C16.0928 6.21978 16.0455 5.21038 14.3606 3.73179L12.9213 2.46914L18.2389 2.37753L23.5562 2.28624V1.46825V0.650261L12.3764 0.563554C2.67911 0.488299 1.16765 0.542613 0.974807 0.972548ZM0.983208 4.8809C0.602862 5.72997 1.13558 6.43148 2.07422 6.31729C2.70508 6.2404 2.93497 5.99434 2.93497 5.3946C2.93497 4.79485 2.70508 4.5488 2.07422 4.4719C1.55755 4.40908 1.12106 4.57268 0.983208 4.8809ZM21.6044 4.8809C21.224 5.72997 21.7568 6.43148 22.6954 6.31729C23.3263 6.2404 23.5562 5.99434 23.5562 5.3946C23.5562 4.79485 23.3263 4.5488 22.6954 4.4719C22.1787 4.40908 21.7423 4.57268 21.6044 4.8809ZM0.983208 8.80724C0.602862 9.65632 1.13558 10.3578 2.07422 10.2436C3.29775 10.0948 3.29775 8.54712 2.07422 8.39825C1.55755 8.33543 1.12106 8.49903 0.983208 8.80724ZM21.6044 8.80724C21.224 9.65632 21.7568 10.3578 22.6954 10.2436C23.3263 10.1667 23.5562 9.92069 23.5562 9.32094C23.5562 8.72119 23.3263 8.47514 22.6954 8.39825C22.1787 8.33543 21.7423 8.49903 21.6044 8.80724ZM0.983208 12.7336C0.602862 13.5827 1.13558 14.2842 2.07422 14.17C3.29775 14.0211 3.29775 12.4735 2.07422 12.3246C1.55755 12.2618 1.12106 12.4254 0.983208 12.7336ZM21.6044 12.7336C21.224 13.5827 21.7568 14.2842 22.6954 14.17C23.3263 14.0931 23.5562 13.847 23.5562 13.2473C23.5562 12.6475 23.3263 12.4015 22.6954 12.3246C22.1787 12.2618 21.7423 12.4254 21.6044 12.7336ZM0.983208 16.6599C0.602862 17.509 1.13558 18.2105 2.07422 18.0963C2.70508 18.0194 2.93497 17.7734 2.93497 17.1736C2.93497 16.5739 2.70508 16.3278 2.07422 16.2509C1.55755 16.1881 1.12106 16.3517 0.983208 16.6599ZM21.6044 16.6599C21.224 17.509 21.7568 18.2105 22.6954 18.0963C23.3263 18.0194 23.5562 17.7734 23.5562 17.1736C23.5562 16.5739 23.3263 16.3278 22.6954 16.2509C22.1787 16.1881 21.7423 16.3517 21.6044 16.6599Z" fill="#BFD6AF"/>
</svg>
