<svg width="61" height="52" viewBox="0 0 61 52" fill="none" xmlns="http://www.w3.org/2000/svg">
<path fill-rule="evenodd" clip-rule="evenodd" d="M36.2544 1.56171C29.8727 4.40067 26.9363 8.62423 26.9363 14.9647C26.9363 20.3718 29.5308 24.2036 35.8355 28.1086C38.2793 29.6231 40.5837 31.7236 41.2279 33.0248C42.6767 35.9506 45.0135 36.0347 46.3999 33.2107C46.963 32.0634 49.5543 29.7407 52.1585 28.0497C58.6099 23.8611 60.9678 20.3308 60.9678 14.8608C60.9678 8.6591 58.0046 4.37469 51.8846 1.7265C48.1087 0.092322 39.7548 0.00411767 36.2544 1.56171ZM0.20942 26.2371C0.216712 37.0493 0.533529 46.3101 0.915168 46.8175C1.70032 47.8636 16.3193 51.707 19.5118 51.707C20.6623 51.707 24.9827 50.8981 29.1119 49.9088L36.6199 48.1112L45.1229 49.9088C49.7998 50.8981 54.7311 51.707 56.0818 51.707H58.5369V39.6893V27.6716L56.1507 29.262C53.7685 30.8497 53.7653 30.8641 53.7199 38.5447C53.6713 46.8989 53.8017 46.7122 48.8137 45.5929C47.2539 45.2435 44.4277 44.6178 42.534 44.2028L39.0904 43.4493V40.051C39.0904 37.37 38.584 36.0627 36.6912 33.8576L34.292 31.0624L34.0578 37.3926L33.8236 43.7228L28.5568 44.9768C25.6601 45.6674 22.9741 46.2329 22.5884 46.2342C22.2027 46.2356 22.0277 37.9854 22.1986 27.9007C22.5098 9.63893 22.5041 9.56508 20.8276 9.83585C19.9023 9.98491 15.9004 9.31346 11.9341 8.34321C7.9686 7.37296 3.70575 6.57912 2.46036 6.57912H0.197266L0.20942 26.2371ZM47.0311 12.1859C47.5659 12.6372 48.0034 13.8064 48.0034 14.7842C48.0034 15.762 47.5659 16.9312 47.0311 17.3825C45.7776 18.4402 42.1265 18.4402 40.873 17.3825C40.3382 16.9312 39.9007 15.762 39.9007 14.7842C39.9007 13.8064 40.3382 12.6372 40.873 12.1859C41.4078 11.7346 42.7933 11.3654 43.952 11.3654C45.1107 11.3654 46.4963 11.7346 47.0311 12.1859ZM11.5411 13.31L16.8079 14.5661L17.025 30.4012C17.1449 39.1109 16.9626 46.2356 16.6199 46.2342C16.278 46.2329 13.6275 45.6667 10.7308 44.9761L5.46404 43.7201L5.24689 27.885C5.12697 19.1753 5.30928 12.0505 5.65203 12.0519C5.99396 12.0533 8.64437 12.6194 11.5411 13.31Z" fill="#BFD6AF"/>
</svg>
