<svg width="24" height="21" viewBox="0 0 24 21" fill="none" xmlns="http://www.w3.org/2000/svg">
<path d="M4.99228 9.1875H1.28653C0.672533 9.1875 0.174805 9.62821 0.174805 10.1719V20.0156C0.174805 20.5593 0.672533 21 1.28653 21H4.99228C5.60628 21 6.104 20.5593 6.104 20.0156V10.1719C6.104 9.62821 5.60628 9.1875 4.99228 9.1875ZM3.1394 19.3594C2.52541 19.3594 2.02768 18.9187 2.02768 18.375C2.02768 17.8313 2.52541 17.3906 3.1394 17.3906C3.7534 17.3906 4.25113 17.8313 4.25113 18.375C4.25113 18.9187 3.7534 19.3594 3.1394 19.3594ZM17.9624 3.3408C17.9624 5.08052 16.7594 6.05637 16.4209 7.21875H21.133C22.68 7.21875 23.8843 8.35677 23.8916 9.60168C23.8954 10.3374 23.542 11.1295 22.9911 11.6195L22.986 11.624C23.4416 12.5812 23.3676 13.9224 22.5548 14.8835C22.957 15.9456 22.5517 17.2503 21.796 17.9497C21.9951 18.6715 21.8999 19.2858 21.5112 19.7803C20.5658 20.9831 18.2225 21 16.241 21L16.1093 21C13.8725 20.9993 12.0419 20.2782 10.571 19.6987C9.83185 19.4076 8.86539 19.0471 8.13212 19.0352C7.82917 19.0303 7.5863 18.8114 7.5863 18.5431V9.77517C7.5863 9.64392 7.64569 9.51796 7.75112 9.42568C9.58611 7.82016 10.3752 6.12035 11.8792 4.78636C12.5649 4.17802 12.8143 3.2591 13.0554 2.37046C13.2614 1.61163 13.6923 0 14.6272 0C15.739 0 17.9624 0.328125 17.9624 3.3408Z" fill="#FF3429"/>
</svg>
