<svg width="29" height="23" viewBox="0 0 29 23" fill="none" xmlns="http://www.w3.org/2000/svg">
<path d="M18.9732 5.2908C18.9732 5.01736 18.8506 4.7526 18.63 4.55729L13.8312 0.303819C13.6106 0.108507 13.3116 0 12.9979 0H12.6989V5.55556H18.9732V5.2908ZM28.1395 13.3681L23.4485 9.18403C22.9534 8.74566 22.1054 9.05382 22.1054 9.67448V12.5H18.9683V15.2778H22.1054V18.1076C22.1054 18.7283 22.9534 19.0365 23.4485 18.5981L28.1395 14.4097C28.463 14.1233 28.463 13.6545 28.1395 13.3681ZM9.56175 14.5833V13.1944C9.56175 12.8125 9.91468 12.5 10.346 12.5H18.9732V6.94444H12.3067C11.6597 6.94444 11.1303 6.47569 11.1303 5.90278V0H1.32676C0.67482 0 0.15033 0.46441 0.15033 1.04167V21.1806C0.15033 21.7578 0.67482 22.2222 1.32676 22.2222H17.7967C18.4487 22.2222 18.9732 21.7578 18.9732 21.1806V15.2778H10.346C9.91468 15.2778 9.56175 14.9653 9.56175 14.5833Z" fill="#BEC168"/>
</svg>
