<svg width="25" height="21" viewBox="0 0 25 21" fill="none" xmlns="http://www.w3.org/2000/svg">
<path d="M5.13913 9.1875H1.43338C0.819384 9.1875 0.321655 9.62821 0.321655 10.1719V20.0156C0.321655 20.5593 0.819384 21 1.43338 21H5.13913C5.75313 21 6.25085 20.5593 6.25085 20.0156V10.1719C6.25085 9.62821 5.75313 9.1875 5.13913 9.1875ZM3.28626 19.3594C2.67226 19.3594 2.17453 18.9187 2.17453 18.375C2.17453 17.8313 2.67226 17.3906 3.28626 17.3906C3.90025 17.3906 4.39798 17.8313 4.39798 18.375C4.39798 18.9187 3.90025 19.3594 3.28626 19.3594ZM18.1093 3.3408C18.1093 5.08052 16.9063 6.05637 16.5678 7.21875H21.2798C22.8268 7.21875 24.0312 8.35677 24.0384 9.60168C24.0423 10.3374 23.6889 11.1295 23.138 11.6195L23.1329 11.624C23.5885 12.5812 23.5144 13.9224 22.7017 14.8835C23.1038 15.9456 22.6985 17.2503 21.9429 17.9497C22.1419 18.6715 22.0468 19.2858 21.6581 19.7803C20.7126 20.9831 18.3694 21 16.3879 21L16.2561 21C14.0194 20.9993 12.1888 20.2782 10.7179 19.6987C9.9787 19.4076 9.01224 19.0471 8.27897 19.0352C7.97602 19.0303 7.73315 18.8114 7.73315 18.5431V9.77517C7.73315 9.64392 7.79254 9.51796 7.89797 9.42568C9.73296 7.82016 10.522 6.12035 12.026 4.78636C12.7118 4.17802 12.9612 3.2591 13.2023 2.37046C13.4083 1.61163 13.8392 0 14.7741 0C15.8858 0 18.1093 0.328125 18.1093 3.3408Z" fill="#12DC00"/>
</svg>
