<svg width="25" height="25" viewBox="0 0 25 25" fill="none" xmlns="http://www.w3.org/2000/svg">
<path d="M24.2774 7.8125H0.895871C0.530425 7.8125 0.234131 7.55015 0.234131 7.22656V5.46875C0.234131 4.17432 1.4192 3.125 2.88109 3.125H5.52806V0.585938C5.52806 0.262354 5.82435 0 6.1898 0H8.3956C8.76104 0 9.05734 0.262354 9.05734 0.585938V3.125H16.1159V0.585938C16.1159 0.262354 16.4122 0 16.7776 0H18.9834C19.3489 0 19.6452 0.262354 19.6452 0.585938V3.125H22.2922C23.754 3.125 24.9391 4.17432 24.9391 5.46875V7.22656C24.9391 7.55015 24.6428 7.8125 24.2774 7.8125ZM0.895871 9.375H24.2774C24.6428 9.375 24.9391 9.63735 24.9391 9.96094V22.6562C24.9391 23.9507 23.754 25 22.2922 25H2.88109C1.4192 25 0.234131 23.9507 0.234131 22.6562V9.96094C0.234131 9.63735 0.530425 9.375 0.895871 9.375ZM19.2755 14.0599L17.7221 12.6733C17.4648 12.4436 17.0458 12.442 16.7863 12.67L10.9389 17.8059L8.40332 15.5426C8.14596 15.3129 7.72691 15.3114 7.46745 15.5393L5.9015 16.9148C5.64204 17.1427 5.64033 17.5137 5.89775 17.7434L10.4528 21.8093C10.7101 22.039 11.1291 22.0405 11.3886 21.8126L19.2717 14.8885C19.5312 14.6606 19.5329 14.2896 19.2755 14.0599Z" fill="#B7A643"/>
</svg>
