<svg width="30" height="20" viewBox="0 0 30 20" fill="none" xmlns="http://www.w3.org/2000/svg">
<path d="M28.3746 13.75H27.6687V9.52734C27.6687 9.03125 27.4438 8.55469 27.0467 8.20312L22.6395 4.30078C22.2425 3.94922 21.7043 3.75 21.144 3.75H19.1985V1.875C19.1985 0.839844 18.25 0 17.0809 0H2.96376C1.79469 0 0.846191 0.839844 0.846191 1.875V14.375C0.846191 15.4102 1.79469 16.25 2.96376 16.25H3.66962C3.66962 18.3203 5.56661 20 7.90476 20C10.2429 20 12.1399 18.3203 12.1399 16.25H17.7868C17.7868 18.3203 19.6837 20 22.0219 20C24.36 20 26.257 18.3203 26.257 16.25H28.3746C28.7628 16.25 29.0805 15.9688 29.0805 15.625V14.375C29.0805 14.0312 28.7628 13.75 28.3746 13.75ZM7.90476 18.125C6.73568 18.125 5.78719 17.2852 5.78719 16.25C5.78719 15.2148 6.73568 14.375 7.90476 14.375C9.07383 14.375 10.0223 15.2148 10.0223 16.25C10.0223 17.2852 9.07383 18.125 7.90476 18.125ZM22.0219 18.125C20.8528 18.125 19.9043 17.2852 19.9043 16.25C19.9043 15.2148 20.8528 14.375 22.0219 14.375C23.191 14.375 24.1395 15.2148 24.1395 16.25C24.1395 17.2852 23.191 18.125 22.0219 18.125ZM25.5512 10H19.1985V5.625H21.144L25.5512 9.52734V10Z" fill="#B7A643"/>
</svg>
