<svg width="16" height="21" viewBox="0 0 16 21" fill="none" xmlns="http://www.w3.org/2000/svg">
<path fill-rule="evenodd" clip-rule="evenodd" d="M6.38031 2.0428C4.4366 4.74486 2.01493 9.17292 1.322 11.2916C0.0613374 15.1456 1.44554 18.3161 5.13996 20.037C9.43753 22.0389 15.0158 19.0796 15.5264 14.5265C15.7208 12.7934 14.9626 10.3782 13.2182 7.17303C11.3878 3.81023 8.79045 0.210938 8.19416 0.210938C7.88257 0.210938 7.20803 0.892138 6.38031 2.0428ZM12.0379 15.7469C12.8986 16.7012 11.2898 18.1819 10.2529 17.3898C9.76121 17.0143 9.71893 16.0933 10.1741 15.6744C10.6293 15.2555 11.63 15.2944 12.0379 15.7469Z" fill="#BFD6AF"/>
</svg>
