<svg width="23" height="24" viewBox="0 0 23 24" fill="none" xmlns="http://www.w3.org/2000/svg">
<path fill-rule="evenodd" clip-rule="evenodd" d="M10.2286 1.91906C9.67583 2.54971 9.40591 3.18197 9.40591 3.84569V4.83373H7.48949C6.34228 4.83373 5.36845 5.00456 5.06279 5.25951C4.71125 5.55268 3.99833 8.02166 2.76837 13.2069C1.78694 17.3437 0.979168 20.9811 0.973258 21.2904C0.967066 21.5996 1.21559 22.1413 1.52519 22.4945C2.06671 23.1123 2.46328 23.1367 11.939 23.1367C21.4147 23.1367 21.8113 23.1123 22.3528 22.4945C22.6624 22.1413 22.9109 21.5996 22.9047 21.2904C22.8988 20.9811 22.0911 17.3437 21.1096 13.2069C19.8797 8.02166 19.1667 5.55268 18.8152 5.25951C18.5096 5.00456 17.5357 4.83373 16.3885 4.83373H14.4721V3.84569C14.4721 2.48966 13.138 0.980469 11.939 0.980469C11.3333 0.980469 10.7901 1.27845 10.2286 1.91906ZM12.6426 3.87041C12.6426 4.459 12.4732 4.70047 12.0082 4.77593C11.3164 4.888 10.9238 4.19955 11.2041 3.36628C11.3057 3.0638 11.6274 2.90325 12.0082 2.9649C12.4732 3.04036 12.6426 3.28183 12.6426 3.87041Z" fill="#BFD6AF"/>
</svg>
