<svg width="37" height="30" viewBox="0 0 37 30" fill="none" xmlns="http://www.w3.org/2000/svg">
<path d="M33 29.335H3.66667C2.72489 29.3632 1.8103 29.0171 1.1231 28.3725C0.4359 27.7279 0.032068 26.8373 0 25.8957V3.43915C0.0320643 2.49766 0.435957 1.60724 1.12321 0.96294C1.81047 0.318638 2.72506 -0.0270287 3.66667 0.00165235H33C33.9416 -0.0270287 34.8562 0.318638 35.5435 0.96294C36.2307 1.60724 36.6346 2.49766 36.6667 3.43915V25.8975C36.6341 26.8388 36.2301 27.7289 35.5429 28.3731C34.8558 29.0173 33.9415 29.3632 33 29.335ZM3.66667 3.66832V25.6482L33 25.6683V3.68849L3.66667 3.66832ZM20.955 22.0017H7.33333C7.46813 20.4838 8.18646 19.0773 9.33717 18.0783C10.6183 16.8073 12.3398 16.0785 14.1442 16.0433C15.9482 16.08 17.6697 16.8078 18.9512 18.0783C20.1016 19.0776 20.8198 20.4839 20.955 22.0017ZM29.3333 20.1683H23.8333V16.5017H29.3333V20.1683ZM14.1442 14.6683C13.6581 14.6852 13.1738 14.6019 12.7213 14.4236C12.2688 14.2453 11.8578 13.9759 11.5139 13.632C11.17 13.288 10.9005 12.8771 10.7222 12.4246C10.5439 11.9721 10.4606 11.4877 10.4775 11.0017C10.4609 10.5157 10.5444 10.0314 10.7227 9.57906C10.9011 9.12668 11.1706 8.7158 11.5145 8.37195C11.8583 8.0281 12.2692 7.75861 12.7216 7.58023C13.1739 7.40184 13.6582 7.31837 14.1442 7.33499C14.6302 7.31837 15.1144 7.40184 15.5668 7.58023C16.0191 7.75861 16.43 8.0281 16.7739 8.37195C17.1177 8.7158 17.3872 9.12668 17.5656 9.57906C17.744 10.0314 17.8275 10.5157 17.8108 11.0017C17.8277 11.4877 17.7444 11.9721 17.5661 12.4246C17.3879 12.8771 17.1184 13.288 16.7745 13.632C16.4306 13.9759 16.0196 14.2453 15.5671 14.4236C15.1146 14.6019 14.6302 14.6852 14.1442 14.6683V14.6683ZM29.3333 12.835H22V9.16832H29.3333V12.835Z" fill="white"/>
</svg>
