<svg width="40" height="39" viewBox="0 0 40 39" fill="none" xmlns="http://www.w3.org/2000/svg">
<path d="M16.1125 28.4895V15.4879H14.53C13.3966 16.0769 12.3012 16.733 11.25 17.4525V19.1466C12.1875 18.5201 13.6725 17.6353 14.395 17.2526H14.425V28.4895H16.1125V28.4895ZM19.0825 25.3086C19.2 26.8686 20.5675 28.7357 23.34 28.7357C26.485 28.7357 28.34 26.1373 28.34 21.7376C28.34 17.0235 26.3875 15.2344 23.4575 15.2344C21.1425 15.2344 18.965 16.8724 18.965 19.6438C18.965 22.4713 21.025 23.9582 23.155 23.9582C25.02 23.9582 26.23 23.0417 26.6125 22.0326H26.68C26.67 25.2403 25.5275 27.3073 23.4175 27.3073C21.7575 27.3073 20.8975 26.2104 20.7925 25.3086H19.0825V25.3086ZM26.465 19.6609C26.465 21.3574 25.0675 22.5371 23.505 22.5371C22.0025 22.5371 20.645 21.6036 20.645 19.6121C20.645 17.6061 22.1 16.6628 23.565 16.6628C25.1475 16.6628 26.465 17.6329 26.465 19.6609Z" fill="white"/>
<path d="M8.75 0C9.08152 0 9.39946 0.128404 9.63388 0.356964C9.8683 0.585524 10 0.895517 10 1.21875V2.4375H30V1.21875C30 0.895517 30.1317 0.585524 30.3661 0.356964C30.6005 0.128404 30.9185 0 31.25 0C31.5815 0 31.8995 0.128404 32.1339 0.356964C32.3683 0.585524 32.5 0.895517 32.5 1.21875V2.4375H35C36.3261 2.4375 37.5979 2.95111 38.5355 3.86535C39.4732 4.77959 40 6.01957 40 7.3125V34.125C40 35.4179 39.4732 36.6579 38.5355 37.5721C37.5979 38.4864 36.3261 39 35 39H5C3.67392 39 2.40215 38.4864 1.46447 37.5721C0.526784 36.6579 0 35.4179 0 34.125V7.3125C0 6.01957 0.526784 4.77959 1.46447 3.86535C2.40215 2.95111 3.67392 2.4375 5 2.4375H7.5V1.21875C7.5 0.895517 7.6317 0.585524 7.86612 0.356964C8.10054 0.128404 8.41848 0 8.75 0V0ZM2.5 9.75V34.125C2.5 34.7715 2.76339 35.3915 3.23223 35.8486C3.70107 36.3057 4.33696 36.5625 5 36.5625H35C35.663 36.5625 36.2989 36.3057 36.7678 35.8486C37.2366 35.3915 37.5 34.7715 37.5 34.125V9.75H2.5Z" fill="white"/>
</svg>
