<svg width="40" height="42" viewBox="0 0 40 42" fill="none" xmlns="http://www.w3.org/2000/svg">
<path d="M20 41.5149C31.0457 41.5149 40 32.2215 40 20.7574C40 9.29342 31.0457 0 20 0C8.9543 0 0 9.29342 0 20.7574C0 32.2215 8.9543 41.5149 20 41.5149Z" fill="#468633"/>
<path d="M40 20.7575C40 20.2963 39.9855 19.8386 39.957 19.3848L30.588 9.66113L9.27783 31.7151L18.6828 41.4705C19.1182 41.5 19.5574 41.5149 20 41.5149C31.0457 41.5149 40 32.2215 40 20.7575Z" fill="#4D7A32"/>
<path d="M20 36.3752C28.3106 36.3752 35.0477 29.383 35.0477 20.7576C35.0477 12.1322 28.3106 5.13989 20 5.13989C11.6893 5.13989 4.95224 12.1322 4.95224 20.7576C4.95224 29.383 11.6893 36.3752 20 36.3752Z" fill="#41985E"/>
<path d="M20 5.13989C19.9907 5.13989 19.9815 5.14022 19.9722 5.14022V36.3748C19.9815 36.3748 19.9907 36.3751 20 36.3751C28.3106 36.3751 35.0476 29.3828 35.0476 20.7575C35.0476 12.1322 28.3106 5.13989 20 5.13989V5.13989Z" fill="#3FA648"/>
<path d="M15.129 24.8418L14.6814 23.4899H11.1132L10.6654 24.8418H8.0199L11.4253 15.4496H14.3558L17.7748 24.8418H15.129ZM12.8904 17.8434L11.7372 21.3778H14.0437L12.8904 17.8434Z" fill="white"/>
<path d="M18.4397 24.8418V15.4496H20.7732V22.7296H24.4092V24.8418H18.4397Z" fill="white"/>
<path d="M24.4093 22.7296H20.7733V15.4496H19.9722V24.8418H24.4093V22.7296Z" fill="#E9EDF5"/>
<path d="M25.617 24.8071V15.4153H27.9505V22.695H31.5865V24.8071H25.617Z" fill="#E9EDF5"/>
</svg>
