<svg width="90" height="30" viewBox="0 0 90 30" fill="none" xmlns="http://www.w3.org/2000/svg">
<g filter="url(#filter0_d_5_10)">
<path d="M4.31427 0.704102H72.6231L85.0634 10.8972L72.6231 21.5876H4.31427L14.4927 10.8972L4.31427 0.704102Z" fill="#213315"/>
</g>
<path d="M23.8047 8.17578L22.1836 13H21.0469L23.1719 7.3125H23.8984L23.8047 8.17578ZM25.1602 13L23.5312 8.17578L23.4336 7.3125H24.1641L26.3008 13H25.1602ZM25.0859 10.8867V11.7344H22.0352V10.8867H25.0859ZM29.1973 11.9961V8.77344H30.2364V13H29.2598L29.1973 11.9961ZM29.3302 11.1211L29.6505 11.1133C29.6505 11.3971 29.6192 11.6589 29.5567 11.8984C29.4942 12.138 29.3966 12.3464 29.2638 12.5234C29.1335 12.6979 28.9682 12.8346 28.7677 12.9336C28.5671 13.0299 28.3302 13.0781 28.0567 13.0781C27.8484 13.0781 27.6583 13.0495 27.4864 12.9922C27.3145 12.9323 27.1661 12.8398 27.0411 12.7148C26.9187 12.5872 26.8236 12.4245 26.7559 12.2266C26.6882 12.026 26.6544 11.7852 26.6544 11.5039V8.77344H27.6856V11.5117C27.6856 11.6523 27.7013 11.7695 27.7325 11.8633C27.7664 11.957 27.8119 12.0339 27.8692 12.0938C27.9291 12.151 27.9981 12.1927 28.0763 12.2188C28.157 12.2422 28.2429 12.2539 28.3341 12.2539C28.5841 12.2539 28.7807 12.2044 28.9239 12.1055C29.0697 12.0039 29.1739 11.8685 29.2364 11.6992C29.2989 11.5273 29.3302 11.3346 29.3302 11.1211ZM33.0705 8.77344V9.51562H30.6486V8.77344H33.0705ZM31.297 7.73438H32.3322V11.7812C32.3322 11.9062 32.3491 12.0026 32.383 12.0703C32.4168 12.138 32.4676 12.1836 32.5353 12.207C32.603 12.2305 32.6838 12.2422 32.7775 12.2422C32.8452 12.2422 32.9077 12.2383 32.965 12.2305C33.0223 12.2227 33.0705 12.2148 33.1095 12.207L33.1134 12.9805C33.0275 13.0091 32.9298 13.0326 32.8205 13.0508C32.7137 13.069 32.5926 13.0781 32.4572 13.0781C32.2254 13.0781 32.0223 13.0391 31.8478 12.9609C31.6733 12.8802 31.5379 12.7513 31.4416 12.5742C31.3452 12.3945 31.297 12.1576 31.297 11.8633V7.73438ZM34.6897 7V13H33.6545V7H34.6897ZM34.5256 10.7344H34.2209C34.2209 10.4401 34.26 10.1693 34.3381 9.92188C34.4163 9.67448 34.5269 9.45964 34.6702 9.27734C34.8134 9.09245 34.984 8.94922 35.1819 8.84766C35.3824 8.74609 35.6038 8.69531 35.8459 8.69531C36.0543 8.69531 36.2431 8.72526 36.4123 8.78516C36.5842 8.84245 36.7314 8.9349 36.8538 9.0625C36.9761 9.1901 37.0699 9.35677 37.135 9.5625C37.2027 9.76562 37.2366 10.013 37.2366 10.3047V13H36.1975V10.2969C36.1975 10.1016 36.1689 9.94792 36.1116 9.83594C36.0543 9.72135 35.9722 9.63932 35.8655 9.58984C35.7613 9.54036 35.6324 9.51562 35.4788 9.51562C35.3121 9.51562 35.1689 9.54818 35.0491 9.61328C34.9293 9.67578 34.8303 9.76302 34.7522 9.875C34.6767 9.98698 34.6194 10.1159 34.5803 10.2617C34.5439 10.4076 34.5256 10.5651 34.5256 10.7344ZM37.8831 10.9297V10.8477C37.8831 10.5378 37.9274 10.2526 38.0159 9.99219C38.1045 9.72917 38.2334 9.5013 38.4027 9.30859C38.5719 9.11589 38.779 8.96615 39.0238 8.85938C39.2685 8.75 39.5472 8.69531 39.8597 8.69531C40.1774 8.69531 40.4586 8.75 40.7034 8.85938C40.9508 8.96615 41.1592 9.11589 41.3284 9.30859C41.4977 9.5013 41.6266 9.72917 41.7152 9.99219C41.8037 10.2526 41.848 10.5378 41.848 10.8477V10.9297C41.848 11.237 41.8037 11.5221 41.7152 11.7852C41.6266 12.0456 41.4977 12.2734 41.3284 12.4688C41.1592 12.6615 40.9521 12.8112 40.7073 12.918C40.4626 13.0247 40.1826 13.0781 39.8675 13.0781C39.555 13.0781 39.2751 13.0247 39.0277 12.918C38.7803 12.8112 38.5719 12.6615 38.4027 12.4688C38.2334 12.2734 38.1045 12.0456 38.0159 11.7852C37.9274 11.5221 37.8831 11.237 37.8831 10.9297ZM38.9144 10.8477V10.9297C38.9144 11.1146 38.9326 11.2878 38.9691 11.4492C39.0055 11.6107 39.0615 11.7526 39.137 11.875C39.2126 11.9974 39.3102 12.0938 39.43 12.1641C39.5524 12.2318 39.6982 12.2656 39.8675 12.2656C40.0342 12.2656 40.1774 12.2318 40.2972 12.1641C40.417 12.0938 40.5146 11.9974 40.5902 11.875C40.6683 11.7526 40.7256 11.6107 40.762 11.4492C40.7985 11.2878 40.8167 11.1146 40.8167 10.9297V10.8477C40.8167 10.6654 40.7985 10.4948 40.762 10.3359C40.7256 10.1745 40.6683 10.0326 40.5902 9.91016C40.5146 9.78516 40.4157 9.6875 40.2933 9.61719C40.1735 9.54427 40.029 9.50781 39.8597 9.50781C39.693 9.50781 39.5498 9.54427 39.43 9.61719C39.3102 9.6875 39.2126 9.78516 39.137 9.91016C39.0615 10.0326 39.0055 10.1745 38.9691 10.3359C38.9326 10.4948 38.9144 10.6654 38.9144 10.8477ZM43.5492 9.63672V13H42.518V8.77344H43.4945L43.5492 9.63672ZM44.8344 8.74609L44.8188 9.70703C44.7615 9.69661 44.6964 9.6888 44.6234 9.68359C44.5531 9.67839 44.4867 9.67578 44.4242 9.67578C44.2654 9.67578 44.126 9.69792 44.0063 9.74219C43.8865 9.78385 43.7862 9.84505 43.7055 9.92578C43.6273 10.0065 43.5674 10.1055 43.5258 10.2227C43.4841 10.3372 43.4607 10.4674 43.4555 10.6133L43.2328 10.5859C43.2328 10.3177 43.2602 10.069 43.3148 9.83984C43.3695 9.61068 43.449 9.41016 43.5531 9.23828C43.6573 9.06641 43.7875 8.93359 43.9438 8.83984C44.1026 8.74349 44.2849 8.69531 44.4906 8.69531C44.5479 8.69531 44.6091 8.70052 44.6742 8.71094C44.7419 8.71875 44.7953 8.73047 44.8344 8.74609ZM46.4145 8.77344V13H45.3794V8.77344H46.4145ZM45.3091 7.66797C45.3091 7.51432 45.3611 7.38672 45.4653 7.28516C45.5721 7.18359 45.7153 7.13281 45.895 7.13281C46.0747 7.13281 46.2166 7.18359 46.3208 7.28516C46.4276 7.38672 46.4809 7.51432 46.4809 7.66797C46.4809 7.81901 46.4276 7.94531 46.3208 8.04688C46.2166 8.14844 46.0747 8.19922 45.895 8.19922C45.7153 8.19922 45.5721 8.14844 45.4653 8.04688C45.3611 7.94531 45.3091 7.81901 45.3091 7.66797ZM50.6314 12.1875V13H47.4517V12.1875H50.6314ZM50.5572 9.39062L47.8384 13H47.1588V12.3633L49.8619 8.77344H50.5572V9.39062ZM50.1783 8.77344V9.58984H47.2134V8.77344H50.1783ZM53.6139 12.1016V10.1523C53.6139 10.0091 53.5892 9.88542 53.5397 9.78125C53.4902 9.67708 53.4147 9.59635 53.3131 9.53906C53.2116 9.48177 53.0827 9.45312 52.9264 9.45312C52.7884 9.45312 52.6673 9.47656 52.5631 9.52344C52.4616 9.57031 52.3834 9.63672 52.3288 9.72266C52.2741 9.80599 52.2467 9.90234 52.2467 10.0117H51.2116C51.2116 9.83724 51.2532 9.67188 51.3366 9.51562C51.4199 9.35677 51.5384 9.21615 51.692 9.09375C51.8483 8.96875 52.0345 8.87109 52.2506 8.80078C52.4694 8.73047 52.7142 8.69531 52.985 8.69531C53.3053 8.69531 53.5905 8.75 53.8405 8.85938C54.0931 8.96615 54.291 9.1276 54.4342 9.34375C54.5801 9.5599 54.653 9.83203 54.653 10.1602V12.0039C54.653 12.2148 54.666 12.3958 54.692 12.5469C54.7207 12.6953 54.7623 12.8242 54.817 12.9336V13H53.7663C53.7168 12.8932 53.679 12.7578 53.653 12.5938C53.6269 12.4271 53.6139 12.263 53.6139 12.1016ZM53.7584 10.4258L53.7663 11.0391H53.1139C52.9524 11.0391 52.8105 11.056 52.6881 11.0898C52.5657 11.1211 52.4655 11.168 52.3873 11.2305C52.3092 11.2904 52.2506 11.3633 52.2116 11.4492C52.1725 11.5326 52.153 11.6276 52.153 11.7344C52.153 11.8385 52.1764 11.9323 52.2233 12.0156C52.2728 12.099 52.3431 12.1654 52.4342 12.2148C52.528 12.2617 52.6373 12.2852 52.7623 12.2852C52.9446 12.2852 53.1035 12.2487 53.2389 12.1758C53.3743 12.1003 53.4798 12.0091 53.5553 11.9023C53.6308 11.7956 53.6712 11.694 53.6764 11.5977L53.9733 12.043C53.9368 12.1497 53.8821 12.263 53.8092 12.3828C53.7363 12.5026 53.6426 12.6146 53.528 12.7188C53.4134 12.8229 53.2754 12.9089 53.1139 12.9766C52.9524 13.0443 52.7649 13.0781 52.5514 13.0781C52.278 13.0781 52.0332 13.0234 51.817 12.9141C51.6009 12.8047 51.4303 12.6549 51.3053 12.4648C51.1803 12.2747 51.1178 12.0586 51.1178 11.8164C51.1178 11.5924 51.1595 11.3945 51.2428 11.2227C51.3261 11.0508 51.4498 10.9062 51.6139 10.7891C51.778 10.6693 51.9811 10.5794 52.2233 10.5195C52.4681 10.457 52.748 10.4258 53.0631 10.4258H53.7584ZM57.5027 8.77344V9.51562H55.0808V8.77344H57.5027ZM55.7292 7.73438H56.7644V11.7812C56.7644 11.9062 56.7813 12.0026 56.8152 12.0703C56.849 12.138 56.8998 12.1836 56.9675 12.207C57.0352 12.2305 57.1159 12.2422 57.2097 12.2422C57.2774 12.2422 57.3399 12.2383 57.3972 12.2305C57.4545 12.2227 57.5027 12.2148 57.5417 12.207L57.5456 12.9805C57.4597 13.0091 57.362 13.0326 57.2527 13.0508C57.1459 13.069 57.0248 13.0781 56.8894 13.0781C56.6576 13.0781 56.4545 13.0391 56.28 12.9609C56.1055 12.8802 55.9701 12.7513 55.8737 12.5742C55.7774 12.3945 55.7292 12.1576 55.7292 11.8633V7.73438ZM59.2039 8.77344V13H58.1688V8.77344H59.2039ZM58.0984 7.66797C58.0984 7.51432 58.1505 7.38672 58.2547 7.28516C58.3615 7.18359 58.5047 7.13281 58.6844 7.13281C58.8641 7.13281 59.006 7.18359 59.1102 7.28516C59.2169 7.38672 59.2703 7.51432 59.2703 7.66797C59.2703 7.81901 59.2169 7.94531 59.1102 8.04688C59.006 8.14844 58.8641 8.19922 58.6844 8.19922C58.5047 8.19922 58.3615 8.14844 58.2547 8.04688C58.1505 7.94531 58.0984 7.81901 58.0984 7.66797ZM59.9247 10.9297V10.8477C59.9247 10.5378 59.969 10.2526 60.0575 9.99219C60.146 9.72917 60.2749 9.5013 60.4442 9.30859C60.6135 9.11589 60.8205 8.96615 61.0653 8.85938C61.3101 8.75 61.5887 8.69531 61.9012 8.69531C62.219 8.69531 62.5002 8.75 62.745 8.85938C62.9924 8.96615 63.2007 9.11589 63.37 9.30859C63.5393 9.5013 63.6682 9.72917 63.7567 9.99219C63.8453 10.2526 63.8895 10.5378 63.8895 10.8477V10.9297C63.8895 11.237 63.8453 11.5221 63.7567 11.7852C63.6682 12.0456 63.5393 12.2734 63.37 12.4688C63.2007 12.6615 62.9937 12.8112 62.7489 12.918C62.5041 13.0247 62.2242 13.0781 61.9091 13.0781C61.5966 13.0781 61.3166 13.0247 61.0692 12.918C60.8218 12.8112 60.6135 12.6615 60.4442 12.4688C60.2749 12.2734 60.146 12.0456 60.0575 11.7852C59.969 11.5221 59.9247 11.237 59.9247 10.9297ZM60.9559 10.8477V10.9297C60.9559 11.1146 60.9742 11.2878 61.0106 11.4492C61.0471 11.6107 61.1031 11.7526 61.1786 11.875C61.2541 11.9974 61.3518 12.0938 61.4716 12.1641C61.594 12.2318 61.7398 12.2656 61.9091 12.2656C62.0757 12.2656 62.219 12.2318 62.3387 12.1641C62.4585 12.0938 62.5562 11.9974 62.6317 11.875C62.7098 11.7526 62.7671 11.6107 62.8036 11.4492C62.8401 11.2878 62.8583 11.1146 62.8583 10.9297V10.8477C62.8583 10.6654 62.8401 10.4948 62.8036 10.3359C62.7671 10.1745 62.7098 10.0326 62.6317 9.91016C62.5562 9.78516 62.4572 9.6875 62.3348 9.61719C62.2151 9.54427 62.0705 9.50781 61.9012 9.50781C61.7346 9.50781 61.5914 9.54427 61.4716 9.61719C61.3518 9.6875 61.2541 9.78516 61.1786 9.91016C61.1031 10.0326 61.0471 10.1745 61.0106 10.3359C60.9742 10.4948 60.9559 10.6654 60.9559 10.8477ZM65.5713 9.67578V13H64.54V8.77344H65.5088L65.5713 9.67578ZM65.4072 10.7344H65.1025C65.1051 10.4271 65.1468 10.1484 65.2275 9.89844C65.3082 9.64844 65.4215 9.43359 65.5673 9.25391C65.7158 9.07422 65.8916 8.9362 66.0947 8.83984C66.2978 8.74349 66.5244 8.69531 66.7744 8.69531C66.9775 8.69531 67.1611 8.72396 67.3252 8.78125C67.4892 8.83854 67.6298 8.92969 67.747 9.05469C67.8668 9.17969 67.958 9.34375 68.0205 9.54688C68.0856 9.7474 68.1181 9.99479 68.1181 10.2891V13H67.0791V10.2812C67.0791 10.0885 67.0504 9.9362 66.9931 9.82422C66.9384 9.71224 66.8577 9.63281 66.7509 9.58594C66.6468 9.53906 66.5179 9.51562 66.3642 9.51562C66.2054 9.51562 66.066 9.54818 65.9463 9.61328C65.8291 9.67578 65.7301 9.76302 65.6494 9.875C65.5713 9.98698 65.5114 10.1159 65.4697 10.2617C65.428 10.4076 65.4072 10.5651 65.4072 10.7344Z" fill="white"/>
<defs>
<filter id="filter0_d_5_10" x="0.31427" y="0.704102" width="88.7492" height="28.8835" filterUnits="userSpaceOnUse" color-interpolation-filters="sRGB">
<feFlood flood-opacity="0" result="BackgroundImageFix"/>
<feColorMatrix in="SourceAlpha" type="matrix" values="0 0 0 0 0 0 0 0 0 0 0 0 0 0 0 0 0 0 127 0" result="hardAlpha"/>
<feOffset dy="4"/>
<feGaussianBlur stdDeviation="2"/>
<feComposite in2="hardAlpha" operator="out"/>
<feColorMatrix type="matrix" values="0 0 0 0 0 0 0 0 0 0 0 0 0 0 0 0 0 0 0.25 0"/>
<feBlend mode="normal" in2="BackgroundImageFix" result="effect1_dropShadow_5_10"/>
<feBlend mode="normal" in="SourceGraphic" in2="effect1_dropShadow_5_10" result="shape"/>
</filter>
</defs>
</svg>
