<svg width="100" height="30" viewBox="0 0 100 30" fill="none" xmlns="http://www.w3.org/2000/svg">
<g filter="url(#filter0_d_411_1010)">
<path d="M4.31427 0.704346H72.6231L85.0634 10.8975L72.6231 21.5878H4.31427L14.4927 10.8975L4.31427 0.704346Z" fill="#C5E0B4"/>
</g>
<path d="M23.6736 8.18317L22.0526 13.0074H20.9158L23.0408 7.31989H23.7674L23.6736 8.18317ZM25.0291 13.0074L23.4002 8.18317L23.3026 7.31989H24.033L26.1697 13.0074H25.0291ZM24.9549 10.8941V11.7418H21.9041V10.8941H24.9549ZM29.0663 12.0035V8.78082H30.1054V13.0074H29.1288L29.0663 12.0035ZM29.1991 11.1285L29.5194 11.1207C29.5194 11.4045 29.4882 11.6662 29.4257 11.9058C29.3632 12.1454 29.2655 12.3537 29.1327 12.5308C29.0025 12.7053 28.8371 12.842 28.6366 12.941C28.4361 13.0373 28.1991 13.0855 27.9257 13.0855C27.7173 13.0855 27.5272 13.0569 27.3554 12.9996C27.1835 12.9397 27.0351 12.8472 26.9101 12.7222C26.7877 12.5946 26.6926 12.4319 26.6249 12.2339C26.5572 12.0334 26.5233 11.7925 26.5233 11.5113V8.78082H27.5546V11.5191C27.5546 11.6597 27.5702 11.7769 27.6015 11.8707C27.6353 11.9644 27.6809 12.0412 27.7382 12.1011C27.7981 12.1584 27.8671 12.2001 27.9452 12.2261C28.0259 12.2496 28.1119 12.2613 28.203 12.2613C28.453 12.2613 28.6496 12.2118 28.7929 12.1129C28.9387 12.0113 29.0429 11.8759 29.1054 11.7066C29.1679 11.5347 29.1991 11.342 29.1991 11.1285ZM32.9394 8.78082V9.52301H30.5176V8.78082H32.9394ZM31.166 7.74176H32.2011V11.7886C32.2011 11.9136 32.2181 12.01 32.2519 12.0777C32.2858 12.1454 32.3366 12.191 32.4043 12.2144C32.472 12.2379 32.5527 12.2496 32.6465 12.2496C32.7142 12.2496 32.7767 12.2457 32.834 12.2379C32.8912 12.23 32.9394 12.2222 32.9785 12.2144L32.9824 12.9879C32.8965 13.0165 32.7988 13.0399 32.6894 13.0582C32.5827 13.0764 32.4616 13.0855 32.3261 13.0855C32.0944 13.0855 31.8912 13.0464 31.7168 12.9683C31.5423 12.8876 31.4069 12.7587 31.3105 12.5816C31.2142 12.4019 31.166 12.1649 31.166 11.8707V7.74176ZM34.5586 7.00739V13.0074H33.5235V7.00739H34.5586ZM34.3946 10.7418H34.0899C34.0899 10.4475 34.129 10.1767 34.2071 9.92926C34.2852 9.68186 34.3959 9.46702 34.5391 9.28473C34.6823 9.09983 34.8529 8.9566 35.0508 8.85504C35.2514 8.75348 35.4727 8.7027 35.7149 8.7027C35.9232 8.7027 36.112 8.73265 36.2813 8.79254C36.4532 8.84983 36.6003 8.94228 36.7227 9.06989C36.8451 9.19749 36.9389 9.36416 37.004 9.56989C37.0717 9.77301 37.1055 10.0204 37.1055 10.3121V13.0074H36.0665V10.3043C36.0665 10.1089 36.0378 9.9553 35.9805 9.84332C35.9232 9.72874 35.8412 9.64671 35.7344 9.59723C35.6303 9.54775 35.5014 9.52301 35.3477 9.52301C35.181 9.52301 35.0378 9.55556 34.918 9.62067C34.7982 9.68317 34.6993 9.77041 34.6211 9.88239C34.5456 9.99436 34.4883 10.1233 34.4493 10.2691C34.4128 10.4149 34.3946 10.5725 34.3946 10.7418ZM37.7521 10.9371V10.855C37.7521 10.5451 37.7964 10.26 37.8849 9.99957C37.9734 9.73655 38.1023 9.50869 38.2716 9.31598C38.4409 9.12327 38.6479 8.97353 38.8927 8.86676C39.1375 8.75739 39.4161 8.7027 39.7286 8.7027C40.0464 8.7027 40.3276 8.75739 40.5724 8.86676C40.8198 8.97353 41.0281 9.12327 41.1974 9.31598C41.3667 9.50869 41.4956 9.73655 41.5841 9.99957C41.6727 10.26 41.7169 10.5451 41.7169 10.855V10.9371C41.7169 11.2444 41.6727 11.5295 41.5841 11.7925C41.4956 12.053 41.3667 12.2808 41.1974 12.4761C41.0281 12.6688 40.8211 12.8186 40.5763 12.9254C40.3315 13.0321 40.0516 13.0855 39.7365 13.0855C39.424 13.0855 39.144 13.0321 38.8966 12.9254C38.6492 12.8186 38.4409 12.6688 38.2716 12.4761C38.1023 12.2808 37.9734 12.053 37.8849 11.7925C37.7964 11.5295 37.7521 11.2444 37.7521 10.9371ZM38.7833 10.855V10.9371C38.7833 11.122 38.8016 11.2951 38.838 11.4566C38.8745 11.6181 38.9305 11.76 39.006 11.8824C39.0815 12.0048 39.1792 12.1011 39.299 12.1714C39.4214 12.2392 39.5672 12.273 39.7365 12.273C39.9031 12.273 40.0464 12.2392 40.1661 12.1714C40.2859 12.1011 40.3836 12.0048 40.4591 11.8824C40.5372 11.76 40.5945 11.6181 40.631 11.4566C40.6674 11.2951 40.6857 11.122 40.6857 10.9371V10.855C40.6857 10.6727 40.6674 10.5022 40.631 10.3433C40.5945 10.1819 40.5372 10.0399 40.4591 9.91754C40.3836 9.79254 40.2846 9.69489 40.1622 9.62457C40.0424 9.55166 39.8979 9.5152 39.7286 9.5152C39.562 9.5152 39.4187 9.55166 39.299 9.62457C39.1792 9.69489 39.0815 9.79254 39.006 9.91754C38.9305 10.0399 38.8745 10.1819 38.838 10.3433C38.8016 10.5022 38.7833 10.6727 38.7833 10.855ZM43.4182 9.6441V13.0074H42.3869V8.78082H43.3635L43.4182 9.6441ZM44.7033 8.75348L44.6877 9.71442C44.6304 9.704 44.5653 9.69619 44.4924 9.69098C44.4221 9.68577 44.3557 9.68317 44.2932 9.68317C44.1343 9.68317 43.995 9.7053 43.8752 9.74957C43.7554 9.79124 43.6552 9.85244 43.5744 9.93317C43.4963 10.0139 43.4364 10.1129 43.3947 10.23C43.3531 10.3446 43.3296 10.4748 43.3244 10.6207L43.1018 10.5933C43.1018 10.3251 43.1291 10.0764 43.1838 9.84723C43.2385 9.61806 43.3179 9.41754 43.4221 9.24567C43.5262 9.07379 43.6565 8.94098 43.8127 8.84723C43.9716 8.75087 44.1539 8.7027 44.3596 8.7027C44.4169 8.7027 44.4781 8.70791 44.5432 8.71832C44.6109 8.72614 44.6643 8.73785 44.7033 8.75348ZM46.2835 8.78082V13.0074H45.2483V8.78082H46.2835ZM45.178 7.67535C45.178 7.52171 45.2301 7.3941 45.3343 7.29254C45.441 7.19098 45.5843 7.1402 45.764 7.1402C45.9436 7.1402 46.0856 7.19098 46.1897 7.29254C46.2965 7.3941 46.3499 7.52171 46.3499 7.67535C46.3499 7.8264 46.2965 7.9527 46.1897 8.05426C46.0856 8.15582 45.9436 8.2066 45.764 8.2066C45.5843 8.2066 45.441 8.15582 45.3343 8.05426C45.2301 7.9527 45.178 7.8264 45.178 7.67535ZM50.5004 12.1949V13.0074H47.3207V12.1949H50.5004ZM50.4261 9.39801L47.7074 13.0074H47.0277V12.3707L49.7308 8.78082H50.4261V9.39801ZM50.0472 8.78082V9.59723H47.0824V8.78082H50.0472ZM53.4829 12.1089V10.1597C53.4829 10.0165 53.4581 9.8928 53.4086 9.78864C53.3592 9.68447 53.2836 9.60374 53.1821 9.54645C53.0805 9.48916 52.9516 9.46051 52.7954 9.46051C52.6573 9.46051 52.5362 9.48395 52.4321 9.53082C52.3305 9.5777 52.2524 9.6441 52.1977 9.73004C52.143 9.81337 52.1157 9.90973 52.1157 10.0191H51.0805C51.0805 9.84462 51.1222 9.67926 51.2055 9.52301C51.2889 9.36416 51.4073 9.22353 51.561 9.10114C51.7172 8.97614 51.9034 8.87848 52.1196 8.80817C52.3383 8.73785 52.5831 8.7027 52.854 8.7027C53.1743 8.7027 53.4594 8.75739 53.7094 8.86676C53.962 8.97353 54.1599 9.13499 54.3032 9.35114C54.449 9.56728 54.5219 9.83942 54.5219 10.1675V12.0113C54.5219 12.2222 54.5349 12.4032 54.561 12.5543C54.5896 12.7027 54.6313 12.8316 54.686 12.941V13.0074H53.6352C53.5857 12.9006 53.548 12.7652 53.5219 12.6011C53.4959 12.4345 53.4829 12.2704 53.4829 12.1089ZM53.6274 10.4332L53.6352 11.0464H52.9829C52.8214 11.0464 52.6795 11.0634 52.5571 11.0972C52.4347 11.1285 52.3344 11.1754 52.2563 11.2379C52.1782 11.2977 52.1196 11.3707 52.0805 11.4566C52.0415 11.5399 52.0219 11.635 52.0219 11.7418C52.0219 11.8459 52.0454 11.9397 52.0922 12.023C52.1417 12.1063 52.212 12.1727 52.3032 12.2222C52.3969 12.2691 52.5063 12.2925 52.6313 12.2925C52.8136 12.2925 52.9724 12.2561 53.1079 12.1832C53.2433 12.1076 53.3487 12.0165 53.4243 11.9097C53.4998 11.803 53.5402 11.7014 53.5454 11.605L53.8422 12.0504C53.8058 12.1571 53.7511 12.2704 53.6782 12.3902C53.6053 12.51 53.5115 12.622 53.3969 12.7261C53.2823 12.8303 53.1443 12.9162 52.9829 12.9839C52.8214 13.0517 52.6339 13.0855 52.4204 13.0855C52.1469 13.0855 51.9021 13.0308 51.686 12.9214C51.4698 12.8121 51.2993 12.6623 51.1743 12.4722C51.0493 12.2821 50.9868 12.066 50.9868 11.8238C50.9868 11.5998 51.0284 11.4019 51.1118 11.23C51.1951 11.0582 51.3188 10.9136 51.4829 10.7964C51.6469 10.6767 51.8501 10.5868 52.0922 10.5269C52.337 10.4644 52.617 10.4332 52.9321 10.4332H53.6274ZM57.3716 8.78082V9.52301H54.9497V8.78082H57.3716ZM55.5982 7.74176H56.6333V11.7886C56.6333 11.9136 56.6503 12.01 56.6841 12.0777C56.718 12.1454 56.7687 12.191 56.8365 12.2144C56.9042 12.2379 56.9849 12.2496 57.0786 12.2496C57.1464 12.2496 57.2089 12.2457 57.2661 12.2379C57.3234 12.23 57.3716 12.2222 57.4107 12.2144L57.4146 12.9879C57.3286 13.0165 57.231 13.0399 57.1216 13.0582C57.0148 13.0764 56.8937 13.0855 56.7583 13.0855C56.5266 13.0855 56.3234 13.0464 56.149 12.9683C55.9745 12.8876 55.8391 12.7587 55.7427 12.5816C55.6464 12.4019 55.5982 12.1649 55.5982 11.8707V7.74176ZM59.0729 8.78082V13.0074H58.0377V8.78082H59.0729ZM57.9674 7.67535C57.9674 7.52171 58.0195 7.3941 58.1236 7.29254C58.2304 7.19098 58.3736 7.1402 58.5533 7.1402C58.733 7.1402 58.8749 7.19098 58.9791 7.29254C59.0859 7.3941 59.1393 7.52171 59.1393 7.67535C59.1393 7.8264 59.0859 7.9527 58.9791 8.05426C58.8749 8.15582 58.733 8.2066 58.5533 8.2066C58.3736 8.2066 58.2304 8.15582 58.1236 8.05426C58.0195 7.9527 57.9674 7.8264 57.9674 7.67535ZM59.7936 10.9371V10.855C59.7936 10.5451 59.8379 10.26 59.9265 9.99957C60.015 9.73655 60.1439 9.50869 60.3132 9.31598C60.4824 9.12327 60.6895 8.97353 60.9343 8.86676C61.1791 8.75739 61.4577 8.7027 61.7702 8.7027C62.0879 8.7027 62.3692 8.75739 62.614 8.86676C62.8614 8.97353 63.0697 9.12327 63.239 9.31598C63.4082 9.50869 63.5371 9.73655 63.6257 9.99957C63.7142 10.26 63.7585 10.5451 63.7585 10.855V10.9371C63.7585 11.2444 63.7142 11.5295 63.6257 11.7925C63.5371 12.053 63.4082 12.2808 63.239 12.4761C63.0697 12.6688 62.8627 12.8186 62.6179 12.9254C62.3731 13.0321 62.0931 13.0855 61.778 13.0855C61.4655 13.0855 61.1856 13.0321 60.9382 12.9254C60.6908 12.8186 60.4824 12.6688 60.3132 12.4761C60.1439 12.2808 60.015 12.053 59.9265 11.7925C59.8379 11.5295 59.7936 11.2444 59.7936 10.9371ZM60.8249 10.855V10.9371C60.8249 11.122 60.8431 11.2951 60.8796 11.4566C60.916 11.6181 60.972 11.76 61.0476 11.8824C61.1231 12.0048 61.2207 12.1011 61.3405 12.1714C61.4629 12.2392 61.6087 12.273 61.778 12.273C61.9447 12.273 62.0879 12.2392 62.2077 12.1714C62.3275 12.1011 62.4252 12.0048 62.5007 11.8824C62.5788 11.76 62.6361 11.6181 62.6726 11.4566C62.709 11.2951 62.7272 11.122 62.7272 10.9371V10.855C62.7272 10.6727 62.709 10.5022 62.6726 10.3433C62.6361 10.1819 62.5788 10.0399 62.5007 9.91754C62.4252 9.79254 62.3262 9.69489 62.2038 9.62457C62.084 9.55166 61.9395 9.5152 61.7702 9.5152C61.6035 9.5152 61.4603 9.55166 61.3405 9.62457C61.2207 9.69489 61.1231 9.79254 61.0476 9.91754C60.972 10.0399 60.916 10.1819 60.8796 10.3433C60.8431 10.5022 60.8249 10.6727 60.8249 10.855ZM65.4402 9.68317V13.0074H64.409V8.78082H65.3777L65.4402 9.68317ZM65.2761 10.7418H64.9715C64.9741 10.4345 65.0157 10.1558 65.0965 9.90582C65.1772 9.65582 65.2905 9.44098 65.4363 9.26129C65.5847 9.0816 65.7605 8.94358 65.9636 8.84723C66.1668 8.75087 66.3933 8.7027 66.6433 8.7027C66.8465 8.7027 67.0301 8.73134 67.1941 8.78864C67.3582 8.84593 67.4988 8.93707 67.616 9.06207C67.7358 9.18707 67.8269 9.35114 67.8894 9.55426C67.9545 9.75478 67.9871 10.0022 67.9871 10.2964V13.0074H66.948V10.2886C66.948 10.0959 66.9194 9.94358 66.8621 9.8316C66.8074 9.71962 66.7267 9.6402 66.6199 9.59332C66.5157 9.54645 66.3868 9.52301 66.2332 9.52301C66.0743 9.52301 65.935 9.55556 65.8152 9.62067C65.698 9.68317 65.5991 9.77041 65.5183 9.88239C65.4402 9.99436 65.3803 10.1233 65.3386 10.2691C65.297 10.4149 65.2761 10.5725 65.2761 10.7418Z" fill="white"/>
<defs>
<filter id="filter0_d_411_1010" x="0.31427" y="0.704346" width="88.7491" height="28.8835" filterUnits="userSpaceOnUse" color-interpolation-filters="sRGB">
<feFlood flood-opacity="0" result="BackgroundImageFix"/>
<feColorMatrix in="SourceAlpha" type="matrix" values="0 0 0 0 0 0 0 0 0 0 0 0 0 0 0 0 0 0 127 0" result="hardAlpha"/>
<feOffset dy="4"/>
<feGaussianBlur stdDeviation="2"/>
<feComposite in2="hardAlpha" operator="out"/>
<feColorMatrix type="matrix" values="0 0 0 0 0 0 0 0 0 0 0 0 0 0 0 0 0 0 0.25 0"/>
<feBlend mode="normal" in2="BackgroundImageFix" result="effect1_dropShadow_411_1010"/>
<feBlend mode="normal" in="SourceGraphic" in2="effect1_dropShadow_411_1010" result="shape"/>
</filter>
</defs>
</svg>
