<svg width="189" height="91" viewBox="0 0 189 91" fill="none" xmlns="http://www.w3.org/2000/svg">
<path d="M0.103516 10C0.103516 4.47715 4.58067 0 10.1035 0H178.104C183.626 0 188.104 4.47715 188.104 10V81C188.104 86.5228 183.626 91 178.104 91H10.1035C4.58067 91 0.103516 86.5228 0.103516 81V10Z" fill="#5B6326"/>
<path fill-rule="evenodd" clip-rule="evenodd" d="M10.6807 13.2412V21.9619H12.9208H15.161V14.6587V7.35544L26.8286 7.29322L38.4962 7.231L38.6082 5.87575L38.7202 4.52051H24.7004H10.6807V13.2412ZM153.753 5.87575L153.865 7.231L165.533 7.29322L177.2 7.35544V14.6587V21.9619H179.44H181.681V13.2412V4.52051H167.661H153.641L153.753 5.87575ZM28.2287 29.1506C28.2287 44.6671 28.2362 44.8243 28.9754 44.8243C29.7147 44.8243 29.7221 44.6671 29.7221 29.1506C29.7221 13.6341 29.7147 13.4769 28.9754 13.4769C28.2362 13.4769 28.2287 13.6341 28.2287 29.1506ZM34.5759 29.1506V44.8243H39.2377H43.8995L43.998 29.1506L44.0966 13.4769H39.3362H34.5759V29.1506ZM48.8544 29.0917L48.9503 44.7064L52.0306 44.7748L55.1108 44.8434V29.16V13.4769H51.9346H48.7584L48.8544 29.0917ZM59.9645 29.1636V44.8502L61.738 44.7783L63.5115 44.7064L63.6074 29.0917L63.7034 13.4769H61.8339H59.9645V29.1636ZM68.5518 29.1506V44.8243H70.232H71.9121V29.1506V13.4769H70.232H68.5518V29.1506ZM76.7658 29.1506V44.8243H77.6992H78.6326V29.1506V13.4769H77.6992H76.7658V29.1506ZM83.4863 29.1506V44.8243H86.4732H89.4601V29.1506V13.4769H86.4732H83.4863V29.1506ZM93.6579 29.0917L93.7538 44.7064L95.5273 44.7783L97.3008 44.8502V29.1636V13.4769H95.4313H93.5619L93.6579 29.0917ZM101.781 29.1506V44.8243H104.768H107.755V29.1506V13.4769H104.768H101.781V29.1506ZM112.609 29.1671V44.857L113.449 44.7819L114.289 44.7064L114.385 29.0917L114.481 13.4769H113.545H112.609V29.1671ZM119.329 29.1506V44.8243H121.009H122.689V29.1506V13.4769H121.009H119.329V29.1506ZM127.543 29.1506V44.8243H129.41H131.277V29.1506V13.4769H129.41H127.543V29.1506ZM136.13 29.1506V44.8243H139.117H142.104V29.1506V13.4769H139.117H136.13V29.1506ZM146.958 29.1506V44.8243H151.625H156.292V29.1506V13.4769H151.625H146.958V29.1506ZM161.236 29.0917L161.332 44.7064L162.172 44.7819L163.013 44.857V29.1671V13.4769H162.077H161.141L161.236 29.0917ZM19.6649 48.1829C19.4495 48.5336 19.5002 48.8728 19.8157 49.1846C20.2895 49.6532 20.7521 49.6565 95.4403 49.7154C150.676 49.7593 170.722 49.7048 171.094 49.5099C171.72 49.1818 171.752 48.3145 171.152 47.9355C170.806 47.7174 153.46 47.6526 95.3473 47.6526H19.9908L19.6649 48.1829ZM28.2287 61.3229C28.2287 69.8864 28.2421 70.0436 28.9754 70.0436C29.7087 70.0436 29.7221 69.8864 29.7221 61.3229C29.7221 52.7594 29.7087 52.6022 28.9754 52.6022C28.2421 52.6022 28.2287 52.7594 28.2287 61.3229ZM34.5759 61.3229V70.0436H39.3362L44.0966 70.0438L43.9943 61.3229L43.892 52.6022H39.2339H34.5759V61.3229ZM48.7636 61.3229V70.0436H51.9372H55.1108V61.3229V52.6022H51.9372H48.7636V61.3229ZM59.9645 61.3229V70.0436H61.8313H63.6981V61.3229V52.6022H61.8313H59.9645V61.3229ZM68.5518 61.3229V70.0436H70.232H71.9121V61.3229V52.6022H70.232H68.5518V61.3229ZM76.7658 61.3229V70.0436H77.6992H78.6326V61.3229V52.6022H77.6992H76.7658V61.3229ZM83.4863 61.3229V70.0436H86.4732H89.4601V61.3229V52.6022H86.4732H83.4863V61.3229ZM93.5671 61.4408V70.2793H95.4339H97.3008V61.4408V52.6022H95.4339H93.5671V61.4408ZM101.781 61.3229V70.0436H104.768H107.755V61.3229V52.6022H104.768H101.781V61.3229ZM112.609 61.3229V70.0436H113.542H114.475V61.3229V52.6022H113.542H112.609V61.3229ZM119.329 61.3229V70.0436H121.009H122.689V61.3229V52.6022H121.009H119.329V61.3229ZM127.543 61.3229V70.0436H129.41H131.277V61.3229V52.6022H129.41H127.543V61.3229ZM136.13 61.3229V70.0436H139.117H142.104V61.3229V52.6022H139.117H136.13V61.3229ZM146.958 61.3229V70.0436H151.625H156.292V61.3229V52.6022H151.625H146.958V61.3229ZM161.146 61.3229V70.0436H162.079H163.013V61.3229V52.6022H162.079H161.146V61.3229ZM10.6807 70.2793V79H24.7004H38.7202L38.6082 77.6448L38.4962 76.2895L26.8286 76.2273L15.161 76.1651V68.8618V61.5586H12.9208H10.6807V70.2793ZM177.2 68.8618V76.1651L165.533 76.2273L153.865 76.2895L153.753 77.6448L153.641 79H167.661H181.681V70.2793V61.5586H179.44H177.2V68.8618Z" fill="#F1CB66"/>
</svg>
