<svg width="50" height="50" viewBox="0 0 50 50" fill="none" xmlns="http://www.w3.org/2000/svg">
<path d="M19.2571 46.4329L6.70505 33.8809C6.13298 33.3088 6.13298 32.3813 6.70505 31.8093C7.27703 31.2372 8.20457 31.2372 8.77664 31.8093L21.3287 44.3613C21.9008 44.9334 21.9008 45.8608 21.3287 46.4329C20.7566 47.0051 19.829 47.0049 19.2571 46.4329Z" fill="#004042"/>
<path d="M28.6713 46.4329C28.0992 45.8608 28.0992 44.9334 28.6713 44.3613L41.2234 31.8093C41.7953 31.2372 42.7229 31.2372 43.2949 31.8093C43.867 32.3813 43.867 33.3088 43.2949 33.8809L30.7429 46.4329C30.1707 47.0051 29.2432 47.0049 28.6713 46.4329V46.4329Z" fill="#0A1E0A"/>
<path d="M42.2591 32.7409C41.8508 32.7409 41.4762 32.5723 41.2079 32.296C39.4632 30.5591 37.1471 29.6029 34.6834 29.6029H15.3164C12.8516 29.6029 10.5345 30.5599 8.78944 32.2985C8.49208 32.603 8.06581 32.7749 7.61317 32.7349C6.85653 32.6687 6.27606 32.0356 6.27606 31.2762V25C6.27606 22.4567 8.33261 20.3972 10.8789 20.3972H39.1211C41.6639 20.3972 43.7239 22.4534 43.7239 25V31.2761C43.7239 32.085 43.0682 32.7409 42.2591 32.7409Z" fill="#4B752E"/>
<path d="M41.208 32.2959C41.4763 32.5722 41.8509 32.7408 42.2592 32.7408C43.0682 32.7408 43.724 32.0849 43.724 31.276V25C43.724 22.4534 41.664 20.3972 39.1212 20.3972H25V29.6029H34.6835C37.1472 29.6028 39.4633 30.5591 41.208 32.2959V32.2959Z" fill="#153C09"/>
<path d="M45.3972 34.3099H42.2592C41.4502 34.3099 40.7943 33.654 40.7943 32.845V25C40.7943 24.0774 40.0438 23.3269 39.1212 23.3269H10.8789C9.95635 23.3269 9.20576 24.0774 9.20576 25V32.845C9.20576 33.654 8.5499 34.3099 7.74092 34.3099H4.60273C2.06484 34.3099 0 32.245 0 29.707V18.7224C0 16.6784 1.33975 14.9414 3.18711 14.3434C3.82207 6.32773 10.5479 0 18.7238 0H31.276C39.452 0 46.1778 6.32803 46.8129 14.3437C48.6605 14.942 49.9999 16.6788 49.9999 18.7224V29.707C50 32.245 47.9352 34.3099 45.3972 34.3099V34.3099Z" fill="#C0D563"/>
<path d="M40.7942 25V32.845C40.7942 33.654 41.4501 34.3099 42.2591 34.3099H45.3971C47.9351 34.3099 49.9999 32.245 49.9999 29.707V18.7224C49.9999 16.6787 48.6605 14.942 46.8129 14.3437C46.1778 6.32803 39.452 0 31.2761 0H25V23.3269H39.1211C40.0437 23.3269 40.7942 24.0774 40.7942 25V25Z" fill="#84A650"/>
<path d="M3.18708 14.3433C3.18689 14.3434 3.1866 14.3435 3.1864 14.3435H9.30994C13.0776 14.3435 16.2252 11.6377 16.9118 8.06738H21.862C22.671 8.06738 23.3268 7.41152 23.3268 6.60254C23.3268 5.79355 22.671 5.1377 21.862 5.1377H7.16863C4.92576 7.61602 3.46648 10.816 3.18708 14.3433V14.3433Z" fill="#84A650"/>
<path d="M42.8311 5.13791H40.6885C36.9217 5.13791 33.7747 7.84328 33.0882 11.414H28.1381C27.3291 11.414 26.6732 12.0698 26.6732 12.8788C26.6732 13.6878 27.3291 14.3437 28.1381 14.3437H46.813C46.5335 10.8163 45.0741 7.61623 42.8311 5.13791V5.13791Z" fill="#4B752E"/>
<path d="M29.707 40.7942H20.293C19.484 40.7942 18.8281 41.4501 18.8281 42.2591V48.5351C18.8281 49.3441 19.484 50 20.293 50H29.707C30.516 50 31.1719 49.3441 31.1719 48.5351V42.2591C31.1719 41.4501 30.516 40.7942 29.707 40.7942Z" fill="#245F78"/>
<path d="M31.1719 48.5351V42.2591C31.1719 41.4501 30.516 40.7942 29.707 40.7942H25V50H29.707C30.516 50 31.1719 49.3441 31.1719 48.5351Z" fill="#004042"/>
</svg>
