<svg width="74" height="30" viewBox="0 0 74 30" fill="none" xmlns="http://www.w3.org/2000/svg">
<g filter="url(#filter0_d_5_20)">
<path d="M4.06531 0.704102H59.0919L69.1133 10.8972L59.0919 21.5876H4.06531L12.2646 10.8972L4.06531 0.704102Z" fill="#213315"/>
</g>
<path d="M21.2422 13H20.0156L20.0234 12.1562H21.2422C21.5729 12.1562 21.8503 12.0833 22.0742 11.9375C22.2982 11.7891 22.4674 11.5768 22.582 11.3008C22.6966 11.0221 22.7539 10.6888 22.7539 10.3008V10.0078C22.7539 9.70833 22.7214 9.44401 22.6562 9.21484C22.5911 8.98568 22.4948 8.79297 22.3672 8.63672C22.2422 8.48047 22.0872 8.36198 21.9023 8.28125C21.7174 8.20052 21.5052 8.16016 21.2656 8.16016H19.9922V7.3125H21.2656C21.6458 7.3125 21.9922 7.3763 22.3047 7.50391C22.6198 7.63151 22.8919 7.8151 23.1211 8.05469C23.3529 8.29167 23.5299 8.57552 23.6523 8.90625C23.7773 9.23698 23.8398 9.60677 23.8398 10.0156V10.3008C23.8398 10.707 23.7773 11.0768 23.6523 11.4102C23.5299 11.7409 23.3529 12.0247 23.1211 12.2617C22.8919 12.4987 22.6185 12.681 22.3008 12.8086C21.9831 12.9362 21.6302 13 21.2422 13ZM20.6172 7.3125V13H19.543V7.3125H20.6172ZM26.4942 13.0781C26.1739 13.0781 25.8861 13.026 25.6309 12.9219C25.3757 12.8177 25.1583 12.6732 24.9786 12.4883C24.8015 12.3008 24.6648 12.0833 24.5684 11.8359C24.4747 11.5859 24.4278 11.3177 24.4278 11.0312V10.875C24.4278 10.5495 24.4747 10.2539 24.5684 9.98828C24.6622 9.72005 24.795 9.48958 24.9669 9.29688C25.1388 9.10417 25.3445 8.95573 25.5841 8.85156C25.8236 8.7474 26.088 8.69531 26.377 8.69531C26.6765 8.69531 26.9408 8.74609 27.17 8.84766C27.3992 8.94661 27.5906 9.08724 27.7442 9.26953C27.8979 9.45182 28.0138 9.67057 28.0919 9.92578C28.17 10.1784 28.2091 10.4583 28.2091 10.7656V11.1992H24.8966V10.4883H27.1934V10.4102C27.1882 10.2461 27.157 10.0964 27.0997 9.96094C27.0424 9.82292 26.9539 9.71354 26.8341 9.63281C26.7143 9.54948 26.5593 9.50781 26.3692 9.50781C26.2156 9.50781 26.0815 9.54167 25.9669 9.60938C25.8549 9.67448 25.7611 9.76823 25.6856 9.89062C25.6127 10.0104 25.558 10.1536 25.5216 10.3203C25.4851 10.487 25.4669 10.6719 25.4669 10.875V11.0312C25.4669 11.2083 25.4903 11.3724 25.5372 11.5234C25.5867 11.6745 25.6583 11.806 25.752 11.918C25.8484 12.0273 25.963 12.1133 26.0958 12.1758C26.2312 12.2357 26.3848 12.2656 26.5567 12.2656C26.7729 12.2656 26.9682 12.224 27.1427 12.1406C27.3197 12.0547 27.4734 11.9284 27.6036 11.7617L28.1231 12.3008C28.0346 12.431 27.9148 12.556 27.7638 12.6758C27.6153 12.7956 27.4356 12.8932 27.2247 12.9688C27.0138 13.0417 26.7703 13.0781 26.4942 13.0781ZM29.9142 7V13H28.8791V7H29.9142ZM31.9123 8.77344V13H30.8772V8.77344H31.9123ZM30.8069 7.66797C30.8069 7.51432 30.859 7.38672 30.9631 7.28516C31.0699 7.18359 31.2131 7.13281 31.3928 7.13281C31.5725 7.13281 31.7144 7.18359 31.8186 7.28516C31.9254 7.38672 31.9788 7.51432 31.9788 7.66797C31.9788 7.81901 31.9254 7.94531 31.8186 8.04688C31.7144 8.14844 31.5725 8.19922 31.3928 8.19922C31.2131 8.19922 31.0699 8.14844 30.9631 8.04688C30.859 7.94531 30.8069 7.81901 30.8069 7.66797ZM34.2191 12.2188L35.2034 8.77344H36.2816L34.8323 13H34.1761L34.2191 12.2188ZM33.5003 8.77344L34.4964 12.2266L34.5316 13H33.8714L32.4183 8.77344H33.5003ZM38.5883 13.0781C38.268 13.0781 37.9802 13.026 37.725 12.9219C37.4698 12.8177 37.2523 12.6732 37.0727 12.4883C36.8956 12.3008 36.7589 12.0833 36.6625 11.8359C36.5688 11.5859 36.5219 11.3177 36.5219 11.0312V10.875C36.5219 10.5495 36.5688 10.2539 36.6625 9.98828C36.7563 9.72005 36.8891 9.48958 37.0609 9.29688C37.2328 9.10417 37.4385 8.95573 37.6781 8.85156C37.9177 8.7474 38.182 8.69531 38.4711 8.69531C38.7706 8.69531 39.0349 8.74609 39.2641 8.84766C39.4932 8.94661 39.6846 9.08724 39.8383 9.26953C39.9919 9.45182 40.1078 9.67057 40.1859 9.92578C40.2641 10.1784 40.3031 10.4583 40.3031 10.7656V11.1992H36.9906V10.4883H39.2875V10.4102C39.2823 10.2461 39.251 10.0964 39.1938 9.96094C39.1365 9.82292 39.0479 9.71354 38.9281 9.63281C38.8083 9.54948 38.6534 9.50781 38.4633 9.50781C38.3096 9.50781 38.1755 9.54167 38.0609 9.60938C37.949 9.67448 37.8552 9.76823 37.7797 9.89062C37.7068 10.0104 37.6521 10.1536 37.6156 10.3203C37.5792 10.487 37.5609 10.6719 37.5609 10.875V11.0312C37.5609 11.2083 37.5844 11.3724 37.6313 11.5234C37.6807 11.6745 37.7523 11.806 37.8461 11.918C37.9424 12.0273 38.057 12.1133 38.1898 12.1758C38.3253 12.2357 38.4789 12.2656 38.6508 12.2656C38.8669 12.2656 39.0622 12.224 39.2367 12.1406C39.4138 12.0547 39.5674 11.9284 39.6977 11.7617L40.2172 12.3008C40.1286 12.431 40.0089 12.556 39.8578 12.6758C39.7094 12.7956 39.5297 12.8932 39.3188 12.9688C39.1078 13.0417 38.8643 13.0781 38.5883 13.0781ZM41.9458 9.63672V13H40.9145V8.77344H41.8911L41.9458 9.63672ZM43.2309 8.74609L43.2153 9.70703C43.158 9.69661 43.0929 9.6888 43.02 9.68359C42.9497 9.67839 42.8833 9.67578 42.8208 9.67578C42.6619 9.67578 42.5226 9.69792 42.4028 9.74219C42.283 9.78385 42.1828 9.84505 42.102 9.92578C42.0239 10.0065 41.964 10.1055 41.9223 10.2227C41.8807 10.3372 41.8572 10.4674 41.852 10.6133L41.6294 10.5859C41.6294 10.3177 41.6567 10.069 41.7114 9.83984C41.7661 9.61068 41.8455 9.41016 41.9497 9.23828C42.0539 9.06641 42.1841 8.93359 42.3403 8.83984C42.4992 8.74349 42.6815 8.69531 42.8872 8.69531C42.9445 8.69531 43.0057 8.70052 43.0708 8.71094C43.1385 8.71875 43.1919 8.73047 43.2309 8.74609ZM45.5377 13.0781C45.2173 13.0781 44.9296 13.026 44.6744 12.9219C44.4192 12.8177 44.2017 12.6732 44.022 12.4883C43.8449 12.3008 43.7082 12.0833 43.6119 11.8359C43.5181 11.5859 43.4713 11.3177 43.4713 11.0312V10.875C43.4713 10.5495 43.5181 10.2539 43.6119 9.98828C43.7056 9.72005 43.8384 9.48958 44.0103 9.29688C44.1822 9.10417 44.3879 8.95573 44.6275 8.85156C44.8671 8.7474 45.1314 8.69531 45.4205 8.69531C45.7199 8.69531 45.9843 8.74609 46.2134 8.84766C46.4426 8.94661 46.634 9.08724 46.7877 9.26953C46.9413 9.45182 47.0572 9.67057 47.1353 9.92578C47.2134 10.1784 47.2525 10.4583 47.2525 10.7656V11.1992H43.94V10.4883H46.2369V10.4102C46.2317 10.2461 46.2004 10.0964 46.1431 9.96094C46.0858 9.82292 45.9973 9.71354 45.8775 9.63281C45.7577 9.54948 45.6028 9.50781 45.4127 9.50781C45.259 9.50781 45.1249 9.54167 45.0103 9.60938C44.8983 9.67448 44.8046 9.76823 44.7291 9.89062C44.6561 10.0104 44.6015 10.1536 44.565 10.3203C44.5285 10.487 44.5103 10.6719 44.5103 10.875V11.0312C44.5103 11.2083 44.5338 11.3724 44.5806 11.5234C44.6301 11.6745 44.7017 11.806 44.7955 11.918C44.8918 12.0273 45.0064 12.1133 45.1392 12.1758C45.2746 12.2357 45.4283 12.2656 45.6002 12.2656C45.8163 12.2656 46.0116 12.224 46.1861 12.1406C46.3632 12.0547 46.5168 11.9284 46.647 11.7617L47.1666 12.3008C47.078 12.431 46.9582 12.556 46.8072 12.6758C46.6588 12.7956 46.4791 12.8932 46.2681 12.9688C46.0572 13.0417 45.8137 13.0781 45.5377 13.0781ZM50.3991 12.1016V7H51.4381V13H50.5006L50.3991 12.1016ZM47.6842 10.9375V10.8555C47.6842 10.5326 47.7207 10.2396 47.7936 9.97656C47.8691 9.71094 47.9785 9.48307 48.1217 9.29297C48.2649 9.10286 48.4381 8.95573 48.6413 8.85156C48.847 8.7474 49.0801 8.69531 49.3405 8.69531C49.5931 8.69531 49.8131 8.74609 50.0006 8.84766C50.1907 8.94922 50.3522 9.09375 50.485 9.28125C50.6204 9.46875 50.7285 9.69141 50.8092 9.94922C50.8899 10.2044 50.9485 10.4857 50.985 10.793V11.0156C50.9485 11.3151 50.8899 11.5898 50.8092 11.8398C50.7285 12.0898 50.6204 12.3086 50.485 12.4961C50.3522 12.681 50.1907 12.8242 50.0006 12.9258C49.8105 13.0273 49.5879 13.0781 49.3327 13.0781C49.0748 13.0781 48.8431 13.0247 48.6373 12.918C48.4342 12.8112 48.261 12.6615 48.1178 12.4688C47.9772 12.276 47.8691 12.0495 47.7936 11.7891C47.7207 11.5286 47.6842 11.2448 47.6842 10.9375ZM48.7194 10.8555V10.9375C48.7194 11.1198 48.735 11.2904 48.7663 11.4492C48.7975 11.6081 48.8483 11.7487 48.9186 11.8711C48.9889 11.9909 49.0788 12.0846 49.1881 12.1523C49.3001 12.2201 49.4355 12.2539 49.5944 12.2539C49.7975 12.2539 49.9642 12.2096 50.0944 12.1211C50.2272 12.0299 50.3301 11.9062 50.403 11.75C50.4759 11.5911 50.5228 11.4128 50.5436 11.2148V10.6016C50.5332 10.4453 50.5058 10.3008 50.4616 10.168C50.4199 10.0352 50.36 9.92057 50.2819 9.82422C50.2064 9.72786 50.1126 9.65234 50.0006 9.59766C49.8886 9.54297 49.7558 9.51562 49.6022 9.51562C49.4433 9.51562 49.3079 9.55078 49.1959 9.62109C49.084 9.6888 48.9928 9.78385 48.9225 9.90625C48.8522 10.0286 48.8001 10.1706 48.7663 10.332C48.735 10.4935 48.7194 10.668 48.7194 10.8555Z" fill="white"/>
<defs>
<filter id="filter0_d_5_20" x="0.0653076" y="0.704102" width="73.0479" height="28.8835" filterUnits="userSpaceOnUse" color-interpolation-filters="sRGB">
<feFlood flood-opacity="0" result="BackgroundImageFix"/>
<feColorMatrix in="SourceAlpha" type="matrix" values="0 0 0 0 0 0 0 0 0 0 0 0 0 0 0 0 0 0 127 0" result="hardAlpha"/>
<feOffset dy="4"/>
<feGaussianBlur stdDeviation="2"/>
<feComposite in2="hardAlpha" operator="out"/>
<feColorMatrix type="matrix" values="0 0 0 0 0 0 0 0 0 0 0 0 0 0 0 0 0 0 0.25 0"/>
<feBlend mode="normal" in2="BackgroundImageFix" result="effect1_dropShadow_5_20"/>
<feBlend mode="normal" in="SourceGraphic" in2="effect1_dropShadow_5_20" result="shape"/>
</filter>
</defs>
</svg>
