<svg width="75" height="29" viewBox="0 0 75 29" fill="none" xmlns="http://www.w3.org/2000/svg">
<g filter="url(#filter0_d_102_6)">
<path d="M4 0H59.9753L70.1695 10.1931L59.9753 20.8835H4L12.3407 10.1931L4 0Z" fill="#A7CD8D"/>
</g>
<path d="M26.6875 7.3125V13H25.6133V7.3125H26.6875ZM30.0138 11.8438C30.0138 11.7552 29.9903 11.6758 29.9434 11.6055C29.8966 11.5352 29.808 11.4714 29.6778 11.4141C29.5502 11.3542 29.3627 11.2982 29.1153 11.2461C28.8966 11.1992 28.6947 11.1406 28.5098 11.0703C28.3249 11 28.1661 10.9154 28.0333 10.8164C27.9005 10.7148 27.7963 10.5964 27.7208 10.4609C27.6479 10.3229 27.6114 10.1641 27.6114 9.98438C27.6114 9.8099 27.6492 9.64583 27.7247 9.49219C27.8002 9.33594 27.9096 9.19922 28.0528 9.08203C28.196 8.96224 28.3705 8.86849 28.5763 8.80078C28.782 8.73047 29.0138 8.69531 29.2716 8.69531C29.6309 8.69531 29.9395 8.75391 30.1973 8.87109C30.4578 8.98828 30.657 9.14974 30.795 9.35547C30.933 9.55859 31.002 9.78776 31.002 10.043H29.9708C29.9708 9.93099 29.9447 9.82943 29.8927 9.73828C29.8432 9.64714 29.7664 9.57422 29.6622 9.51953C29.558 9.46224 29.4265 9.43359 29.2677 9.43359C29.1244 9.43359 29.0033 9.45703 28.9044 9.50391C28.808 9.55078 28.7351 9.61198 28.6856 9.6875C28.6361 9.76302 28.6114 9.84635 28.6114 9.9375C28.6114 10.0052 28.6244 10.0664 28.6505 10.1211C28.6791 10.1732 28.7247 10.2214 28.7872 10.2656C28.8497 10.3099 28.9343 10.3503 29.0411 10.3867C29.1505 10.4232 29.2846 10.4583 29.4434 10.4922C29.7585 10.5547 30.0333 10.638 30.2677 10.7422C30.5046 10.8438 30.6895 10.9792 30.8223 11.1484C30.9552 11.3177 31.0216 11.5339 31.0216 11.7969C31.0216 11.9844 30.9812 12.1562 30.9005 12.3125C30.8197 12.4661 30.7026 12.6003 30.5489 12.7148C30.3953 12.8294 30.2117 12.9193 29.9981 12.9844C29.7846 13.0469 29.5437 13.0781 29.2755 13.0781C28.8874 13.0781 28.5593 13.0091 28.2911 12.8711C28.0229 12.7305 27.8197 12.5534 27.6817 12.3398C27.5437 12.1237 27.4747 11.8997 27.4747 11.668H28.463C28.4708 11.832 28.5151 11.9635 28.5958 12.0625C28.6765 12.1615 28.7781 12.2331 28.9005 12.2773C29.0255 12.319 29.157 12.3398 29.295 12.3398C29.4513 12.3398 29.5828 12.319 29.6895 12.2773C29.7963 12.2331 29.877 12.1745 29.9317 12.1016C29.9864 12.026 30.0138 11.9401 30.0138 11.8438ZM34.0509 11.8438C34.0509 11.7552 34.0275 11.6758 33.9806 11.6055C33.9338 11.5352 33.8452 11.4714 33.715 11.4141C33.5874 11.3542 33.3999 11.2982 33.1525 11.2461C32.9338 11.1992 32.7319 11.1406 32.547 11.0703C32.3621 11 32.2033 10.9154 32.0705 10.8164C31.9377 10.7148 31.8335 10.5964 31.758 10.4609C31.6851 10.3229 31.6486 10.1641 31.6486 9.98438C31.6486 9.8099 31.6864 9.64583 31.7619 9.49219C31.8374 9.33594 31.9468 9.19922 32.09 9.08203C32.2332 8.96224 32.4077 8.86849 32.6134 8.80078C32.8192 8.73047 33.0509 8.69531 33.3088 8.69531C33.6681 8.69531 33.9767 8.75391 34.2345 8.87109C34.4949 8.98828 34.6942 9.14974 34.8322 9.35547C34.9702 9.55859 35.0392 9.78776 35.0392 10.043H34.008C34.008 9.93099 33.9819 9.82943 33.9298 9.73828C33.8804 9.64714 33.8035 9.57422 33.6994 9.51953C33.5952 9.46224 33.4637 9.43359 33.3048 9.43359C33.1616 9.43359 33.0405 9.45703 32.9416 9.50391C32.8452 9.55078 32.7723 9.61198 32.7228 9.6875C32.6733 9.76302 32.6486 9.84635 32.6486 9.9375C32.6486 10.0052 32.6616 10.0664 32.6877 10.1211C32.7163 10.1732 32.7619 10.2214 32.8244 10.2656C32.8869 10.3099 32.9715 10.3503 33.0783 10.3867C33.1877 10.4232 33.3218 10.4583 33.4806 10.4922C33.7957 10.5547 34.0705 10.638 34.3048 10.7422C34.5418 10.8438 34.7267 10.9792 34.8595 11.1484C34.9923 11.3177 35.0588 11.5339 35.0588 11.7969C35.0588 11.9844 35.0184 12.1562 34.9377 12.3125C34.8569 12.4661 34.7397 12.6003 34.5861 12.7148C34.4324 12.8294 34.2489 12.9193 34.0353 12.9844C33.8218 13.0469 33.5809 13.0781 33.3127 13.0781C32.9246 13.0781 32.5965 13.0091 32.3283 12.8711C32.0601 12.7305 31.8569 12.5534 31.7189 12.3398C31.5809 12.1237 31.5119 11.8997 31.5119 11.668H32.5002C32.508 11.832 32.5522 11.9635 32.633 12.0625C32.7137 12.1615 32.8153 12.2331 32.9377 12.2773C33.0627 12.319 33.1942 12.3398 33.3322 12.3398C33.4884 12.3398 33.6199 12.319 33.7267 12.2773C33.8335 12.2331 33.9142 12.1745 33.9689 12.1016C34.0236 12.026 34.0509 11.9401 34.0509 11.8438ZM38.2795 11.9961V8.77344H39.3186V13H38.342L38.2795 11.9961ZM38.4123 11.1211L38.7327 11.1133C38.7327 11.3971 38.7014 11.6589 38.6389 11.8984C38.5764 12.138 38.4788 12.3464 38.3459 12.5234C38.2157 12.6979 38.0504 12.8346 37.8498 12.9336C37.6493 13.0299 37.4123 13.0781 37.1389 13.0781C36.9306 13.0781 36.7405 13.0495 36.5686 12.9922C36.3967 12.9323 36.2483 12.8398 36.1233 12.7148C36.0009 12.5872 35.9058 12.4245 35.8381 12.2266C35.7704 12.026 35.7366 11.7852 35.7366 11.5039V8.77344H36.7678V11.5117C36.7678 11.6523 36.7834 11.7695 36.8147 11.8633C36.8485 11.957 36.8941 12.0339 36.9514 12.0938C37.0113 12.151 37.0803 12.1927 37.1584 12.2188C37.2392 12.2422 37.3251 12.2539 37.4163 12.2539C37.6663 12.2539 37.8629 12.2044 38.0061 12.1055C38.1519 12.0039 38.2561 11.8685 38.3186 11.6992C38.3811 11.5273 38.4123 11.3346 38.4123 11.1211ZM42.0511 13.0781C41.7308 13.0781 41.443 13.026 41.1878 12.9219C40.9326 12.8177 40.7152 12.6732 40.5355 12.4883C40.3584 12.3008 40.2217 12.0833 40.1253 11.8359C40.0316 11.5859 39.9847 11.3177 39.9847 11.0312V10.875C39.9847 10.5495 40.0316 10.2539 40.1253 9.98828C40.2191 9.72005 40.3519 9.48958 40.5238 9.29688C40.6956 9.10417 40.9014 8.95573 41.1409 8.85156C41.3805 8.7474 41.6448 8.69531 41.9339 8.69531C42.2334 8.69531 42.4977 8.74609 42.7269 8.84766C42.956 8.94661 43.1474 9.08724 43.3011 9.26953C43.4547 9.45182 43.5706 9.67057 43.6488 9.92578C43.7269 10.1784 43.7659 10.4583 43.7659 10.7656V11.1992H40.4534V10.4883H42.7503V10.4102C42.7451 10.2461 42.7139 10.0964 42.6566 9.96094C42.5993 9.82292 42.5107 9.71354 42.3909 9.63281C42.2711 9.54948 42.1162 9.50781 41.9261 9.50781C41.7724 9.50781 41.6383 9.54167 41.5238 9.60938C41.4118 9.67448 41.318 9.76823 41.2425 9.89062C41.1696 10.0104 41.1149 10.1536 41.0784 10.3203C41.042 10.487 41.0238 10.6719 41.0238 10.875V11.0312C41.0238 11.2083 41.0472 11.3724 41.0941 11.5234C41.1435 11.6745 41.2152 11.806 41.3089 11.918C41.4053 12.0273 41.5198 12.1133 41.6527 12.1758C41.7881 12.2357 41.9417 12.2656 42.1136 12.2656C42.3297 12.2656 42.5251 12.224 42.6995 12.1406C42.8766 12.0547 43.0303 11.9284 43.1605 11.7617L43.68 12.3008C43.5915 12.431 43.4717 12.556 43.3206 12.6758C43.1722 12.7956 42.9925 12.8932 42.7816 12.9688C42.5706 13.0417 42.3271 13.0781 42.0511 13.0781ZM46.9125 12.1016V7H47.9516V13H47.0141L46.9125 12.1016ZM44.1977 10.9375V10.8555C44.1977 10.5326 44.2341 10.2396 44.307 9.97656C44.3826 9.71094 44.4919 9.48307 44.6352 9.29297C44.7784 9.10286 44.9516 8.95573 45.1547 8.85156C45.3604 8.7474 45.5935 8.69531 45.8539 8.69531C46.1065 8.69531 46.3266 8.74609 46.5141 8.84766C46.7042 8.94922 46.8656 9.09375 46.9984 9.28125C47.1339 9.46875 47.2419 9.69141 47.3227 9.94922C47.4034 10.2044 47.462 10.4857 47.4984 10.793V11.0156C47.462 11.3151 47.4034 11.5898 47.3227 11.8398C47.2419 12.0898 47.1339 12.3086 46.9984 12.4961C46.8656 12.681 46.7042 12.8242 46.5141 12.9258C46.324 13.0273 46.1013 13.0781 45.8461 13.0781C45.5883 13.0781 45.3565 13.0247 45.1508 12.918C44.9477 12.8112 44.7745 12.6615 44.6313 12.4688C44.4906 12.276 44.3826 12.0495 44.307 11.7891C44.2341 11.5286 44.1977 11.2448 44.1977 10.9375ZM45.2328 10.8555V10.9375C45.2328 11.1198 45.2484 11.2904 45.2797 11.4492C45.3109 11.6081 45.3617 11.7487 45.432 11.8711C45.5023 11.9909 45.5922 12.0846 45.7016 12.1523C45.8135 12.2201 45.949 12.2539 46.1078 12.2539C46.3109 12.2539 46.4776 12.2096 46.6078 12.1211C46.7406 12.0299 46.8435 11.9062 46.9164 11.75C46.9893 11.5911 47.0362 11.4128 47.057 11.2148V10.6016C47.0466 10.4453 47.0193 10.3008 46.975 10.168C46.9333 10.0352 46.8734 9.92057 46.7953 9.82422C46.7198 9.72786 46.626 9.65234 46.5141 9.59766C46.4021 9.54297 46.2693 9.51562 46.1156 9.51562C45.9568 9.51562 45.8214 9.55078 45.7094 9.62109C45.5974 9.6888 45.5063 9.78385 45.4359 9.90625C45.3656 10.0286 45.3135 10.1706 45.2797 10.332C45.2484 10.4935 45.2328 10.668 45.2328 10.8555Z" fill="white"/>
<defs>
<filter id="filter0_d_102_6" x="0" y="0" width="74.1695" height="28.8835" filterUnits="userSpaceOnUse" color-interpolation-filters="sRGB">
<feFlood flood-opacity="0" result="BackgroundImageFix"/>
<feColorMatrix in="SourceAlpha" type="matrix" values="0 0 0 0 0 0 0 0 0 0 0 0 0 0 0 0 0 0 127 0" result="hardAlpha"/>
<feOffset dy="4"/>
<feGaussianBlur stdDeviation="2"/>
<feComposite in2="hardAlpha" operator="out"/>
<feColorMatrix type="matrix" values="0 0 0 0 0 0 0 0 0 0 0 0 0 0 0 0 0 0 0.25 0"/>
<feBlend mode="normal" in2="BackgroundImageFix" result="effect1_dropShadow_102_6"/>
<feBlend mode="normal" in="SourceGraphic" in2="effect1_dropShadow_102_6" result="shape"/>
</filter>
</defs>
</svg>
