<svg width="75" height="30" viewBox="0 0 75 30" fill="none" xmlns="http://www.w3.org/2000/svg">
<g filter="url(#filter0_d_5_14)">
<path d="M4.57721 0.704102H60.5525L70.7467 10.8972L60.5525 21.5876H4.57721L12.9179 10.8972L4.57721 0.704102Z" fill="#213315"/>
</g>
<path d="M28.6875 7.3125V13H27.6133V7.3125H28.6875ZM32.0138 11.8438C32.0138 11.7552 31.9903 11.6758 31.9434 11.6055C31.8966 11.5352 31.808 11.4714 31.6778 11.4141C31.5502 11.3542 31.3627 11.2982 31.1153 11.2461C30.8966 11.1992 30.6947 11.1406 30.5098 11.0703C30.3249 11 30.1661 10.9154 30.0333 10.8164C29.9005 10.7148 29.7963 10.5964 29.7208 10.4609C29.6479 10.3229 29.6114 10.1641 29.6114 9.98438C29.6114 9.8099 29.6492 9.64583 29.7247 9.49219C29.8002 9.33594 29.9096 9.19922 30.0528 9.08203C30.196 8.96224 30.3705 8.86849 30.5763 8.80078C30.782 8.73047 31.0138 8.69531 31.2716 8.69531C31.6309 8.69531 31.9395 8.75391 32.1973 8.87109C32.4578 8.98828 32.657 9.14974 32.795 9.35547C32.933 9.55859 33.002 9.78776 33.002 10.043H31.9708C31.9708 9.93099 31.9447 9.82943 31.8927 9.73828C31.8432 9.64714 31.7664 9.57422 31.6622 9.51953C31.558 9.46224 31.4265 9.43359 31.2677 9.43359C31.1244 9.43359 31.0033 9.45703 30.9044 9.50391C30.808 9.55078 30.7351 9.61198 30.6856 9.6875C30.6361 9.76302 30.6114 9.84635 30.6114 9.9375C30.6114 10.0052 30.6244 10.0664 30.6505 10.1211C30.6791 10.1732 30.7247 10.2214 30.7872 10.2656C30.8497 10.3099 30.9343 10.3503 31.0411 10.3867C31.1505 10.4232 31.2846 10.4583 31.4434 10.4922C31.7585 10.5547 32.0333 10.638 32.2677 10.7422C32.5046 10.8438 32.6895 10.9792 32.8223 11.1484C32.9552 11.3177 33.0216 11.5339 33.0216 11.7969C33.0216 11.9844 32.9812 12.1562 32.9005 12.3125C32.8197 12.4661 32.7026 12.6003 32.5489 12.7148C32.3953 12.8294 32.2117 12.9193 31.9981 12.9844C31.7846 13.0469 31.5437 13.0781 31.2755 13.0781C30.8874 13.0781 30.5593 13.0091 30.2911 12.8711C30.0229 12.7305 29.8197 12.5534 29.6817 12.3398C29.5437 12.1237 29.4747 11.8997 29.4747 11.668H30.463C30.4708 11.832 30.5151 11.9635 30.5958 12.0625C30.6765 12.1615 30.7781 12.2331 30.9005 12.2773C31.0255 12.319 31.157 12.3398 31.295 12.3398C31.4513 12.3398 31.5828 12.319 31.6895 12.2773C31.7963 12.2331 31.877 12.1745 31.9317 12.1016C31.9864 12.026 32.0138 11.9401 32.0138 11.8438ZM36.0509 11.8438C36.0509 11.7552 36.0275 11.6758 35.9806 11.6055C35.9338 11.5352 35.8452 11.4714 35.715 11.4141C35.5874 11.3542 35.3999 11.2982 35.1525 11.2461C34.9338 11.1992 34.7319 11.1406 34.547 11.0703C34.3621 11 34.2033 10.9154 34.0705 10.8164C33.9377 10.7148 33.8335 10.5964 33.758 10.4609C33.6851 10.3229 33.6486 10.1641 33.6486 9.98438C33.6486 9.8099 33.6864 9.64583 33.7619 9.49219C33.8374 9.33594 33.9468 9.19922 34.09 9.08203C34.2332 8.96224 34.4077 8.86849 34.6134 8.80078C34.8192 8.73047 35.0509 8.69531 35.3088 8.69531C35.6681 8.69531 35.9767 8.75391 36.2345 8.87109C36.4949 8.98828 36.6942 9.14974 36.8322 9.35547C36.9702 9.55859 37.0392 9.78776 37.0392 10.043H36.008C36.008 9.93099 35.9819 9.82943 35.9298 9.73828C35.8804 9.64714 35.8035 9.57422 35.6994 9.51953C35.5952 9.46224 35.4637 9.43359 35.3048 9.43359C35.1616 9.43359 35.0405 9.45703 34.9416 9.50391C34.8452 9.55078 34.7723 9.61198 34.7228 9.6875C34.6733 9.76302 34.6486 9.84635 34.6486 9.9375C34.6486 10.0052 34.6616 10.0664 34.6877 10.1211C34.7163 10.1732 34.7619 10.2214 34.8244 10.2656C34.8869 10.3099 34.9715 10.3503 35.0783 10.3867C35.1877 10.4232 35.3218 10.4583 35.4806 10.4922C35.7957 10.5547 36.0705 10.638 36.3048 10.7422C36.5418 10.8438 36.7267 10.9792 36.8595 11.1484C36.9923 11.3177 37.0588 11.5339 37.0588 11.7969C37.0588 11.9844 37.0184 12.1562 36.9377 12.3125C36.8569 12.4661 36.7397 12.6003 36.5861 12.7148C36.4324 12.8294 36.2489 12.9193 36.0353 12.9844C35.8218 13.0469 35.5809 13.0781 35.3127 13.0781C34.9246 13.0781 34.5965 13.0091 34.3283 12.8711C34.0601 12.7305 33.8569 12.5534 33.7189 12.3398C33.5809 12.1237 33.5119 11.8997 33.5119 11.668H34.5002C34.508 11.832 34.5522 11.9635 34.633 12.0625C34.7137 12.1615 34.8153 12.2331 34.9377 12.2773C35.0627 12.319 35.1942 12.3398 35.3322 12.3398C35.4884 12.3398 35.6199 12.319 35.7267 12.2773C35.8335 12.2331 35.9142 12.1745 35.9689 12.1016C36.0236 12.026 36.0509 11.9401 36.0509 11.8438ZM40.2795 11.9961V8.77344H41.3186V13H40.342L40.2795 11.9961ZM40.4123 11.1211L40.7327 11.1133C40.7327 11.3971 40.7014 11.6589 40.6389 11.8984C40.5764 12.138 40.4788 12.3464 40.3459 12.5234C40.2157 12.6979 40.0504 12.8346 39.8498 12.9336C39.6493 13.0299 39.4123 13.0781 39.1389 13.0781C38.9306 13.0781 38.7405 13.0495 38.5686 12.9922C38.3967 12.9323 38.2483 12.8398 38.1233 12.7148C38.0009 12.5872 37.9058 12.4245 37.8381 12.2266C37.7704 12.026 37.7366 11.7852 37.7366 11.5039V8.77344H38.7678V11.5117C38.7678 11.6523 38.7834 11.7695 38.8147 11.8633C38.8485 11.957 38.8941 12.0339 38.9514 12.0938C39.0113 12.151 39.0803 12.1927 39.1584 12.2188C39.2392 12.2422 39.3251 12.2539 39.4163 12.2539C39.6663 12.2539 39.8629 12.2044 40.0061 12.1055C40.1519 12.0039 40.2561 11.8685 40.3186 11.6992C40.3811 11.5273 40.4123 11.3346 40.4123 11.1211ZM44.0511 13.0781C43.7308 13.0781 43.443 13.026 43.1878 12.9219C42.9326 12.8177 42.7152 12.6732 42.5355 12.4883C42.3584 12.3008 42.2217 12.0833 42.1253 11.8359C42.0316 11.5859 41.9847 11.3177 41.9847 11.0312V10.875C41.9847 10.5495 42.0316 10.2539 42.1253 9.98828C42.2191 9.72005 42.3519 9.48958 42.5238 9.29688C42.6956 9.10417 42.9014 8.95573 43.1409 8.85156C43.3805 8.7474 43.6448 8.69531 43.9339 8.69531C44.2334 8.69531 44.4977 8.74609 44.7269 8.84766C44.956 8.94661 45.1474 9.08724 45.3011 9.26953C45.4547 9.45182 45.5706 9.67057 45.6488 9.92578C45.7269 10.1784 45.7659 10.4583 45.7659 10.7656V11.1992H42.4534V10.4883H44.7503V10.4102C44.7451 10.2461 44.7139 10.0964 44.6566 9.96094C44.5993 9.82292 44.5107 9.71354 44.3909 9.63281C44.2711 9.54948 44.1162 9.50781 43.9261 9.50781C43.7724 9.50781 43.6383 9.54167 43.5238 9.60938C43.4118 9.67448 43.318 9.76823 43.2425 9.89062C43.1696 10.0104 43.1149 10.1536 43.0784 10.3203C43.042 10.487 43.0238 10.6719 43.0238 10.875V11.0312C43.0238 11.2083 43.0472 11.3724 43.0941 11.5234C43.1435 11.6745 43.2152 11.806 43.3089 11.918C43.4053 12.0273 43.5198 12.1133 43.6527 12.1758C43.7881 12.2357 43.9417 12.2656 44.1136 12.2656C44.3297 12.2656 44.5251 12.224 44.6995 12.1406C44.8766 12.0547 45.0303 11.9284 45.1605 11.7617L45.68 12.3008C45.5915 12.431 45.4717 12.556 45.3206 12.6758C45.1722 12.7956 44.9925 12.8932 44.7816 12.9688C44.5706 13.0417 44.3271 13.0781 44.0511 13.0781ZM48.9125 12.1016V7H49.9516V13H49.0141L48.9125 12.1016ZM46.1977 10.9375V10.8555C46.1977 10.5326 46.2341 10.2396 46.307 9.97656C46.3826 9.71094 46.4919 9.48307 46.6352 9.29297C46.7784 9.10286 46.9516 8.95573 47.1547 8.85156C47.3604 8.7474 47.5935 8.69531 47.8539 8.69531C48.1065 8.69531 48.3266 8.74609 48.5141 8.84766C48.7042 8.94922 48.8656 9.09375 48.9984 9.28125C49.1339 9.46875 49.2419 9.69141 49.3227 9.94922C49.4034 10.2044 49.462 10.4857 49.4984 10.793V11.0156C49.462 11.3151 49.4034 11.5898 49.3227 11.8398C49.2419 12.0898 49.1339 12.3086 48.9984 12.4961C48.8656 12.681 48.7042 12.8242 48.5141 12.9258C48.324 13.0273 48.1013 13.0781 47.8461 13.0781C47.5883 13.0781 47.3565 13.0247 47.1508 12.918C46.9477 12.8112 46.7745 12.6615 46.6313 12.4688C46.4906 12.276 46.3826 12.0495 46.307 11.7891C46.2341 11.5286 46.1977 11.2448 46.1977 10.9375ZM47.2328 10.8555V10.9375C47.2328 11.1198 47.2484 11.2904 47.2797 11.4492C47.3109 11.6081 47.3617 11.7487 47.432 11.8711C47.5023 11.9909 47.5922 12.0846 47.7016 12.1523C47.8135 12.2201 47.949 12.2539 48.1078 12.2539C48.3109 12.2539 48.4776 12.2096 48.6078 12.1211C48.7406 12.0299 48.8435 11.9062 48.9164 11.75C48.9893 11.5911 49.0362 11.4128 49.057 11.2148V10.6016C49.0466 10.4453 49.0193 10.3008 48.975 10.168C48.9333 10.0352 48.8734 9.92057 48.7953 9.82422C48.7198 9.72786 48.626 9.65234 48.5141 9.59766C48.4021 9.54297 48.2693 9.51562 48.1156 9.51562C47.9568 9.51562 47.8214 9.55078 47.7094 9.62109C47.5974 9.6888 47.5063 9.78385 47.4359 9.90625C47.3656 10.0286 47.3135 10.1706 47.2797 10.332C47.2484 10.4935 47.2328 10.668 47.2328 10.8555Z" fill="white"/>
<defs>
<filter id="filter0_d_5_14" x="0.577209" y="0.704102" width="74.1695" height="28.8835" filterUnits="userSpaceOnUse" color-interpolation-filters="sRGB">
<feFlood flood-opacity="0" result="BackgroundImageFix"/>
<feColorMatrix in="SourceAlpha" type="matrix" values="0 0 0 0 0 0 0 0 0 0 0 0 0 0 0 0 0 0 127 0" result="hardAlpha"/>
<feOffset dy="4"/>
<feGaussianBlur stdDeviation="2"/>
<feComposite in2="hardAlpha" operator="out"/>
<feColorMatrix type="matrix" values="0 0 0 0 0 0 0 0 0 0 0 0 0 0 0 0 0 0 0.25 0"/>
<feBlend mode="normal" in2="BackgroundImageFix" result="effect1_dropShadow_5_14"/>
<feBlend mode="normal" in="SourceGraphic" in2="effect1_dropShadow_5_14" result="shape"/>
</filter>
</defs>
</svg>
