<svg width="189" height="91" viewBox="0 0 189 91" fill="none" xmlns="http://www.w3.org/2000/svg">
<path d="M0.103516 10C0.103516 4.47715 4.58067 0 10.1035 0H178.104C183.626 0 188.104 4.47715 188.104 10V81C188.104 86.5228 183.626 91 178.104 91H10.1035C4.58067 91 0.103516 86.5228 0.103516 81V10Z" fill="#5B6326"/>
<path fill-rule="evenodd" clip-rule="evenodd" d="M69.808 15.3945L68.1627 16.5131V46.3301C68.1627 75.8047 68.1788 76.1607 69.552 77.3477L70.9405 78.5488H97.0585H123.177L124.821 77.4297L126.466 76.3111V46.4121V16.5131L124.821 15.3945L123.177 14.2754H97.3145H71.4525L69.808 15.3945ZM120.301 18.925C120.906 19.3366 121.105 25.4963 121.105 43.8462C121.105 65.8874 120.999 68.3006 119.996 69.0541C118.965 69.8286 117.366 69.8879 97.4311 69.8879C78.4067 69.8879 75.836 69.8022 74.7497 69.1335C73.591 68.4205 73.524 67.0366 73.524 43.9255C73.524 25.5137 73.7223 19.337 74.3282 18.925C75.4795 18.1418 119.15 18.1418 120.301 18.925ZM150.056 23.4834C148.543 24.5122 149.215 26.1874 152.003 28.3367C153.517 29.5032 155.739 31.791 156.942 33.4207C163.987 42.9682 162.249 53.5506 152.267 61.8874C148.318 65.1841 148.342 67.6087 152.324 67.6087C155.363 67.6087 162.164 61.2251 165.441 55.2964C167.437 51.6844 167.581 51.0316 167.603 45.5004C167.633 37.8309 165.703 33.3541 159.937 27.7227C155.48 23.3689 152.257 21.9864 150.056 23.4834ZM37.7175 25.3952C34.0411 28.0955 30.9021 31.7418 28.781 35.7751C26.4113 40.2824 25.8833 48.3244 27.6551 52.9165C30.3163 59.8138 38.2349 68.0645 42.1935 68.0645C46.2547 68.0645 46.3552 65.7274 42.4294 62.599C29.539 52.3271 30.3157 36.9311 44.2046 27.389C45.6502 26.3957 45.6803 25.7124 44.334 24.4055C42.7471 22.8639 40.7594 23.1611 37.7175 25.3952ZM139.869 29.3181C138.003 30.5876 138.171 31.2217 140.976 33.4913C142.322 34.5808 144.203 36.6002 145.156 37.9791C146.686 40.1926 146.885 41.0464 146.856 45.2725C146.818 50.7221 145.983 52.4319 141.297 56.6562C138.108 59.5312 137.888 60.4643 140.16 61.4767C142.225 62.3971 143.628 61.9335 146.78 59.29C152.897 54.1591 155.459 46.4262 153.226 39.8371C151.712 35.3676 145.053 28.4064 142.293 28.4064C141.697 28.4064 140.607 28.8167 139.869 29.3181ZM48.7289 30.6305C45.0564 33.2561 41.4382 38.4778 40.626 42.3246C39.206 49.0505 42.414 56.235 48.94 60.9416C51.5455 62.8205 52.8436 62.986 54.7596 61.6827C56.4658 60.5222 56.4457 60.3175 54.444 58.4454C50.6542 54.9003 49.5532 53.5911 48.5432 51.4263C45.5155 44.9356 46.9027 39.7044 53.1204 34.1655C56.234 31.3913 56.1555 29.8086 52.8698 29.1107C51.6045 28.8422 50.8338 29.1248 48.7289 30.6305ZM128.758 35.4633C127.735 36.5259 127.754 36.6854 129.076 38.0844C132.403 41.6076 133.345 43.518 132.971 45.9827C132.603 48.4073 131.579 50.0328 129.072 52.1694C126.622 54.2571 129.323 56.9096 132.665 55.6985C134.567 55.0092 135.436 54.2694 137.681 51.4263C139.229 49.4653 139.48 48.6065 139.481 45.2725C139.481 41.9695 139.207 41.0127 137.624 38.7882C134.642 34.5972 130.933 33.2064 128.758 35.4633ZM59.3214 36.5714C54.2831 40.5751 53.2451 46.8584 56.7875 51.9073C58.749 54.7025 61.3881 56.6685 63.1788 56.6685C64.505 56.6685 66.1523 55.3484 66.1523 54.2858C66.1523 53.7634 65.4553 52.7009 64.6035 51.925C60.5853 48.266 60.3527 43.5485 64.0178 40.0126C66.3908 37.722 66.6669 36.571 65.0994 35.5043C63.4073 34.3533 61.7205 34.6651 59.3214 36.5714ZM106.031 40.0627C104.942 40.6225 104.65 41.4029 104.458 44.2742C104.169 48.6106 105.35 50.0132 109.291 50.0132C112.125 50.0132 112.863 49.6148 113.698 47.6351C114.266 46.2881 114.193 46.1842 112.681 46.1842C111.535 46.1842 111.053 46.4376 111.053 47.0403C111.053 48.4256 109.391 49.0911 108.108 48.2186C106.654 47.2294 106.594 41.9845 108.028 41.175C109.363 40.421 111.053 40.9197 111.053 42.0675C111.053 42.6893 111.492 42.9933 112.393 42.9933C113.367 42.9933 113.733 42.6893 113.733 41.8797C113.733 39.7331 108.893 38.5913 106.031 40.0627ZM79.5554 44.7866C79.5554 49.4909 79.6438 49.8309 80.8675 49.8309C82.0403 49.8309 82.2005 49.4567 82.3754 46.31L82.5711 42.7896L84.3175 46.196C85.8448 49.1745 86.2871 49.6212 87.8358 49.747L89.6077 49.8915V44.8468C89.6077 40.1065 89.5273 39.8024 88.2674 39.8024C87.0517 39.8024 86.9271 40.1065 86.9271 43.0694C86.9271 44.8659 86.7026 46.1833 86.4285 45.9968C86.1537 45.8104 85.314 44.3914 84.5621 42.8438C83.3753 40.4014 82.9551 40.0112 81.3755 39.8863L79.5554 39.7418V44.7866ZM92.9585 44.8167C92.9585 49.7124 92.994 49.8309 94.4664 49.8318C95.8187 49.8323 95.9742 49.6089 95.9742 47.6666V45.5004L98.4873 45.3591C100.076 45.2693 101 44.9862 101 44.5888C101 44.1913 100.076 43.9082 98.4873 43.8184C96.3086 43.6958 95.9742 43.5253 95.9742 42.5375C95.9742 41.5228 96.2858 41.3824 98.8224 41.2579C100.762 41.1622 101.671 40.9078 101.671 40.4602C101.671 39.9547 100.663 39.8024 97.3145 39.8024H92.9585V44.8167ZM104.237 73.5145C104.55 75.7559 103.172 76.2696 96.8514 76.2696C92.5115 76.2696 91.3897 76.1142 90.2779 75.3579C88.7533 74.3209 88.6454 73.8464 89.6439 72.5773C90.2859 71.7605 90.9641 71.6916 97.1832 71.8097L104.016 71.9391L104.237 73.5145Z" fill="#F1CB66"/>
</svg>
