<svg width="105" height="24" viewBox="0 0 105 24" fill="none" xmlns="http://www.w3.org/2000/svg">
<rect x="1.40137" y="1.68774" width="102.521" height="21.0437" rx="4" fill="#2E4324" stroke="url(#paint0_linear_1723_1840)" stroke-width="2"/>
<path d="M1.47925 3.84009C1.47925 2.73552 2.37468 1.84009 3.47925 1.84009H20.875V22.5794H3.47925C2.37468 22.5794 1.47925 21.684 1.47925 20.5794V3.84009Z" fill="#23351B"/>
<path d="M31.9944 12.8499V13.3889C31.9944 14.0295 31.9143 14.6038 31.7542 15.1116C31.594 15.6194 31.3635 16.051 31.0627 16.4065C30.762 16.762 30.4006 17.0334 29.9788 17.2209C29.5608 17.4084 29.092 17.5022 28.5725 17.5022C28.0686 17.5022 27.6057 17.4084 27.1838 17.2209C26.7659 17.0334 26.4026 16.762 26.094 16.4065C25.7893 16.051 25.553 15.6194 25.385 15.1116C25.217 14.6038 25.1331 14.0295 25.1331 13.3889V12.8499C25.1331 12.2092 25.2151 11.637 25.3792 11.1331C25.5471 10.6252 25.7834 10.1936 26.0881 9.83813C26.3928 9.47876 26.7542 9.20532 27.1721 9.01782C27.594 8.83032 28.0569 8.73657 28.5608 8.73657C29.0803 8.73657 29.5491 8.83032 29.967 9.01782C30.3889 9.20532 30.7502 9.47876 31.051 9.83813C31.3557 10.1936 31.5881 10.6252 31.7483 11.1331C31.9124 11.637 31.9944 12.2092 31.9944 12.8499ZM30.8752 13.3889V12.8381C30.8752 12.3303 30.8225 11.8811 30.717 11.4905C30.6155 11.0999 30.4651 10.7717 30.2659 10.5061C30.0667 10.2405 29.8225 10.0393 29.5334 9.90259C29.2483 9.76587 28.9241 9.69751 28.5608 9.69751C28.2092 9.69751 27.8909 9.76587 27.6057 9.90259C27.3245 10.0393 27.0823 10.2405 26.8792 10.5061C26.6799 10.7717 26.5256 11.0999 26.4163 11.4905C26.3069 11.8811 26.2522 12.3303 26.2522 12.8381V13.3889C26.2522 13.9006 26.3069 14.3538 26.4163 14.7483C26.5256 15.1389 26.6819 15.469 26.885 15.7385C27.092 16.0042 27.3362 16.2053 27.6174 16.342C27.9026 16.4788 28.2209 16.5471 28.5725 16.5471C28.9397 16.5471 29.2659 16.4788 29.551 16.342C29.8362 16.2053 30.0764 16.0042 30.2717 15.7385C30.4709 15.469 30.6213 15.1389 30.7229 14.7483C30.8245 14.3538 30.8752 13.9006 30.8752 13.3889ZM36.8342 14.0393H34.5549V13.1194H36.8342C37.2756 13.1194 37.6331 13.0491 37.9065 12.9084C38.1799 12.7678 38.3792 12.5725 38.5042 12.3225C38.6331 12.0725 38.6975 11.7874 38.6975 11.467C38.6975 11.1741 38.6331 10.8987 38.5042 10.6409C38.3792 10.3831 38.1799 10.176 37.9065 10.0198C37.6331 9.85962 37.2756 9.77954 36.8342 9.77954H34.8186V17.385H33.6877V8.85376H36.8342C37.4788 8.85376 38.0237 8.96509 38.469 9.18774C38.9143 9.4104 39.2522 9.71899 39.4827 10.1135C39.7131 10.5042 39.8284 10.9514 39.8284 11.4553C39.8284 12.0022 39.7131 12.469 39.4827 12.8557C39.2522 13.2424 38.9143 13.5374 38.469 13.7405C38.0237 13.9397 37.4788 14.0393 36.8342 14.0393ZM46.678 16.4651V17.385H42.1604V16.4651H46.678ZM42.3889 8.85376V17.385H41.2581V8.85376H42.3889ZM46.0803 12.5217V13.4417H42.1604V12.5217H46.0803ZM46.6194 8.85376V9.77954H42.1604V8.85376H46.6194ZM54.6409 8.85376V17.385H53.5042L49.2092 10.8049V17.385H48.0784V8.85376H49.2092L53.5217 15.4514V8.85376H54.6409ZM64.7952 16.4651V17.385H60.5295V16.4651H64.7952ZM60.7522 8.85376V17.385H59.6213V8.85376H60.7522ZM67.303 8.85376V17.385H66.1721V8.85376H67.303ZM75.9221 8.85376V17.385H74.7854L70.4905 10.8049V17.385H69.3596V8.85376H70.4905L74.803 15.4514V8.85376H75.9221ZM79.0569 8.85376V17.385H77.926V8.85376H79.0569ZM84.2073 8.85376L80.6624 12.8323L78.6702 14.9006L78.4827 13.6936L79.9827 12.0413L82.8479 8.85376H84.2073ZM83.1174 17.385L79.9592 13.2249L80.6331 12.3284L84.4651 17.385H83.1174Z" fill="url(#paint1_linear_1723_1840)"/>
<path d="M9.26123 7.72925H8.06396C7.74643 7.72925 7.4419 7.86413 7.21737 8.10421C6.99284 8.3443 6.8667 8.66992 6.8667 9.00945V16.6907C6.8667 17.0302 6.99284 17.3558 7.21737 17.5959C7.4419 17.836 7.74643 17.9709 8.06396 17.9709H14.0503C14.3678 17.9709 14.6724 17.836 14.8969 17.5959C15.1214 17.3558 15.2476 17.0302 15.2476 16.6907V9.00945C15.2476 8.66992 15.1214 8.3443 14.8969 8.10421C14.6724 7.86413 14.3678 7.72925 14.0503 7.72925H12.853" stroke="url(#paint2_linear_1723_1840)" stroke-width="1.7" stroke-linecap="round" stroke-linejoin="round"/>
<path d="M11.6558 6.44897H10.4585C9.79726 6.44897 9.26123 7.02214 9.26123 7.72918C9.26123 8.43622 9.79726 9.00938 10.4585 9.00938H11.6558C12.317 9.00938 12.853 8.43622 12.853 7.72918C12.853 7.02214 12.317 6.44897 11.6558 6.44897Z" stroke="url(#paint3_linear_1723_1840)" stroke-width="1.7" stroke-linecap="round" stroke-linejoin="round"/>
<path d="M9.26123 15.4102V12.2097" stroke="url(#paint4_linear_1723_1840)" stroke-width="1.7" stroke-linecap="round" stroke-linejoin="round"/>
<path d="M11.0566 15.4104V14.7703" stroke="url(#paint5_linear_1723_1840)" stroke-width="1.7" stroke-linecap="round" stroke-linejoin="round"/>
<path d="M12.8535 15.4103V13.49" stroke="url(#paint6_linear_1723_1840)" stroke-width="1.7" stroke-linecap="round" stroke-linejoin="round"/>
<defs>
<linearGradient id="paint0_linear_1723_1840" x1="104.923" y1="12.2096" x2="0.401367" y2="12.2096" gradientUnits="userSpaceOnUse">
<stop stop-color="#9BFF99"/>
<stop offset="1" stop-color="#22941F"/>
</linearGradient>
<linearGradient id="paint1_linear_1723_1840" x1="62.6884" y1="6.38501" x2="62.6884" y2="22.5156" gradientUnits="userSpaceOnUse">
<stop stop-color="#23D220"/>
<stop offset="0.510417" stop-color="#8DFF8B"/>
<stop offset="1" stop-color="#03A600" stop-opacity="0"/>
</linearGradient>
<linearGradient id="paint2_linear_1723_1840" x1="11.0571" y1="7.72925" x2="11.0571" y2="17.9709" gradientUnits="userSpaceOnUse">
<stop stop-color="#7EE47B"/>
<stop offset="1" stop-color="#36A533"/>
</linearGradient>
<linearGradient id="paint3_linear_1723_1840" x1="11.0571" y1="6.44897" x2="11.0571" y2="9.00938" gradientUnits="userSpaceOnUse">
<stop stop-color="#7EE47B"/>
<stop offset="1" stop-color="#36A533"/>
</linearGradient>
<linearGradient id="paint4_linear_1723_1840" x1="9.76123" y1="12.2097" x2="9.76123" y2="15.4102" gradientUnits="userSpaceOnUse">
<stop stop-color="#7EE47B"/>
<stop offset="1" stop-color="#36A533"/>
</linearGradient>
<linearGradient id="paint5_linear_1723_1840" x1="11.5566" y1="14.7703" x2="11.5566" y2="15.4104" gradientUnits="userSpaceOnUse">
<stop stop-color="#7EE47B"/>
<stop offset="1" stop-color="#36A533"/>
</linearGradient>
<linearGradient id="paint6_linear_1723_1840" x1="13.3535" y1="13.49" x2="13.3535" y2="15.4103" gradientUnits="userSpaceOnUse">
<stop stop-color="#7EE47B"/>
<stop offset="1" stop-color="#36A533"/>
</linearGradient>
</defs>
</svg>
