<svg width="39" height="39" viewBox="0 0 39 39" fill="none" xmlns="http://www.w3.org/2000/svg">
<path d="M32.6968 29.0824C31.9783 27.3806 30.9357 25.8348 29.6271 24.5312C28.3224 23.2237 26.7768 22.1813 25.0758 21.4614C25.0605 21.4538 25.0453 21.45 25.0301 21.4424C27.4028 19.7285 28.9453 16.9368 28.9453 13.7871C28.9453 8.56934 24.7178 4.3418 19.5 4.3418C14.2822 4.3418 10.0547 8.56934 10.0547 13.7871C10.0547 16.9368 11.5972 19.7285 13.9699 21.4462C13.9547 21.4538 13.9395 21.4576 13.9242 21.4652C12.218 22.1851 10.6869 23.2172 9.37295 24.535C8.06549 25.8397 7.02306 27.3852 6.30322 29.0862C5.59605 30.7515 5.21466 32.537 5.17969 34.3459C5.17867 34.3865 5.1858 34.427 5.20066 34.4648C5.21551 34.5027 5.23779 34.5372 5.26619 34.5663C5.29458 34.5954 5.32852 34.6185 5.36599 34.6343C5.40346 34.6501 5.44371 34.6582 5.48437 34.6582H7.76953C7.93711 34.6582 8.07041 34.5249 8.07422 34.3611C8.15039 31.4209 9.33105 28.6673 11.4182 26.5802C13.5776 24.4207 16.4455 23.2324 19.5 23.2324C22.5545 23.2324 25.4224 24.4207 27.5818 26.5802C29.6689 28.6673 30.8496 31.4209 30.9258 34.3611C30.9296 34.5287 31.0629 34.6582 31.2305 34.6582H33.5156C33.5563 34.6582 33.5965 34.6501 33.634 34.6343C33.6715 34.6185 33.7054 34.5954 33.7338 34.5663C33.7622 34.5372 33.7845 34.5027 33.7993 34.4648C33.8142 34.427 33.8213 34.3865 33.8203 34.3459C33.7822 32.5254 33.4052 30.7544 32.6968 29.0824V29.0824ZM19.5 20.3379C17.7519 20.3379 16.1065 19.6562 14.8687 18.4184C13.631 17.1806 12.9492 15.5353 12.9492 13.7871C12.9492 12.039 13.631 10.3937 14.8687 9.15586C16.1065 7.91807 17.7519 7.23633 19.5 7.23633C21.2481 7.23633 22.8935 7.91807 24.1312 9.15586C25.369 10.3937 26.0508 12.039 26.0508 13.7871C26.0508 15.5353 25.369 17.1806 24.1312 18.4184C22.8935 19.6562 21.2481 20.3379 19.5 20.3379Z" fill="white"/>
<rect x="0.5" y="0.5" width="38" height="38" rx="4.5" stroke="white"/>
</svg>
