<svg width="189" height="91" viewBox="0 0 189 91" fill="none" xmlns="http://www.w3.org/2000/svg">
<path d="M0.103516 10C0.103516 4.47715 4.58067 0 10.1035 0H178.104C183.626 0 188.104 4.47715 188.104 10V81C188.104 86.5228 183.626 91 178.104 91H10.1035C4.58067 91 0.103516 86.5228 0.103516 81V10Z" fill="#5B6326"/>
<path fill-rule="evenodd" clip-rule="evenodd" d="M63.2957 24.7307V35.4614H74.5374H85.779V24.7307V14H74.5374H63.2957V24.7307ZM95.4993 15.533V17.0659H97.1052H98.7112V15.533V14H97.1052H95.4993V15.533ZM101.923 17.0659V20.1318H103.529H105.135V17.0659V14H103.529H101.923V17.0659ZM108.431 24.7307V35.4614H119.673H130.915V24.7307V14H119.673H108.431V24.7307ZM82.631 24.7509L82.6094 32.4358L74.5585 32.4564L66.5076 32.4769V24.7714V17.0659H74.5801H82.6525L82.631 24.7509ZM127.703 24.7714V32.4769L119.652 32.4564L111.601 32.4358L111.58 24.7509L111.558 17.0659H119.63H127.703V24.7714ZM69.7759 20.1856C69.7449 20.2152 69.7195 22.2847 69.7195 24.7845V29.3295H74.5374H79.3552V24.7307V20.1318H74.5938C71.9749 20.1318 69.8068 20.156 69.7759 20.1856ZM89.0755 21.663V23.1977H90.6833H92.2911L92.2681 21.6849L92.2451 20.1722L90.6603 20.1502L89.0755 20.1283V21.663ZM95.4993 21.6648V23.1977H97.1052H98.7112V21.6648V20.1318H97.1052H95.4993V21.6648ZM114.855 24.73V29.3295H119.674H124.492L124.471 24.7509L124.449 20.1722L119.652 20.1513L114.855 20.1304V24.73ZM102.071 23.2533C101.937 23.2869 101.923 23.4308 101.923 24.8173V26.3443H100.317H98.7112V27.8773V29.4102H97.1052H95.4993V27.8773V26.3443H93.8933H92.2874V29.4102V32.4761H90.6814H89.0755V35.542V38.608L82.6305 38.6079H76.1856V40.1207V41.6335L74.5796 41.6739L72.9737 41.7142V43.2068V44.6994L71.3466 44.7214L69.7195 44.7432V43.2086V41.6739H71.3255H72.9314V40.1409V38.608H68.1117H63.292L63.315 40.1207L63.338 41.6335L64.9228 41.6555L66.5076 41.6774V43.2086V44.7398H64.9017H63.2957V47.8057V50.8716H64.9017H66.5076V49.3386V47.8057H68.1136H69.7195V50.8716V53.9375H71.3255H72.9314V50.8716V47.8057H74.5374H76.1433V46.2727V44.7398H77.7493H79.3552V43.2068V41.6739H84.2154H89.0755V43.2068V44.7398H85.8636H82.6517V46.2727V47.8057H85.8636H89.0755V49.3386V50.8716H90.6814H92.2874V52.4045V53.9375H90.6814H89.0755V60.0693V66.2011H90.6814H92.2874V61.6023V57.0034H93.8933H95.4993V58.5364V60.0693H97.1052H98.7112V61.6023V63.1352H100.317H101.923V61.6023V60.0693H106.741H111.559V61.6005V63.1318L113.186 63.1536L114.813 63.1756V66.2415V69.3074L113.186 69.3293L111.559 69.3512V67.8165V66.2818H109.995H108.431V67.8197V69.3575L109.018 69.3023C109.341 69.272 110.044 69.2733 110.58 69.3053L111.555 69.3635L111.578 70.8683L111.601 72.3733L113.228 72.3952L114.855 72.4171V73.9484V75.4795H116.419H117.982L118.003 66.2616L118.025 57.0437L119.645 57.0219L121.265 56.9999L121.234 55.4889L121.204 53.9778L119.593 53.9559L117.983 53.934V52.4028V50.8716H116.419H114.855V52.4045V53.9375H109.995H105.135V55.5108V57.0841H103.529H101.923V58.5767V60.0693H100.317H98.7112V58.5364V57.0034H100.317H101.923V53.9375V50.8716H103.529H105.135V49.3386V47.8057H103.529H101.923V44.7398V41.6739H100.317H98.7112V37.075V32.4761H100.317H101.923V33.9687V35.4614H103.529H105.135V33.9687V32.4761H103.527H101.919L101.942 30.923L101.965 29.3699L103.55 29.3479L105.135 29.326V26.3145V23.3031L104.184 23.2507C103.152 23.194 102.305 23.195 102.071 23.2533ZM95.4993 40.1409V47.8057H92.2874H89.0755V46.2727V44.7398H90.6814H92.2874V38.608V32.4761H93.8933H95.4993V40.1409ZM101.942 40.1207L101.965 41.6335L105.198 41.6547L108.431 41.6758V44.7407V47.8057H109.995H111.559V49.3386V50.8716H113.165H114.771V49.3386V47.8057H116.419H118.067V49.3404V50.8751L119.652 50.8532L121.237 50.8312L121.245 49.0966C121.249 48.1425 121.234 46.772 121.211 46.0509L121.17 44.7398H117.971H114.771V43.2068V41.6739H113.165H111.559V40.1409V38.608H106.739H101.919L101.942 40.1207ZM121.279 41.6739V44.7398H122.885H124.491V46.2727V47.8057H126.097H127.703V49.3386V50.8716H126.098H124.493L124.471 53.9577L124.449 57.0437L122.864 57.0657L121.279 57.0876V58.5785V60.0693H122.885H124.491V64.7165V69.3637L125.914 69.3056C126.696 69.2737 127.419 69.2725 127.52 69.3031C127.699 69.3575 127.703 69.3901 127.703 70.8861V72.4136H126.097H124.491V75.4795V78.5455H127.703H130.915V77.0125V75.4795H129.309H127.703V73.9466V72.4136H129.309H130.915V70.8807V69.3477H129.309H127.703V64.7085V60.0693H129.309H130.915V58.5767V57.0841H129.309H127.703V55.5108V53.9375H129.309H130.915V47.8057V41.6739H127.703H124.491V40.1409V38.608H122.885H121.279V41.6739ZM76.2279 50.8716V53.9375H77.7915H79.3552V50.8716V47.8057H77.7915H76.2279V50.8716ZM82.6517 52.4045V53.9375H84.2154H85.779V52.4045V50.8716H84.2154H82.6517V52.4045ZM98.7112 52.4045V53.9375H97.1052H95.4993V52.4045V50.8716H97.1052H98.7112V52.4045ZM114.836 58.5565L114.859 60.0693H113.209H111.559V58.5346V56.9999L113.186 57.0218L114.813 57.0437L114.836 58.5565ZM63.2957 67.8148V78.5455H74.5374H85.779V67.8148V57.0841H74.5374H63.2957V67.8148ZM82.631 67.7946L82.6525 75.4795H74.5801H66.5076V67.774V60.0685L74.5585 60.0891L82.6094 60.1097L82.631 67.7946ZM69.74 67.7946L69.7618 72.3733L74.5585 72.3941L79.3552 72.415V67.8154V63.2159H74.5367H69.7181L69.74 67.7946ZM95.4993 64.7085V66.2011H97.1052H98.7112V64.7085V63.2159H97.1052H95.4993V64.7085ZM92.2874 67.762V69.2421L93.3651 69.2946C93.9577 69.3234 94.6805 69.3472 94.971 69.3474L95.4993 69.3477V70.8807V72.4136H100.317H105.135V69.3477V66.2818H103.529H101.923V67.8148V69.3477H98.7112H95.4993V67.8148V66.2818H93.8933H92.2874V67.762ZM89.0755 73.9466V78.5455H90.6814H92.2874V73.9466V69.3477H90.6814H89.0755V73.9466ZM95.4993 77.0125V78.5455H101.923H108.347V77.0125V75.4795H101.923H95.4993V77.0125ZM111.578 76.9923L111.601 78.5051L113.186 78.5271L114.771 78.549V77.0143V75.4795H113.163H111.555L111.578 76.9923Z" fill="#F1CB66"/>
</svg>
