<svg width="27" height="37" viewBox="0 0 27 37" fill="none" xmlns="http://www.w3.org/2000/svg">
<path d="M13.3311 21.3567C12.7653 21.3567 12.3056 21.8332 12.3056 22.4197C12.3056 23.0063 12.7653 23.4828 13.3311 23.4828C13.8969 23.4828 14.3565 23.0063 14.3565 22.4197C14.3565 21.8332 13.8969 21.3567 13.3311 21.3567Z" fill="#BC423A"/>
<path d="M19.4838 14.9709H6.7132C3.00568 14.9709 0 18.0904 0 21.9385C0 28.5117 4.20271 34.6203 10.3947 36.0007C19.0193 37.9234 26.6619 31.0453 26.6619 22.4211C26.6619 18.3066 23.4482 14.9709 19.4838 14.9709ZM14.3564 25.4181V31.0067C14.3564 31.595 13.8977 32.071 13.331 32.071C12.7641 32.071 12.3055 31.595 12.3055 31.0067V25.4181C11.1145 24.9773 10.2546 23.8069 10.2546 22.4212C10.2546 20.6605 11.6346 19.2283 13.331 19.2283C15.0274 19.2283 16.4073 20.6605 16.4073 22.4212C16.4073 23.8069 15.5474 24.9772 14.3564 25.4181Z" fill="#BC423A"/>
<path d="M13.331 0C8.22424 0 4.10185 4.27836 4.10185 9.57848V13.301C4.93214 13.0295 5.79804 12.8423 6.71358 12.8423H8.20373V9.57848C8.20373 6.64109 10.5007 4.25714 13.331 4.25714C16.1613 4.25714 18.4583 6.64109 18.4583 9.57848V12.8422H19.4837C20.5676 12.8422 21.5931 13.0728 22.5601 13.4307V9.57848C22.5601 4.28346 18.4277 0 13.331 0Z" fill="#BC423A"/>
</svg>
