<svg width="75" height="29" viewBox="0 0 75 29" fill="none" xmlns="http://www.w3.org/2000/svg">
<g filter="url(#filter0_d_104_11)">
<path d="M4 0H59.9753L70.1695 10.1931L59.9753 20.8835H4L12.3407 10.1931L4 0Z" fill="#A7CD8D"/>
</g>
<path d="M24.543 7.3125H26.6094C27.0417 7.3125 27.4128 7.3776 27.7227 7.50781C28.0326 7.63802 28.2708 7.83073 28.4375 8.08594C28.6042 8.34115 28.6875 8.65495 28.6875 9.02734C28.6875 9.32161 28.6354 9.57682 28.5312 9.79297C28.4271 10.0091 28.2799 10.1901 28.0898 10.3359C27.9023 10.4818 27.681 10.5964 27.4258 10.6797L27.0898 10.8516H25.2656L25.2578 10.0039H26.6211C26.8424 10.0039 27.026 9.96484 27.1719 9.88672C27.3177 9.80859 27.4271 9.70052 27.5 9.5625C27.5755 9.42448 27.6133 9.26693 27.6133 9.08984C27.6133 8.89974 27.5768 8.73568 27.5039 8.59766C27.431 8.45703 27.3203 8.34896 27.1719 8.27344C27.0234 8.19792 26.8359 8.16016 26.6094 8.16016H25.6172V13H24.543V7.3125ZM27.7539 13L26.4375 10.4531L27.5742 10.4492L28.9062 12.9453V13H27.7539ZM31.3692 13.0781C31.0489 13.0781 30.7611 13.026 30.5059 12.9219C30.2507 12.8177 30.0333 12.6732 29.8536 12.4883C29.6765 12.3008 29.5398 12.0833 29.4434 11.8359C29.3497 11.5859 29.3028 11.3177 29.3028 11.0312V10.875C29.3028 10.5495 29.3497 10.2539 29.4434 9.98828C29.5372 9.72005 29.67 9.48958 29.8419 9.29688C30.0138 9.10417 30.2195 8.95573 30.4591 8.85156C30.6986 8.7474 30.963 8.69531 31.252 8.69531C31.5515 8.69531 31.8158 8.74609 32.045 8.84766C32.2742 8.94661 32.4656 9.08724 32.6192 9.26953C32.7729 9.45182 32.8888 9.67057 32.9669 9.92578C33.045 10.1784 33.0841 10.4583 33.0841 10.7656V11.1992H29.7716V10.4883H32.0684V10.4102C32.0632 10.2461 32.032 10.0964 31.9747 9.96094C31.9174 9.82292 31.8289 9.71354 31.7091 9.63281C31.5893 9.54948 31.4343 9.50781 31.2442 9.50781C31.0906 9.50781 30.9565 9.54167 30.8419 9.60938C30.7299 9.67448 30.6361 9.76823 30.5606 9.89062C30.4877 10.0104 30.433 10.1536 30.3966 10.3203C30.3601 10.487 30.3419 10.6719 30.3419 10.875V11.0312C30.3419 11.2083 30.3653 11.3724 30.4122 11.5234C30.4617 11.6745 30.5333 11.806 30.627 11.918C30.7234 12.0273 30.838 12.1133 30.9708 12.1758C31.1062 12.2357 31.2598 12.2656 31.4317 12.2656C31.6479 12.2656 31.8432 12.224 32.0177 12.1406C32.1947 12.0547 32.3484 11.9284 32.4786 11.7617L32.9981 12.3008C32.9096 12.431 32.7898 12.556 32.6388 12.6758C32.4903 12.7956 32.3106 12.8932 32.0997 12.9688C31.8888 13.0417 31.6453 13.0781 31.3692 13.0781ZM34.7892 7V13H33.7541V7H34.7892ZM36.7873 8.77344V13H35.7522V8.77344H36.7873ZM35.6819 7.66797C35.6819 7.51432 35.734 7.38672 35.8381 7.28516C35.9449 7.18359 36.0881 7.13281 36.2678 7.13281C36.4475 7.13281 36.5894 7.18359 36.6936 7.28516C36.8004 7.38672 36.8538 7.51432 36.8538 7.66797C36.8538 7.81901 36.8004 7.94531 36.6936 8.04688C36.5894 8.14844 36.4475 8.19922 36.2678 8.19922C36.0881 8.19922 35.9449 8.14844 35.8381 8.04688C35.734 7.94531 35.6819 7.81901 35.6819 7.66797ZM39.5902 13.0781C39.2698 13.0781 38.9821 13.026 38.7269 12.9219C38.4717 12.8177 38.2542 12.6732 38.0745 12.4883C37.8974 12.3008 37.7607 12.0833 37.6644 11.8359C37.5706 11.5859 37.5238 11.3177 37.5238 11.0312V10.875C37.5238 10.5495 37.5706 10.2539 37.6644 9.98828C37.7581 9.72005 37.8909 9.48958 38.0628 9.29688C38.2347 9.10417 38.4404 8.95573 38.68 8.85156C38.9196 8.7474 39.1839 8.69531 39.473 8.69531C39.7724 8.69531 40.0368 8.74609 40.2659 8.84766C40.4951 8.94661 40.6865 9.08724 40.8402 9.26953C40.9938 9.45182 41.1097 9.67057 41.1878 9.92578C41.2659 10.1784 41.305 10.4583 41.305 10.7656V11.1992H37.9925V10.4883H40.2894V10.4102C40.2842 10.2461 40.2529 10.0964 40.1956 9.96094C40.1383 9.82292 40.0498 9.71354 39.93 9.63281C39.8102 9.54948 39.6553 9.50781 39.4652 9.50781C39.3115 9.50781 39.1774 9.54167 39.0628 9.60938C38.9508 9.67448 38.8571 9.76823 38.7816 9.89062C38.7086 10.0104 38.654 10.1536 38.6175 10.3203C38.581 10.487 38.5628 10.6719 38.5628 10.875V11.0312C38.5628 11.2083 38.5863 11.3724 38.6331 11.5234C38.6826 11.6745 38.7542 11.806 38.848 11.918C38.9443 12.0273 39.0589 12.1133 39.1917 12.1758C39.3271 12.2357 39.4808 12.2656 39.6527 12.2656C39.8688 12.2656 40.0641 12.224 40.2386 12.1406C40.4157 12.0547 40.5693 11.9284 40.6995 11.7617L41.2191 12.3008C41.1305 12.431 41.0107 12.556 40.8597 12.6758C40.7113 12.7956 40.5316 12.8932 40.3206 12.9688C40.1097 13.0417 39.8662 13.0781 39.5902 13.0781ZM44.2406 11.8438C44.2406 11.7552 44.2172 11.6758 44.1703 11.6055C44.1234 11.5352 44.0349 11.4714 43.9047 11.4141C43.7771 11.3542 43.5896 11.2982 43.3422 11.2461C43.1234 11.1992 42.9216 11.1406 42.7367 11.0703C42.5518 11 42.393 10.9154 42.2602 10.8164C42.1273 10.7148 42.0232 10.5964 41.9477 10.4609C41.8747 10.3229 41.8383 10.1641 41.8383 9.98438C41.8383 9.8099 41.876 9.64583 41.9516 9.49219C42.0271 9.33594 42.1365 9.19922 42.2797 9.08203C42.4229 8.96224 42.5974 8.86849 42.8031 8.80078C43.0089 8.73047 43.2406 8.69531 43.4984 8.69531C43.8578 8.69531 44.1664 8.75391 44.4242 8.87109C44.6846 8.98828 44.8839 9.14974 45.0219 9.35547C45.1599 9.55859 45.2289 9.78776 45.2289 10.043H44.1977C44.1977 9.93099 44.1716 9.82943 44.1195 9.73828C44.0701 9.64714 43.9932 9.57422 43.8891 9.51953C43.7849 9.46224 43.6534 9.43359 43.4945 9.43359C43.3513 9.43359 43.2302 9.45703 43.1313 9.50391C43.0349 9.55078 42.962 9.61198 42.9125 9.6875C42.863 9.76302 42.8383 9.84635 42.8383 9.9375C42.8383 10.0052 42.8513 10.0664 42.8773 10.1211C42.906 10.1732 42.9516 10.2214 43.0141 10.2656C43.0766 10.3099 43.1612 10.3503 43.268 10.3867C43.3773 10.4232 43.5115 10.4583 43.6703 10.4922C43.9854 10.5547 44.2602 10.638 44.4945 10.7422C44.7315 10.8438 44.9164 10.9792 45.0492 11.1484C45.182 11.3177 45.2484 11.5339 45.2484 11.7969C45.2484 11.9844 45.2081 12.1562 45.1273 12.3125C45.0466 12.4661 44.9294 12.6003 44.7758 12.7148C44.6221 12.8294 44.4385 12.9193 44.225 12.9844C44.0115 13.0469 43.7706 13.0781 43.5023 13.0781C43.1143 13.0781 42.7862 13.0091 42.518 12.8711C42.2497 12.7305 42.0466 12.5534 41.9086 12.3398C41.7706 12.1237 41.7016 11.8997 41.7016 11.668H42.6898C42.6977 11.832 42.7419 11.9635 42.8227 12.0625C42.9034 12.1615 43.0049 12.2331 43.1273 12.2773C43.2523 12.319 43.3839 12.3398 43.5219 12.3398C43.6781 12.3398 43.8096 12.319 43.9164 12.2773C44.0232 12.2331 44.1039 12.1745 44.1586 12.1016C44.2133 12.026 44.2406 11.9401 44.2406 11.8438ZM47.852 13.0781C47.5317 13.0781 47.244 13.026 46.9888 12.9219C46.7335 12.8177 46.5161 12.6732 46.3364 12.4883C46.1593 12.3008 46.0226 12.0833 45.9263 11.8359C45.8325 11.5859 45.7856 11.3177 45.7856 11.0312V10.875C45.7856 10.5495 45.8325 10.2539 45.9263 9.98828C46.02 9.72005 46.1528 9.48958 46.3247 9.29688C46.4966 9.10417 46.7023 8.95573 46.9419 8.85156C47.1815 8.7474 47.4458 8.69531 47.7348 8.69531C48.0343 8.69531 48.2986 8.74609 48.5278 8.84766C48.757 8.94661 48.9484 9.08724 49.102 9.26953C49.2557 9.45182 49.3716 9.67057 49.4497 9.92578C49.5278 10.1784 49.5669 10.4583 49.5669 10.7656V11.1992H46.2544V10.4883H48.5513V10.4102C48.546 10.2461 48.5148 10.0964 48.4575 9.96094C48.4002 9.82292 48.3117 9.71354 48.1919 9.63281C48.0721 9.54948 47.9171 9.50781 47.727 9.50781C47.5734 9.50781 47.4393 9.54167 47.3247 9.60938C47.2127 9.67448 47.119 9.76823 47.0434 9.89062C46.9705 10.0104 46.9158 10.1536 46.8794 10.3203C46.8429 10.487 46.8247 10.6719 46.8247 10.875V11.0312C46.8247 11.2083 46.8481 11.3724 46.895 11.5234C46.9445 11.6745 47.0161 11.806 47.1098 11.918C47.2062 12.0273 47.3208 12.1133 47.4536 12.1758C47.589 12.2357 47.7427 12.2656 47.9145 12.2656C48.1307 12.2656 48.326 12.224 48.5005 12.1406C48.6776 12.0547 48.8312 11.9284 48.9614 11.7617L49.4809 12.3008C49.3924 12.431 49.2726 12.556 49.1216 12.6758C48.9731 12.7956 48.7934 12.8932 48.5825 12.9688C48.3716 13.0417 48.1281 13.0781 47.852 13.0781ZM52.7134 12.1016V7H53.7525V13H52.815L52.7134 12.1016ZM49.9986 10.9375V10.8555C49.9986 10.5326 50.0351 10.2396 50.108 9.97656C50.1835 9.71094 50.2929 9.48307 50.4361 9.29297C50.5793 9.10286 50.7525 8.95573 50.9556 8.85156C51.1614 8.7474 51.3944 8.69531 51.6548 8.69531C51.9074 8.69531 52.1275 8.74609 52.315 8.84766C52.5051 8.94922 52.6666 9.09375 52.7994 9.28125C52.9348 9.46875 53.0429 9.69141 53.1236 9.94922C53.2043 10.2044 53.2629 10.4857 53.2994 10.793V11.0156C53.2629 11.3151 53.2043 11.5898 53.1236 11.8398C53.0429 12.0898 52.9348 12.3086 52.7994 12.4961C52.6666 12.681 52.5051 12.8242 52.315 12.9258C52.1249 13.0273 51.9022 13.0781 51.647 13.0781C51.3892 13.0781 51.1574 13.0247 50.9517 12.918C50.7486 12.8112 50.5754 12.6615 50.4322 12.4688C50.2916 12.276 50.1835 12.0495 50.108 11.7891C50.0351 11.5286 49.9986 11.2448 49.9986 10.9375ZM51.0338 10.8555V10.9375C51.0338 11.1198 51.0494 11.2904 51.0806 11.4492C51.1119 11.6081 51.1627 11.7487 51.233 11.8711C51.3033 11.9909 51.3931 12.0846 51.5025 12.1523C51.6145 12.2201 51.7499 12.2539 51.9088 12.2539C52.1119 12.2539 52.2785 12.2096 52.4088 12.1211C52.5416 12.0299 52.6444 11.9062 52.7173 11.75C52.7903 11.5911 52.8371 11.4128 52.858 11.2148V10.6016C52.8476 10.4453 52.8202 10.3008 52.7759 10.168C52.7343 10.0352 52.6744 9.92057 52.5963 9.82422C52.5207 9.72786 52.427 9.65234 52.315 9.59766C52.203 9.54297 52.0702 9.51562 51.9166 9.51562C51.7577 9.51562 51.6223 9.55078 51.5103 9.62109C51.3983 9.6888 51.3072 9.78385 51.2369 9.90625C51.1666 10.0286 51.1145 10.1706 51.0806 10.332C51.0494 10.4935 51.0338 10.668 51.0338 10.8555Z" fill="white"/>
<defs>
<filter id="filter0_d_104_11" x="0" y="0" width="74.1695" height="28.8835" filterUnits="userSpaceOnUse" color-interpolation-filters="sRGB">
<feFlood flood-opacity="0" result="BackgroundImageFix"/>
<feColorMatrix in="SourceAlpha" type="matrix" values="0 0 0 0 0 0 0 0 0 0 0 0 0 0 0 0 0 0 127 0" result="hardAlpha"/>
<feOffset dy="4"/>
<feGaussianBlur stdDeviation="2"/>
<feComposite in2="hardAlpha" operator="out"/>
<feColorMatrix type="matrix" values="0 0 0 0 0 0 0 0 0 0 0 0 0 0 0 0 0 0 0.25 0"/>
<feBlend mode="normal" in2="BackgroundImageFix" result="effect1_dropShadow_104_11"/>
<feBlend mode="normal" in="SourceGraphic" in2="effect1_dropShadow_104_11" result="shape"/>
</filter>
</defs>
</svg>
