<svg width="75" height="30" viewBox="0 0 75 30" fill="none" xmlns="http://www.w3.org/2000/svg">
<g filter="url(#filter0_d_5_17)">
<path d="M4.61646 0.844238H60.0936L70.197 11.0117L60.0936 21.6752H4.61646L12.8829 11.0117L4.61646 0.844238Z" fill="#213315"/>
</g>
<path d="M21.543 7.3125H23.6094C24.0417 7.3125 24.4128 7.3776 24.7227 7.50781C25.0326 7.63802 25.2708 7.83073 25.4375 8.08594C25.6042 8.34115 25.6875 8.65495 25.6875 9.02734C25.6875 9.32161 25.6354 9.57682 25.5312 9.79297C25.4271 10.0091 25.2799 10.1901 25.0898 10.3359C24.9023 10.4818 24.681 10.5964 24.4258 10.6797L24.0898 10.8516H22.2656L22.2578 10.0039H23.6211C23.8424 10.0039 24.026 9.96484 24.1719 9.88672C24.3177 9.80859 24.4271 9.70052 24.5 9.5625C24.5755 9.42448 24.6133 9.26693 24.6133 9.08984C24.6133 8.89974 24.5768 8.73568 24.5039 8.59766C24.431 8.45703 24.3203 8.34896 24.1719 8.27344C24.0234 8.19792 23.8359 8.16016 23.6094 8.16016H22.6172V13H21.543V7.3125ZM24.7539 13L23.4375 10.4531L24.5742 10.4492L25.9062 12.9453V13H24.7539ZM28.3692 13.0781C28.0489 13.0781 27.7611 13.026 27.5059 12.9219C27.2507 12.8177 27.0333 12.6732 26.8536 12.4883C26.6765 12.3008 26.5398 12.0833 26.4434 11.8359C26.3497 11.5859 26.3028 11.3177 26.3028 11.0312V10.875C26.3028 10.5495 26.3497 10.2539 26.4434 9.98828C26.5372 9.72005 26.67 9.48958 26.8419 9.29688C27.0138 9.10417 27.2195 8.95573 27.4591 8.85156C27.6986 8.7474 27.963 8.69531 28.252 8.69531C28.5515 8.69531 28.8158 8.74609 29.045 8.84766C29.2742 8.94661 29.4656 9.08724 29.6192 9.26953C29.7729 9.45182 29.8888 9.67057 29.9669 9.92578C30.045 10.1784 30.0841 10.4583 30.0841 10.7656V11.1992H26.7716V10.4883H29.0684V10.4102C29.0632 10.2461 29.032 10.0964 28.9747 9.96094C28.9174 9.82292 28.8289 9.71354 28.7091 9.63281C28.5893 9.54948 28.4343 9.50781 28.2442 9.50781C28.0906 9.50781 27.9565 9.54167 27.8419 9.60938C27.7299 9.67448 27.6361 9.76823 27.5606 9.89062C27.4877 10.0104 27.433 10.1536 27.3966 10.3203C27.3601 10.487 27.3419 10.6719 27.3419 10.875V11.0312C27.3419 11.2083 27.3653 11.3724 27.4122 11.5234C27.4617 11.6745 27.5333 11.806 27.627 11.918C27.7234 12.0273 27.838 12.1133 27.9708 12.1758C28.1062 12.2357 28.2598 12.2656 28.4317 12.2656C28.6479 12.2656 28.8432 12.224 29.0177 12.1406C29.1947 12.0547 29.3484 11.9284 29.4786 11.7617L29.9981 12.3008C29.9096 12.431 29.7898 12.556 29.6388 12.6758C29.4903 12.7956 29.3106 12.8932 29.0997 12.9688C28.8888 13.0417 28.6453 13.0781 28.3692 13.0781ZM31.7892 7V13H30.7541V7H31.7892ZM33.7873 8.77344V13H32.7522V8.77344H33.7873ZM32.6819 7.66797C32.6819 7.51432 32.734 7.38672 32.8381 7.28516C32.9449 7.18359 33.0881 7.13281 33.2678 7.13281C33.4475 7.13281 33.5894 7.18359 33.6936 7.28516C33.8004 7.38672 33.8538 7.51432 33.8538 7.66797C33.8538 7.81901 33.8004 7.94531 33.6936 8.04688C33.5894 8.14844 33.4475 8.19922 33.2678 8.19922C33.0881 8.19922 32.9449 8.14844 32.8381 8.04688C32.734 7.94531 32.6819 7.81901 32.6819 7.66797ZM36.5902 13.0781C36.2698 13.0781 35.9821 13.026 35.7269 12.9219C35.4717 12.8177 35.2542 12.6732 35.0745 12.4883C34.8974 12.3008 34.7607 12.0833 34.6644 11.8359C34.5706 11.5859 34.5238 11.3177 34.5238 11.0312V10.875C34.5238 10.5495 34.5706 10.2539 34.6644 9.98828C34.7581 9.72005 34.8909 9.48958 35.0628 9.29688C35.2347 9.10417 35.4404 8.95573 35.68 8.85156C35.9196 8.7474 36.1839 8.69531 36.473 8.69531C36.7724 8.69531 37.0368 8.74609 37.2659 8.84766C37.4951 8.94661 37.6865 9.08724 37.8402 9.26953C37.9938 9.45182 38.1097 9.67057 38.1878 9.92578C38.2659 10.1784 38.305 10.4583 38.305 10.7656V11.1992H34.9925V10.4883H37.2894V10.4102C37.2842 10.2461 37.2529 10.0964 37.1956 9.96094C37.1383 9.82292 37.0498 9.71354 36.93 9.63281C36.8102 9.54948 36.6553 9.50781 36.4652 9.50781C36.3115 9.50781 36.1774 9.54167 36.0628 9.60938C35.9508 9.67448 35.8571 9.76823 35.7816 9.89062C35.7086 10.0104 35.654 10.1536 35.6175 10.3203C35.581 10.487 35.5628 10.6719 35.5628 10.875V11.0312C35.5628 11.2083 35.5863 11.3724 35.6331 11.5234C35.6826 11.6745 35.7542 11.806 35.848 11.918C35.9443 12.0273 36.0589 12.1133 36.1917 12.1758C36.3271 12.2357 36.4808 12.2656 36.6527 12.2656C36.8688 12.2656 37.0641 12.224 37.2386 12.1406C37.4157 12.0547 37.5693 11.9284 37.6995 11.7617L38.2191 12.3008C38.1305 12.431 38.0107 12.556 37.8597 12.6758C37.7113 12.7956 37.5316 12.8932 37.3206 12.9688C37.1097 13.0417 36.8662 13.0781 36.5902 13.0781ZM41.2406 11.8438C41.2406 11.7552 41.2172 11.6758 41.1703 11.6055C41.1234 11.5352 41.0349 11.4714 40.9047 11.4141C40.7771 11.3542 40.5896 11.2982 40.3422 11.2461C40.1234 11.1992 39.9216 11.1406 39.7367 11.0703C39.5518 11 39.393 10.9154 39.2602 10.8164C39.1273 10.7148 39.0232 10.5964 38.9477 10.4609C38.8747 10.3229 38.8383 10.1641 38.8383 9.98438C38.8383 9.8099 38.876 9.64583 38.9516 9.49219C39.0271 9.33594 39.1365 9.19922 39.2797 9.08203C39.4229 8.96224 39.5974 8.86849 39.8031 8.80078C40.0089 8.73047 40.2406 8.69531 40.4984 8.69531C40.8578 8.69531 41.1664 8.75391 41.4242 8.87109C41.6846 8.98828 41.8839 9.14974 42.0219 9.35547C42.1599 9.55859 42.2289 9.78776 42.2289 10.043H41.1977C41.1977 9.93099 41.1716 9.82943 41.1195 9.73828C41.0701 9.64714 40.9932 9.57422 40.8891 9.51953C40.7849 9.46224 40.6534 9.43359 40.4945 9.43359C40.3513 9.43359 40.2302 9.45703 40.1313 9.50391C40.0349 9.55078 39.962 9.61198 39.9125 9.6875C39.863 9.76302 39.8383 9.84635 39.8383 9.9375C39.8383 10.0052 39.8513 10.0664 39.8773 10.1211C39.906 10.1732 39.9516 10.2214 40.0141 10.2656C40.0766 10.3099 40.1612 10.3503 40.268 10.3867C40.3773 10.4232 40.5115 10.4583 40.6703 10.4922C40.9854 10.5547 41.2602 10.638 41.4945 10.7422C41.7315 10.8438 41.9164 10.9792 42.0492 11.1484C42.182 11.3177 42.2484 11.5339 42.2484 11.7969C42.2484 11.9844 42.2081 12.1562 42.1273 12.3125C42.0466 12.4661 41.9294 12.6003 41.7758 12.7148C41.6221 12.8294 41.4385 12.9193 41.225 12.9844C41.0115 13.0469 40.7706 13.0781 40.5023 13.0781C40.1143 13.0781 39.7862 13.0091 39.518 12.8711C39.2497 12.7305 39.0466 12.5534 38.9086 12.3398C38.7706 12.1237 38.7016 11.8997 38.7016 11.668H39.6898C39.6977 11.832 39.7419 11.9635 39.8227 12.0625C39.9034 12.1615 40.0049 12.2331 40.1273 12.2773C40.2523 12.319 40.3839 12.3398 40.5219 12.3398C40.6781 12.3398 40.8096 12.319 40.9164 12.2773C41.0232 12.2331 41.1039 12.1745 41.1586 12.1016C41.2133 12.026 41.2406 11.9401 41.2406 11.8438ZM44.852 13.0781C44.5317 13.0781 44.244 13.026 43.9888 12.9219C43.7335 12.8177 43.5161 12.6732 43.3364 12.4883C43.1593 12.3008 43.0226 12.0833 42.9263 11.8359C42.8325 11.5859 42.7856 11.3177 42.7856 11.0312V10.875C42.7856 10.5495 42.8325 10.2539 42.9263 9.98828C43.02 9.72005 43.1528 9.48958 43.3247 9.29688C43.4966 9.10417 43.7023 8.95573 43.9419 8.85156C44.1815 8.7474 44.4458 8.69531 44.7348 8.69531C45.0343 8.69531 45.2986 8.74609 45.5278 8.84766C45.757 8.94661 45.9484 9.08724 46.102 9.26953C46.2557 9.45182 46.3716 9.67057 46.4497 9.92578C46.5278 10.1784 46.5669 10.4583 46.5669 10.7656V11.1992H43.2544V10.4883H45.5513V10.4102C45.546 10.2461 45.5148 10.0964 45.4575 9.96094C45.4002 9.82292 45.3117 9.71354 45.1919 9.63281C45.0721 9.54948 44.9171 9.50781 44.727 9.50781C44.5734 9.50781 44.4393 9.54167 44.3247 9.60938C44.2127 9.67448 44.119 9.76823 44.0434 9.89062C43.9705 10.0104 43.9158 10.1536 43.8794 10.3203C43.8429 10.487 43.8247 10.6719 43.8247 10.875V11.0312C43.8247 11.2083 43.8481 11.3724 43.895 11.5234C43.9445 11.6745 44.0161 11.806 44.1098 11.918C44.2062 12.0273 44.3208 12.1133 44.4536 12.1758C44.589 12.2357 44.7427 12.2656 44.9145 12.2656C45.1307 12.2656 45.326 12.224 45.5005 12.1406C45.6776 12.0547 45.8312 11.9284 45.9614 11.7617L46.4809 12.3008C46.3924 12.431 46.2726 12.556 46.1216 12.6758C45.9731 12.7956 45.7934 12.8932 45.5825 12.9688C45.3716 13.0417 45.1281 13.0781 44.852 13.0781ZM49.7134 12.1016V7H50.7525V13H49.815L49.7134 12.1016ZM46.9986 10.9375V10.8555C46.9986 10.5326 47.0351 10.2396 47.108 9.97656C47.1835 9.71094 47.2929 9.48307 47.4361 9.29297C47.5793 9.10286 47.7525 8.95573 47.9556 8.85156C48.1614 8.7474 48.3944 8.69531 48.6548 8.69531C48.9074 8.69531 49.1275 8.74609 49.315 8.84766C49.5051 8.94922 49.6666 9.09375 49.7994 9.28125C49.9348 9.46875 50.0429 9.69141 50.1236 9.94922C50.2043 10.2044 50.2629 10.4857 50.2994 10.793V11.0156C50.2629 11.3151 50.2043 11.5898 50.1236 11.8398C50.0429 12.0898 49.9348 12.3086 49.7994 12.4961C49.6666 12.681 49.5051 12.8242 49.315 12.9258C49.1249 13.0273 48.9022 13.0781 48.647 13.0781C48.3892 13.0781 48.1574 13.0247 47.9517 12.918C47.7486 12.8112 47.5754 12.6615 47.4322 12.4688C47.2916 12.276 47.1835 12.0495 47.108 11.7891C47.0351 11.5286 46.9986 11.2448 46.9986 10.9375ZM48.0338 10.8555V10.9375C48.0338 11.1198 48.0494 11.2904 48.0806 11.4492C48.1119 11.6081 48.1627 11.7487 48.233 11.8711C48.3033 11.9909 48.3931 12.0846 48.5025 12.1523C48.6145 12.2201 48.7499 12.2539 48.9088 12.2539C49.1119 12.2539 49.2785 12.2096 49.4088 12.1211C49.5416 12.0299 49.6444 11.9062 49.7173 11.75C49.7903 11.5911 49.8371 11.4128 49.858 11.2148V10.6016C49.8476 10.4453 49.8202 10.3008 49.7759 10.168C49.7343 10.0352 49.6744 9.92057 49.5963 9.82422C49.5207 9.72786 49.427 9.65234 49.315 9.59766C49.203 9.54297 49.0702 9.51562 48.9166 9.51562C48.7577 9.51562 48.6223 9.55078 48.5103 9.62109C48.3983 9.6888 48.3072 9.78385 48.2369 9.90625C48.1666 10.0286 48.1145 10.1706 48.0806 10.332C48.0494 10.4935 48.0338 10.668 48.0338 10.8555Z" fill="white"/>
<defs>
<filter id="filter0_d_5_17" x="0.616455" y="0.844238" width="73.5806" height="28.8309" filterUnits="userSpaceOnUse" color-interpolation-filters="sRGB">
<feFlood flood-opacity="0" result="BackgroundImageFix"/>
<feColorMatrix in="SourceAlpha" type="matrix" values="0 0 0 0 0 0 0 0 0 0 0 0 0 0 0 0 0 0 127 0" result="hardAlpha"/>
<feOffset dy="4"/>
<feGaussianBlur stdDeviation="2"/>
<feComposite in2="hardAlpha" operator="out"/>
<feColorMatrix type="matrix" values="0 0 0 0 0 0 0 0 0 0 0 0 0 0 0 0 0 0 0.25 0"/>
<feBlend mode="normal" in2="BackgroundImageFix" result="effect1_dropShadow_5_17"/>
<feBlend mode="normal" in="SourceGraphic" in2="effect1_dropShadow_5_17" result="shape"/>
</filter>
</defs>
</svg>
