<svg width="189" height="91" viewBox="0 0 189 91" fill="none" xmlns="http://www.w3.org/2000/svg">
<path d="M0.103516 10C0.103516 4.47715 4.58067 0 10.1035 0H178.104C183.626 0 188.104 4.47715 188.104 10V81C188.104 86.5228 183.626 91 178.104 91H10.1035C4.58067 91 0.103516 86.5228 0.103516 81V10Z" fill="#5B6326"/>
<path fill-rule="evenodd" clip-rule="evenodd" d="M24.6082 89.1852C25.1868 89.8155 26.0754 90.3528 26.9726 90.615C28.351 91.0179 31.1058 91.0326 94.5912 90.9757L160.773 90.9164L161.932 90.4417C162.569 90.1806 163.414 89.6134 163.809 89.1811C164.484 88.4419 164.527 86.0743 164.527 49.4463C164.528 10.5866 164.526 10.4951 163.682 9.52196C163.067 8.81213 162.358 8.41721 161.079 8.07158L159.321 7.59668L93.5876 7.65673C27.9207 7.71678 27.8529 7.71724 26.72 8.18939C26.0963 8.4493 25.2053 8.94667 24.7396 9.29482C23.8934 9.92764 23.893 9.94001 23.787 49.0516L23.6807 88.1756L24.6082 89.1852ZM94.1079 10.6964L158.985 10.6964L159.089 49.3739L159.193 88.0514L94.1079 88.0514L29.0232 88.0514L29.127 49.3739L29.2309 10.6964L94.1079 10.6964ZM32.8443 84.6134C33.1794 85.1589 33.797 85.5439 34.7742 85.8162C36.1218 86.1921 39.8063 86.2171 94.0184 86.2173C143.843 86.2178 152.024 86.1715 153.264 85.8822C156.049 85.2329 155.907 86.6927 155.885 58.7784L155.865 33.6164L139.383 23.1305L122.9 12.6446L78.9139 12.6446L34.9278 12.6446L33.7218 13.3473L32.5158 14.0498L32.4337 48.9306C32.3709 75.5655 32.4678 84.0007 32.8443 84.6134ZM35.8447 14.8408C36.0697 14.5132 40.2267 14.4782 78.6922 14.4782L121.291 14.4782L123.508 15.9084C124.727 16.695 131.777 21.1891 139.173 25.8955L152.62 34.4525L152.62 58.9751C152.62 75.4408 152.481 83.6432 152.195 83.9409C151.778 84.3759 150.697 84.3842 94.114 84.3842C39.6363 84.3842 36.4343 84.3622 36.0389 83.9831C35.5844 83.5473 35.393 15.4977 35.8447 14.8408ZM40.1118 81.2015C41.7107 82.8905 37.9224 82.7798 94.0804 82.7798C149.516 82.7798 146.456 82.8602 148.093 81.361C148.91 80.6134 148.922 80.2677 148.923 57.4323L148.925 34.2625L136.544 26.7195C129.734 22.571 123.045 18.4807 121.678 17.6297L119.193 16.0826L80.9399 16.0826L42.6867 16.0826L41.5551 16.5795C39.1731 17.6253 39.2893 15.9226 39.309 49.4811C39.3267 79.4362 39.3509 80.3984 40.1118 81.2015ZM43.2152 18.4257L43.8541 17.9162L80.7079 17.9162L117.561 17.9162L131.574 26.4539L145.587 34.9916L145.614 57.5497C145.638 78.2315 145.583 80.1428 144.96 80.527C144.309 80.9287 142.2 80.9462 94.328 80.9462C42.3155 80.9462 43.4607 80.9666 42.8608 80.0294C42.7397 79.8403 42.626 66.0168 42.6083 49.3104C42.5792 22.1701 42.644 18.8806 43.2152 18.4257ZM46.914 78.0209C48.2653 79.411 45.8103 79.3418 93.6899 79.3418C130.584 79.3418 137.673 79.2906 138.851 79.0161C141.682 78.3555 141.534 79.6402 141.534 55.838L141.534 34.3743L139.994 33.4066C139.147 32.8742 133.401 29.4291 127.225 25.7505L115.995 19.0622L82.9605 19.0622C46.7046 19.0622 48.2144 19.0049 46.8943 20.4298C46.3474 21.0205 46.2734 24.5261 46.2878 49.2478C46.3022 73.6961 46.3843 77.4761 46.914 78.0209ZM50.049 21.1708C50.4239 20.9616 58.1796 20.8958 82.4485 20.8958L114.356 20.8958L120.419 24.5057C128.226 29.1534 131.596 31.1509 135.272 33.3092L138.249 35.0573L138.249 56.0076C138.249 71.9968 138.132 77.0232 137.756 77.2331C137.041 77.6322 50.7639 77.6322 50.049 77.2331C49.3333 76.8336 49.3333 21.5703 50.049 21.1708ZM53.0732 75.0413C54.4159 76.4227 52.5452 76.3622 93.9026 76.3622C135.417 76.3622 133.423 76.4289 134.752 74.9945C135.294 74.4087 135.375 71.7788 135.375 54.5863L135.375 34.8506L124.412 28.4461L113.45 22.0418L84.9804 22.0418C61.304 22.0418 56.2752 22.0965 55.1135 22.3675C52.261 23.0328 52.429 21.34 52.447 49.2478C52.4614 71.0608 52.5448 74.4976 53.0732 75.0413ZM56.2082 24.1504C56.5819 23.9418 63.3817 23.8754 84.3004 23.8754L111.9 23.8754L121.99 29.7773L132.08 35.6792L132.085 54.8288C132.088 69.4204 131.972 74.044 131.597 74.2535C130.882 74.6523 56.9227 74.6523 56.2082 74.2535C55.493 73.8543 55.493 24.5497 56.2082 24.1504ZM58.3857 71.5762C59.7518 72.9794 58.6046 72.9384 94.4852 72.871L127.147 72.8096L128.489 72.0603L129.831 71.3111L129.921 53.7243L130.012 36.1376L126.842 34.2824C125.099 33.262 121.1 30.9157 117.957 29.0681L112.242 25.709L87.5713 25.7104C72.0107 25.711 62.3424 25.7981 61.3877 25.9462C60.5554 26.0752 59.4008 26.4951 58.8214 26.8793L57.7686 27.5776L57.785 49.2769C57.799 67.5966 57.8926 71.0695 58.3857 71.5762ZM61.5462 28.0468C61.9186 27.8389 68.0278 27.7718 86.5243 27.7718L111.01 27.7718L113.853 29.4335C115.417 30.3475 118.959 32.4197 121.724 34.0386L126.752 36.9817L126.752 53.6759C126.752 68.5469 126.681 70.4096 126.107 70.7305C125.531 71.0516 122.045 71.0906 93.9026 71.0906C65.7603 71.0906 62.2742 71.0516 61.6986 70.7305C61.1216 70.4082 61.0535 68.1534 61.0535 49.3461C61.0535 33.2994 61.1701 28.2568 61.5462 28.0468Z" fill="#F1CB66"/>
<path fill-rule="evenodd" clip-rule="evenodd" d="M79.3042 40.4354C79.0319 40.52 78.9551 42.732 78.9551 50.4816C78.9551 59.3458 79.0028 60.4338 79.3969 60.5499C79.6399 60.6216 85.8676 60.6801 93.2368 60.6801L106.635 60.6801L110.381 58.2659L114.127 55.8517L114.136 48.33C114.143 42.7582 114.058 40.7416 113.81 40.5509C113.556 40.3558 109.369 40.2974 96.5639 40.3103C87.2629 40.3195 79.4963 40.376 79.3042 40.4354ZM101.285 45.8658C101.753 46.1218 102.136 46.4697 102.136 46.6386C102.136 47.0429 101.736 47.0294 101.282 46.6098C101.083 46.425 100.557 46.1298 100.114 45.9538C99.1914 45.587 97.936 45.8016 96.7265 46.5328C95.9333 47.0122 95.4719 46.7502 96.2081 46.2383C97.7928 45.1364 99.6964 44.9967 101.285 45.8658ZM100.778 46.7128C101.706 47.291 101.285 47.4656 100.051 47.0137C99.0375 46.6422 98.9903 46.6444 97.8771 47.113C96.4972 47.6938 96.1185 47.5315 97.194 46.8203C98.1734 46.1725 99.831 46.1229 100.778 46.7128ZM99.9198 47.3826C100.217 47.5049 100.46 47.7463 100.46 47.9191C100.46 48.3002 100.331 48.3094 99.6391 47.9772C99.2235 47.7779 98.9373 47.7796 98.3499 47.9852C97.3476 48.336 97.0806 48.0862 97.9075 47.5712C98.653 47.1068 99.1384 47.0613 99.9198 47.3826ZM91.8499 49.0178C92.5193 49.4833 92.4998 50.3453 91.8072 50.9116C91.2544 51.3638 91.2547 51.3655 91.9468 52.1482C92.8137 53.1282 92.8106 53.1709 91.8719 53.1611C91.2983 53.1551 90.9104 52.9379 90.3387 52.3027C89.3252 51.1769 88.73 51.1799 88.73 52.3108C88.73 53.0834 88.6602 53.1692 88.0318 53.1692H87.3336V50.9159V48.6627H89.3363C90.8081 48.6627 91.4745 48.7569 91.8499 49.0178ZM97.3878 49.0801C97.3878 49.4258 97.1599 49.5088 96.0637 49.5629C95.0661 49.6123 94.7167 49.7208 94.6469 50.0039C94.5693 50.3172 94.7656 50.3794 95.8314 50.3794C96.9097 50.3794 97.1085 50.4442 97.1085 50.7964C97.1085 51.1333 96.8812 51.2258 95.9216 51.2792C94.7405 51.3449 94.7343 51.3496 94.6489 52.2572C94.5729 53.0632 94.4835 53.1692 93.8808 53.1692C93.2008 53.1692 93.1985 53.1621 93.1985 50.9159V48.6627H95.2932C97.182 48.6627 97.3878 48.7036 97.3878 49.0801ZM99.6221 50.9159V53.1692H98.9239H98.2257V50.9159V48.6627H98.9239H99.6221V50.9159ZM104.579 48.9925C105.393 49.4305 105.838 50.7275 105.491 51.6548C105.018 52.9224 104.51 53.1692 102.372 53.1692H100.46V50.9159V48.6627H102.213C103.338 48.6627 104.186 48.7809 104.579 48.9925ZM88.73 49.9502C88.73 50.3449 88.8691 50.3966 89.7773 50.3387C90.4836 50.2938 90.8246 50.1672 90.8246 49.9502C90.8246 49.7333 90.4836 49.6067 89.7773 49.5618C88.8691 49.5039 88.73 49.5556 88.73 49.9502ZM101.856 50.9159C101.856 52.3005 101.862 52.3108 102.638 52.3108C103.714 52.3108 104.091 51.9488 104.091 50.9159C104.091 49.8831 103.714 49.521 102.638 49.521C101.862 49.521 101.856 49.5314 101.856 50.9159Z" fill="#F1CB66"/>
</svg>
