<svg width="99" height="24" viewBox="0 0 99 24" fill="none" xmlns="http://www.w3.org/2000/svg">
<rect x="1.94678" y="1.78064" width="95.0859" height="21.0437" rx="4" fill="#2E4324" stroke="url(#paint0_linear_1723_210)" stroke-width="2"/>
<path d="M2.02466 3.93298C2.02466 2.82841 2.92009 1.93298 4.02466 1.93298H21.4204V22.6723H4.02466C2.92009 22.6723 2.02466 21.7769 2.02466 20.6723V3.93298Z" fill="#23351B"/>
<path d="M30.5183 15.3217C30.5183 15.1224 30.4871 14.9467 30.4246 14.7943C30.366 14.6381 30.2605 14.4974 30.1082 14.3724C29.9597 14.2474 29.7527 14.1283 29.4871 14.015C29.2253 13.9017 28.8933 13.7865 28.491 13.6693C28.0691 13.5443 27.6882 13.4056 27.3484 13.2533C27.0085 13.097 26.7175 12.9193 26.4753 12.7201C26.2332 12.5209 26.0476 12.2924 25.9187 12.0345C25.7898 11.7767 25.7253 11.4818 25.7253 11.1498C25.7253 10.8177 25.7937 10.5111 25.9304 10.2299C26.0671 9.94861 26.2625 9.70447 26.5164 9.49744C26.7742 9.2865 27.0808 9.12244 27.4363 9.00525C27.7917 8.88806 28.1882 8.82947 28.6257 8.82947C29.2664 8.82947 29.8093 8.95251 30.2546 9.19861C30.7039 9.4408 31.0457 9.75916 31.28 10.1537C31.5144 10.5443 31.6316 10.9623 31.6316 11.4076H30.5066C30.5066 11.0873 30.4382 10.8041 30.3015 10.558C30.1648 10.308 29.9578 10.1127 29.6804 9.97205C29.4031 9.82751 29.0515 9.75525 28.6257 9.75525C28.2234 9.75525 27.8914 9.8158 27.6296 9.93689C27.3679 10.058 27.1726 10.222 27.0437 10.4291C26.9187 10.6361 26.8562 10.8724 26.8562 11.1381C26.8562 11.3177 26.8933 11.4818 26.9675 11.6302C27.0457 11.7748 27.1648 11.9095 27.325 12.0345C27.489 12.1595 27.696 12.2748 27.946 12.3802C28.2 12.4857 28.5027 12.5873 28.8542 12.6849C29.3386 12.8217 29.7566 12.974 30.1082 13.142C30.4597 13.3099 30.7488 13.4994 30.9753 13.7103C31.2058 13.9174 31.3757 14.1537 31.4851 14.4193C31.5984 14.681 31.655 14.9779 31.655 15.3099C31.655 15.6576 31.5847 15.972 31.4441 16.2533C31.3035 16.5345 31.1023 16.7748 30.8406 16.974C30.5789 17.1732 30.2644 17.3275 29.8972 17.4369C29.5339 17.5424 29.1277 17.5951 28.6785 17.5951C28.2839 17.5951 27.8953 17.5404 27.5125 17.431C27.1335 17.3217 26.7878 17.1576 26.4753 16.9388C26.1667 16.7201 25.9187 16.4506 25.7312 16.1302C25.5476 15.806 25.4558 15.431 25.4558 15.0052H26.5808C26.5808 15.2982 26.6375 15.5502 26.7507 15.7611C26.864 15.9681 27.0183 16.14 27.2136 16.2767C27.4128 16.4135 27.6375 16.515 27.8875 16.5814C28.1414 16.6439 28.405 16.6752 28.6785 16.6752C29.073 16.6752 29.407 16.6205 29.6804 16.5111C29.9539 16.4017 30.1609 16.2455 30.3015 16.0424C30.446 15.8392 30.5183 15.599 30.5183 15.3217ZM38.5164 16.558V17.4779H33.9988V16.558H38.5164ZM34.2273 8.94666V17.4779H33.0964V8.94666H34.2273ZM37.9187 12.6146V13.5345H33.9988V12.6146H37.9187ZM38.4578 8.94666V9.87244H33.9988V8.94666H38.4578ZM46.4792 8.94666V17.4779H45.3425L41.0476 10.8978V17.4779H39.9167V8.94666H41.0476L45.3601 15.5443V8.94666H46.4792ZM50.7917 17.4779H49.0105L49.0222 16.558H50.7917C51.4011 16.558 51.9089 16.431 52.3152 16.1771C52.7214 15.9193 53.0261 15.5599 53.2292 15.099C53.4363 14.6342 53.5398 14.0912 53.5398 13.4701V12.9486C53.5398 12.4603 53.4812 12.0267 53.364 11.6478C53.2468 11.265 53.075 10.9427 52.8484 10.681C52.6218 10.4154 52.3445 10.2142 52.0164 10.0775C51.6921 9.9408 51.3191 9.87244 50.8972 9.87244H48.9753V8.94666H50.8972C51.4558 8.94666 51.9656 9.04041 52.4265 9.22791C52.8875 9.4115 53.2839 9.67908 53.616 10.0306C53.9519 10.3783 54.2097 10.8002 54.3894 11.2963C54.5691 11.7885 54.6589 12.3431 54.6589 12.9603V13.4701C54.6589 14.0873 54.5691 14.6439 54.3894 15.14C54.2097 15.6322 53.95 16.0521 53.6101 16.3998C53.2742 16.7474 52.8679 17.015 52.3914 17.2025C51.9187 17.3861 51.3855 17.4779 50.7917 17.4779ZM49.614 8.94666V17.4779H48.4832V8.94666H49.614ZM62.2527 8.94666V17.4779H61.1394V8.94666H62.2527ZM64.9949 8.94666V9.87244H58.4031V8.94666H64.9949ZM71.6804 16.558V17.4779H67.1628V16.558H71.6804ZM67.3914 8.94666V17.4779H66.2605V8.94666H67.3914ZM71.0828 12.6146V13.5345H67.1628V12.6146H71.0828ZM71.6218 8.94666V9.87244H67.1628V8.94666H71.6218ZM73.8132 8.94666L75.864 12.2162L77.9148 8.94666H79.2332L76.5378 13.1713L79.2976 17.4779H77.9675L75.864 14.1439L73.7605 17.4779H72.4304L75.1902 13.1713L72.4949 8.94666H73.8132ZM83.7566 8.94666V17.4779H82.6433V8.94666H83.7566ZM86.4988 8.94666V9.87244H79.907V8.94666H86.4988Z" fill="url(#paint1_linear_1723_210)"/>
<path d="M9.80664 7.82214H8.60938C8.29184 7.82214 7.98731 7.95702 7.76278 8.19711C7.53825 8.43719 7.41211 8.76282 7.41211 9.10235V16.7836C7.41211 17.1231 7.53825 17.4487 7.76278 17.6888C7.98731 17.9289 8.29184 18.0638 8.60938 18.0638H14.5957C14.9132 18.0638 15.2178 17.9289 15.4423 17.6888C15.6668 17.4487 15.793 17.1231 15.793 16.7836V9.10235C15.793 8.76282 15.6668 8.43719 15.4423 8.19711C15.2178 7.95702 14.9132 7.82214 14.5957 7.82214H13.3984" stroke="url(#paint2_linear_1723_210)" stroke-width="1.7" stroke-linecap="round" stroke-linejoin="round"/>
<path d="M12.2012 6.54187H11.0039C10.3427 6.54187 9.80664 7.11504 9.80664 7.82207C9.80664 8.52911 10.3427 9.10228 11.0039 9.10228H12.2012C12.8624 9.10228 13.3984 8.52911 13.3984 7.82207C13.3984 7.11504 12.8624 6.54187 12.2012 6.54187Z" stroke="url(#paint3_linear_1723_210)" stroke-width="1.7" stroke-linecap="round" stroke-linejoin="round"/>
<path d="M9.80664 15.5031V12.3026" stroke="url(#paint4_linear_1723_210)" stroke-width="1.7" stroke-linecap="round" stroke-linejoin="round"/>
<path d="M11.6021 15.5033V14.8632" stroke="url(#paint5_linear_1723_210)" stroke-width="1.7" stroke-linecap="round" stroke-linejoin="round"/>
<path d="M13.3989 15.5032V13.5829" stroke="url(#paint6_linear_1723_210)" stroke-width="1.7" stroke-linecap="round" stroke-linejoin="round"/>
<defs>
<linearGradient id="paint0_linear_1723_210" x1="98.0327" y1="12.3025" x2="0.946777" y2="12.3025" gradientUnits="userSpaceOnUse">
<stop stop-color="#9BFF99"/>
<stop offset="1" stop-color="#22941F"/>
</linearGradient>
<linearGradient id="paint1_linear_1723_210" x1="63.2338" y1="6.47791" x2="63.2338" y2="22.6085" gradientUnits="userSpaceOnUse">
<stop stop-color="#23D220"/>
<stop offset="0.510417" stop-color="#8DFF8B"/>
<stop offset="1" stop-color="#03A600" stop-opacity="0"/>
</linearGradient>
<linearGradient id="paint2_linear_1723_210" x1="11.6025" y1="7.82214" x2="11.6025" y2="18.0638" gradientUnits="userSpaceOnUse">
<stop stop-color="#7EE47B"/>
<stop offset="1" stop-color="#36A533"/>
</linearGradient>
<linearGradient id="paint3_linear_1723_210" x1="11.6025" y1="6.54187" x2="11.6025" y2="9.10228" gradientUnits="userSpaceOnUse">
<stop stop-color="#7EE47B"/>
<stop offset="1" stop-color="#36A533"/>
</linearGradient>
<linearGradient id="paint4_linear_1723_210" x1="10.3066" y1="12.3026" x2="10.3066" y2="15.5031" gradientUnits="userSpaceOnUse">
<stop stop-color="#7EE47B"/>
<stop offset="1" stop-color="#36A533"/>
</linearGradient>
<linearGradient id="paint5_linear_1723_210" x1="12.1021" y1="14.8632" x2="12.1021" y2="15.5033" gradientUnits="userSpaceOnUse">
<stop stop-color="#7EE47B"/>
<stop offset="1" stop-color="#36A533"/>
</linearGradient>
<linearGradient id="paint6_linear_1723_210" x1="13.8989" y1="13.5829" x2="13.8989" y2="15.5032" gradientUnits="userSpaceOnUse">
<stop stop-color="#7EE47B"/>
<stop offset="1" stop-color="#36A533"/>
</linearGradient>
</defs>
</svg>
