<svg width="105" height="24" viewBox="0 0 105 24" fill="none" xmlns="http://www.w3.org/2000/svg">
<rect x="1.14404" y="1.62378" width="102.521" height="21.0437" rx="4" fill="#2E4324" stroke="url(#paint0_linear_1723_1860)" stroke-width="2"/>
<path d="M1.22192 3.77612C1.22192 2.67155 2.11735 1.77612 3.22192 1.77612H20.6176V22.5154H3.22193C2.11736 22.5154 1.22192 21.62 1.22192 20.5154V3.77612Z" fill="#23351B"/>
<path d="M29.7156 15.1648C29.7156 14.9656 29.6843 14.7898 29.6218 14.6375C29.5632 14.4812 29.4578 14.3406 29.3054 14.2156C29.157 14.0906 28.95 13.9714 28.6843 13.8582C28.4226 13.7449 28.0906 13.6296 27.6882 13.5125C27.2664 13.3875 26.8855 13.2488 26.5457 13.0964C26.2058 12.9402 25.9148 12.7625 25.6726 12.5632C25.4304 12.364 25.2449 12.1355 25.116 11.8777C24.9871 11.6199 24.9226 11.325 24.9226 10.9929C24.9226 10.6609 24.991 10.3542 25.1277 10.073C25.2644 9.79175 25.4597 9.54761 25.7136 9.34058C25.9714 9.12964 26.2781 8.96558 26.6335 8.84839C26.989 8.7312 27.3855 8.67261 27.823 8.67261C28.4636 8.67261 29.0066 8.79565 29.4519 9.04175C29.9011 9.28394 30.2429 9.60229 30.4773 9.99683C30.7117 10.3875 30.8289 10.8054 30.8289 11.2507H29.7039C29.7039 10.9304 29.6355 10.6472 29.4988 10.4011C29.3621 10.1511 29.155 9.95581 28.8777 9.81519C28.6003 9.67065 28.2488 9.59839 27.823 9.59839C27.4207 9.59839 27.0886 9.65894 26.8269 9.78003C26.5652 9.90112 26.3699 10.0652 26.241 10.2722C26.116 10.4792 26.0535 10.7156 26.0535 10.9812C26.0535 11.1609 26.0906 11.325 26.1648 11.4734C26.2429 11.6179 26.3621 11.7527 26.5222 11.8777C26.6863 12.0027 26.8933 12.1179 27.1433 12.2234C27.3972 12.3289 27.7 12.4304 28.0515 12.5281C28.5359 12.6648 28.9539 12.8171 29.3054 12.9851C29.657 13.1531 29.946 13.3425 30.1726 13.5535C30.4031 13.7605 30.573 13.9968 30.6824 14.2625C30.7957 14.5242 30.8523 14.821 30.8523 15.1531C30.8523 15.5007 30.782 15.8152 30.6414 16.0964C30.5007 16.3777 30.2996 16.6179 30.0378 16.8171C29.7761 17.0164 29.4617 17.1707 29.0945 17.28C28.7312 17.3855 28.325 17.4382 27.8757 17.4382C27.4812 17.4382 27.0925 17.3835 26.7097 17.2742C26.3308 17.1648 25.9851 17.0007 25.6726 16.782C25.364 16.5632 25.116 16.2937 24.9285 15.9734C24.7449 15.6492 24.6531 15.2742 24.6531 14.8484H25.7781C25.7781 15.1414 25.8347 15.3933 25.948 15.6042C26.0613 15.8113 26.2156 15.9832 26.4109 16.1199C26.6101 16.2566 26.8347 16.3582 27.0847 16.4246C27.3386 16.4871 27.6023 16.5183 27.8757 16.5183C28.2703 16.5183 28.6042 16.4636 28.8777 16.3542C29.1511 16.2449 29.3582 16.0886 29.4988 15.8855C29.6433 15.6824 29.7156 15.4421 29.7156 15.1648ZM37.7136 16.4011V17.321H33.196V16.4011H37.7136ZM33.4246 8.78979V17.321H32.2937V8.78979H33.4246ZM37.116 12.4578V13.3777H33.196V12.4578H37.116ZM37.655 8.78979V9.71558H33.196V8.78979H37.655ZM45.6765 8.78979V17.321H44.5398L40.2449 10.741V17.321H39.114V8.78979H40.2449L44.5574 15.3875V8.78979H45.6765ZM49.989 17.321H48.2078L48.2195 16.4011H49.989C50.5984 16.4011 51.1062 16.2742 51.5125 16.0203C51.9187 15.7625 52.2234 15.4031 52.4265 14.9421C52.6335 14.4773 52.7371 13.9343 52.7371 13.3132V12.7917C52.7371 12.3035 52.6785 11.8699 52.5613 11.491C52.4441 11.1082 52.2722 10.7859 52.0457 10.5242C51.8191 10.2585 51.5417 10.0574 51.2136 9.92065C50.8894 9.78394 50.5164 9.71558 50.0945 9.71558H48.1726V8.78979H50.0945C50.6531 8.78979 51.1628 8.88354 51.6238 9.07104C52.0847 9.25464 52.4812 9.52222 52.8132 9.87378C53.1492 10.2214 53.407 10.6433 53.5867 11.1394C53.7664 11.6316 53.8562 12.1863 53.8562 12.8035V13.3132C53.8562 13.9304 53.7664 14.4871 53.5867 14.9832C53.407 15.4753 53.1472 15.8953 52.8074 16.2429C52.4714 16.5906 52.0652 16.8582 51.5886 17.0457C51.116 17.2292 50.5828 17.321 49.989 17.321ZM48.8113 8.78979V17.321H47.6804V8.78979H48.8113ZM58.8894 8.78979H59.9851L62.78 15.7449L65.5691 8.78979H66.6707L63.2019 17.321H62.3464L58.8894 8.78979ZM58.532 8.78979H59.4988L59.657 13.9929V17.321H58.532V8.78979ZM66.0554 8.78979H67.0222V17.321H65.8972V13.9929L66.0554 8.78979ZM72.2722 9.54565L69.448 17.321H68.2937L71.5457 8.78979H72.2898L72.2722 9.54565ZM74.6394 17.321L71.8093 9.54565L71.7917 8.78979H72.5359L75.7996 17.321H74.6394ZM74.4929 14.1628V15.0886H69.7V14.1628H74.4929ZM78.155 8.78979V17.321H77.0242V8.78979H78.155ZM85.3855 16.4011V17.321H81.1199V16.4011H85.3855ZM81.3425 8.78979V17.321H80.2117V8.78979H81.3425Z" fill="url(#paint1_linear_1723_1860)"/>
<path d="M9.00391 7.66528H7.80664C7.48911 7.66528 7.18458 7.80016 6.96005 8.04025C6.73552 8.28033 6.60938 8.60596 6.60938 8.94549V16.6267C6.60938 16.9662 6.73552 17.2919 6.96005 17.532C7.18458 17.772 7.48911 17.9069 7.80664 17.9069H13.793C14.1105 17.9069 14.415 17.772 14.6396 17.532C14.8641 17.2919 14.9902 16.9662 14.9902 16.6267V8.94549C14.9902 8.60596 14.8641 8.28033 14.6396 8.04025C14.415 7.80016 14.1105 7.66528 13.793 7.66528H12.5957" stroke="url(#paint2_linear_1723_1860)" stroke-width="1.7" stroke-linecap="round" stroke-linejoin="round"/>
<path d="M11.3984 6.38501H10.2012C9.53994 6.38501 9.00391 6.95818 9.00391 7.66521C9.00391 8.37225 9.53994 8.94542 10.2012 8.94542H11.3984C12.0597 8.94542 12.5957 8.37225 12.5957 7.66521C12.5957 6.95818 12.0597 6.38501 11.3984 6.38501Z" stroke="url(#paint3_linear_1723_1860)" stroke-width="1.7" stroke-linecap="round" stroke-linejoin="round"/>
<path d="M9.00391 15.3463V12.1458" stroke="url(#paint4_linear_1723_1860)" stroke-width="1.7" stroke-linecap="round" stroke-linejoin="round"/>
<path d="M10.7993 15.3464V14.7063" stroke="url(#paint5_linear_1723_1860)" stroke-width="1.7" stroke-linecap="round" stroke-linejoin="round"/>
<path d="M12.5962 15.3463V13.426" stroke="url(#paint6_linear_1723_1860)" stroke-width="1.7" stroke-linecap="round" stroke-linejoin="round"/>
<defs>
<linearGradient id="paint0_linear_1723_1860" x1="104.665" y1="12.1456" x2="0.144043" y2="12.1456" gradientUnits="userSpaceOnUse">
<stop stop-color="#9BFF99"/>
<stop offset="1" stop-color="#22941F"/>
</linearGradient>
<linearGradient id="paint1_linear_1723_1860" x1="62.4311" y1="6.32104" x2="62.4311" y2="22.4516" gradientUnits="userSpaceOnUse">
<stop stop-color="#23D220"/>
<stop offset="0.510417" stop-color="#8DFF8B"/>
<stop offset="1" stop-color="#03A600" stop-opacity="0"/>
</linearGradient>
<linearGradient id="paint2_linear_1723_1860" x1="10.7998" y1="7.66528" x2="10.7998" y2="17.9069" gradientUnits="userSpaceOnUse">
<stop stop-color="#7EE47B"/>
<stop offset="1" stop-color="#36A533"/>
</linearGradient>
<linearGradient id="paint3_linear_1723_1860" x1="10.7998" y1="6.38501" x2="10.7998" y2="8.94542" gradientUnits="userSpaceOnUse">
<stop stop-color="#7EE47B"/>
<stop offset="1" stop-color="#36A533"/>
</linearGradient>
<linearGradient id="paint4_linear_1723_1860" x1="9.50391" y1="12.1458" x2="9.50391" y2="15.3463" gradientUnits="userSpaceOnUse">
<stop stop-color="#7EE47B"/>
<stop offset="1" stop-color="#36A533"/>
</linearGradient>
<linearGradient id="paint5_linear_1723_1860" x1="11.2993" y1="14.7063" x2="11.2993" y2="15.3464" gradientUnits="userSpaceOnUse">
<stop stop-color="#7EE47B"/>
<stop offset="1" stop-color="#36A533"/>
</linearGradient>
<linearGradient id="paint6_linear_1723_1860" x1="13.0962" y1="13.426" x2="13.0962" y2="15.3463" gradientUnits="userSpaceOnUse">
<stop stop-color="#7EE47B"/>
<stop offset="1" stop-color="#36A533"/>
</linearGradient>
</defs>
</svg>
