<svg width="88" height="30" viewBox="0 0 88 30" fill="none" xmlns="http://www.w3.org/2000/svg">
<g filter="url(#filter0_d_411_1007)">
<path d="M4.63074 0.704346H61.5547L71.9217 10.8975L61.5547 21.5878H4.63074L13.1128 10.8975L4.63074 0.704346Z" fill="#C5E0B4"/>
</g>
<path d="M23.1964 11.5911C23.1964 11.4817 23.1794 11.384 23.1456 11.2981C23.1143 11.2096 23.0557 11.1301 22.9698 11.0598C22.8865 10.9869 22.768 10.9166 22.6143 10.8489C22.4633 10.7786 22.268 10.7056 22.0284 10.6301C21.7628 10.5468 21.5154 10.453 21.2862 10.3489C21.057 10.2447 20.8552 10.1236 20.6807 9.9856C20.5089 9.84757 20.3747 9.68872 20.2784 9.50903C20.182 9.32674 20.1339 9.1158 20.1339 8.87622C20.1339 8.64185 20.1833 8.4283 20.2823 8.2356C20.3839 8.04289 20.5271 7.87752 20.712 7.7395C20.8969 7.59888 21.1143 7.4908 21.3643 7.41528C21.6169 7.33976 21.8956 7.302 22.2003 7.302C22.6221 7.302 22.9867 7.37882 23.294 7.53247C23.6039 7.68612 23.8435 7.89445 24.0128 8.15747C24.182 8.42049 24.2667 8.71606 24.2667 9.04419H23.1964C23.1964 8.86711 23.1586 8.71086 23.0831 8.57544C23.0102 8.44002 22.8982 8.33325 22.7471 8.25513C22.5987 8.177 22.4112 8.13794 22.1846 8.13794C21.9659 8.13794 21.7836 8.17049 21.6378 8.2356C21.4945 8.3007 21.3865 8.38924 21.3135 8.50122C21.2432 8.6132 21.2081 8.7382 21.2081 8.87622C21.2081 8.98039 21.2328 9.07414 21.2823 9.15747C21.3318 9.2382 21.406 9.31502 21.5049 9.38794C21.6039 9.45825 21.7263 9.52466 21.8721 9.58716C22.0206 9.64705 22.1924 9.70695 22.3878 9.76685C22.7003 9.8606 22.9737 9.96476 23.2081 10.0793C23.445 10.1939 23.6417 10.3241 23.7979 10.47C23.9568 10.6158 24.0753 10.7799 24.1534 10.9622C24.2341 11.1444 24.2745 11.3515 24.2745 11.5833C24.2745 11.828 24.2263 12.0468 24.1299 12.2395C24.0336 12.4322 23.8956 12.5963 23.7159 12.7317C23.5362 12.8671 23.32 12.97 23.0674 13.0403C22.8174 13.1106 22.5375 13.1458 22.2276 13.1458C21.9516 13.1458 21.6781 13.1093 21.4073 13.0364C21.1391 12.9609 20.8956 12.8489 20.6768 12.7004C20.4581 12.5494 20.2836 12.3593 20.1534 12.1301C20.0232 11.8984 19.9581 11.6275 19.9581 11.3176H21.0362C21.0362 11.4973 21.0648 11.651 21.1221 11.7786C21.182 11.9036 21.2654 12.0064 21.3721 12.0872C21.4815 12.1653 21.6091 12.2226 21.7549 12.259C21.9008 12.2955 22.0583 12.3137 22.2276 12.3137C22.4464 12.3137 22.626 12.2838 22.7667 12.2239C22.9099 12.1614 23.0167 12.0754 23.087 11.9661C23.1599 11.8567 23.1964 11.7317 23.1964 11.5911ZM27.4601 12.0637V8.84106H28.4992V13.0676H27.5226L27.4601 12.0637ZM27.5929 11.1887L27.9132 11.1809C27.9132 11.4648 27.882 11.7265 27.8195 11.9661C27.757 12.2056 27.6593 12.414 27.5265 12.5911C27.3963 12.7655 27.2309 12.9023 27.0304 13.0012C26.8299 13.0976 26.5929 13.1458 26.3195 13.1458C26.1111 13.1458 25.921 13.1171 25.7492 13.0598C25.5773 12.9999 25.4289 12.9075 25.3039 12.7825C25.1815 12.6549 25.0864 12.4921 25.0187 12.2942C24.951 12.0937 24.9171 11.8528 24.9171 11.5715V8.84106H25.9484V11.5793C25.9484 11.72 25.964 11.8372 25.9953 11.9309C26.0291 12.0247 26.0747 12.1015 26.132 12.1614C26.1919 12.2187 26.2609 12.2603 26.339 12.2864C26.4197 12.3098 26.5057 12.3215 26.5968 12.3215C26.8468 12.3215 27.0434 12.2721 27.1867 12.1731C27.3325 12.0715 27.4367 11.9361 27.4992 11.7668C27.5617 11.595 27.5929 11.4023 27.5929 11.1887ZM29.3293 7.06763H30.3645V12.134L30.2629 13.0676H29.3293V7.06763ZM33.0832 10.9114V10.9934C33.0832 11.3085 33.0481 11.5976 32.9778 11.8606C32.91 12.1236 32.8072 12.3515 32.6692 12.5442C32.5311 12.7343 32.3593 12.8827 32.1535 12.9895C31.9504 13.0937 31.7121 13.1458 31.4387 13.1458C31.1783 13.1458 30.9517 13.095 30.759 12.9934C30.5689 12.8918 30.4087 12.7486 30.2785 12.5637C30.1483 12.3762 30.0442 12.1562 29.966 11.9036C29.8879 11.6484 29.8293 11.3697 29.7903 11.0676V10.845C29.8293 10.5403 29.8879 10.2616 29.966 10.009C30.0442 9.75643 30.1483 9.53638 30.2785 9.34888C30.4087 9.16138 30.5689 9.01685 30.759 8.91528C30.9491 8.81372 31.1731 8.76294 31.4309 8.76294C31.7069 8.76294 31.9478 8.81632 32.1535 8.9231C32.3619 9.02726 32.5337 9.1757 32.6692 9.36841C32.8072 9.55851 32.91 9.78507 32.9778 10.0481C33.0481 10.3085 33.0832 10.5963 33.0832 10.9114ZM32.0481 10.9934V10.9114C32.0481 10.7317 32.0337 10.5624 32.0051 10.4036C31.9765 10.2421 31.9296 10.1002 31.8645 9.97778C31.7994 9.85539 31.7108 9.75903 31.5989 9.68872C31.4869 9.61841 31.3462 9.58325 31.177 9.58325C31.0155 9.58325 30.8775 9.6106 30.7629 9.66528C30.6509 9.71997 30.5572 9.79549 30.4817 9.89185C30.4087 9.9882 30.3515 10.1015 30.3098 10.2317C30.2707 10.3619 30.2447 10.5025 30.2317 10.6536V11.2629C30.2499 11.4635 30.2929 11.6444 30.3606 11.8059C30.4283 11.9648 30.5285 12.0911 30.6614 12.1848C30.7968 12.2786 30.9712 12.3254 31.1848 12.3254C31.3515 12.3254 31.4908 12.2929 31.6028 12.2278C31.7147 12.1601 31.8033 12.0663 31.8684 11.9465C31.9335 11.8241 31.9791 11.6822 32.0051 11.5208C32.0337 11.3593 32.0481 11.1835 32.0481 10.9934ZM34.7806 9.70825V13.0676H33.7493V8.84106H34.722L34.7806 9.70825ZM34.6282 10.802H34.3118C34.3118 10.5077 34.347 10.2369 34.4173 9.9895C34.4902 9.74211 34.597 9.52726 34.7376 9.34497C34.8782 9.16007 35.0514 9.01685 35.2571 8.91528C35.4655 8.81372 35.7064 8.76294 35.9798 8.76294C36.1699 8.76294 36.3444 8.79159 36.5032 8.84888C36.6621 8.90356 36.7988 8.9908 36.9134 9.1106C37.0306 9.22778 37.1204 9.38143 37.1829 9.57153C37.2454 9.75903 37.2767 9.98429 37.2767 10.2473V13.0676H36.2454V10.3528C36.2454 10.1549 36.2168 9.99992 36.1595 9.88794C36.1048 9.77596 36.0254 9.69784 35.9212 9.65356C35.817 9.60669 35.692 9.58325 35.5462 9.58325C35.3847 9.58325 35.2454 9.6158 35.1282 9.68091C35.0136 9.74341 34.9186 9.83065 34.8431 9.94263C34.7702 10.0546 34.7155 10.1835 34.679 10.3293C34.6452 10.4752 34.6282 10.6327 34.6282 10.802ZM37.1985 10.6106L36.7728 10.6887C36.7754 10.4231 36.8118 10.1744 36.8821 9.94263C36.9524 9.70825 37.0553 9.50382 37.1907 9.32935C37.3287 9.15226 37.4993 9.01424 37.7024 8.91528C37.9082 8.81372 38.1452 8.76294 38.4134 8.76294C38.6217 8.76294 38.8092 8.79289 38.9759 8.85278C39.1452 8.91007 39.2897 9.00252 39.4095 9.13013C39.5293 9.25513 39.6204 9.41789 39.6829 9.61841C39.748 9.81893 39.7806 10.0637 39.7806 10.3528V13.0676H38.7415V10.3489C38.7415 10.1431 38.7129 9.9856 38.6556 9.87622C38.6009 9.76685 38.5215 9.69132 38.4173 9.64966C38.3131 9.60539 38.1907 9.58325 38.0501 9.58325C37.9069 9.58325 37.7819 9.6106 37.6751 9.66528C37.5709 9.71737 37.4824 9.79028 37.4095 9.88403C37.3392 9.97778 37.2858 10.0872 37.2493 10.2122C37.2155 10.3346 37.1985 10.4674 37.1985 10.6106ZM41.7201 8.84106V13.0676H40.6849V8.84106H41.7201ZM40.6146 7.7356C40.6146 7.58195 40.6667 7.45435 40.7709 7.35278C40.8777 7.25122 41.0209 7.20044 41.2006 7.20044C41.3803 7.20044 41.5222 7.25122 41.6264 7.35278C41.7331 7.45435 41.7865 7.58195 41.7865 7.7356C41.7865 7.88664 41.7331 8.01294 41.6264 8.1145C41.5222 8.21606 41.3803 8.26685 41.2006 8.26685C41.0209 8.26685 40.8777 8.21606 40.7709 8.1145C40.6667 8.01294 40.6146 7.88664 40.6146 7.7356ZM44.6245 8.84106V9.58325H42.2026V8.84106H44.6245ZM42.851 7.802H43.8862V11.8489C43.8862 11.9739 43.9031 12.0702 43.937 12.1379C43.9708 12.2056 44.0216 12.2512 44.0893 12.2747C44.157 12.2981 44.2378 12.3098 44.3315 12.3098C44.3992 12.3098 44.4617 12.3059 44.519 12.2981C44.5763 12.2903 44.6245 12.2825 44.6635 12.2747L44.6674 13.0481C44.5815 13.0767 44.4839 13.1002 44.3745 13.1184C44.2677 13.1366 44.1466 13.1458 44.0112 13.1458C43.7794 13.1458 43.5763 13.1067 43.4018 13.0286C43.2273 12.9478 43.0919 12.8189 42.9956 12.6418C42.8992 12.4622 42.851 12.2252 42.851 11.9309V7.802ZM46.3257 8.84106V13.0676H45.2906V8.84106H46.3257ZM45.2203 7.7356C45.2203 7.58195 45.2723 7.45435 45.3765 7.35278C45.4833 7.25122 45.6265 7.20044 45.8062 7.20044C45.9859 7.20044 46.1278 7.25122 46.232 7.35278C46.3387 7.45435 46.3921 7.58195 46.3921 7.7356C46.3921 7.88664 46.3387 8.01294 46.232 8.1145C46.1278 8.21606 45.9859 8.26685 45.8062 8.26685C45.6265 8.26685 45.4833 8.21606 45.3765 8.1145C45.2723 8.01294 45.2203 7.88664 45.2203 7.7356ZM47.0465 10.9973V10.9153C47.0465 10.6054 47.0908 10.3202 47.1793 10.0598C47.2679 9.79679 47.3968 9.56893 47.566 9.37622C47.7353 9.18351 47.9423 9.03377 48.1871 8.927C48.4319 8.81763 48.7106 8.76294 49.0231 8.76294C49.3408 8.76294 49.622 8.81763 49.8668 8.927C50.1142 9.03377 50.3225 9.18351 50.4918 9.37622C50.6611 9.56893 50.79 9.79679 50.8785 10.0598C50.9671 10.3202 51.0114 10.6054 51.0114 10.9153V10.9973C51.0114 11.3046 50.9671 11.5898 50.8785 11.8528C50.79 12.1132 50.6611 12.3411 50.4918 12.5364C50.3225 12.7291 50.1155 12.8788 49.8707 12.9856C49.6259 13.0924 49.346 13.1458 49.0309 13.1458C48.7184 13.1458 48.4384 13.0924 48.191 12.9856C47.9436 12.8788 47.7353 12.7291 47.566 12.5364C47.3968 12.3411 47.2679 12.1132 47.1793 11.8528C47.0908 11.5898 47.0465 11.3046 47.0465 10.9973ZM48.0778 10.9153V10.9973C48.0778 11.1822 48.096 11.3554 48.1324 11.5168C48.1689 11.6783 48.2249 11.8202 48.3004 11.9426C48.3759 12.065 48.4736 12.1614 48.5934 12.2317C48.7158 12.2994 48.8616 12.3333 49.0309 12.3333C49.1975 12.3333 49.3408 12.2994 49.4606 12.2317C49.5804 12.1614 49.678 12.065 49.7535 11.9426C49.8317 11.8202 49.889 11.6783 49.9254 11.5168C49.9619 11.3554 49.9801 11.1822 49.9801 10.9973V10.9153C49.9801 10.733 49.9619 10.5624 49.9254 10.4036C49.889 10.2421 49.8317 10.1002 49.7535 9.97778C49.678 9.85278 49.5791 9.75513 49.4567 9.68481C49.3369 9.6119 49.1923 9.57544 49.0231 9.57544C48.8564 9.57544 48.7132 9.6119 48.5934 9.68481C48.4736 9.75513 48.3759 9.85278 48.3004 9.97778C48.2249 10.1002 48.1689 10.2421 48.1324 10.4036C48.096 10.5624 48.0778 10.733 48.0778 10.9153ZM52.6931 9.74341V13.0676H51.6618V8.84106H52.6306L52.6931 9.74341ZM52.529 10.802H52.2243C52.2269 10.4947 52.2686 10.2161 52.3493 9.96606C52.43 9.71606 52.5433 9.50122 52.6892 9.32153C52.8376 9.14185 53.0134 9.00382 53.2165 8.90747C53.4196 8.81112 53.6462 8.76294 53.8962 8.76294C54.0993 8.76294 54.2829 8.79159 54.447 8.84888C54.611 8.90617 54.7517 8.99731 54.8689 9.12231C54.9886 9.24731 55.0798 9.41138 55.1423 9.6145C55.2074 9.81502 55.2399 10.0624 55.2399 10.3567V13.0676H54.2009V10.3489C54.2009 10.1562 54.1722 10.0038 54.1149 9.89185C54.0603 9.77987 53.9795 9.70044 53.8728 9.65356C53.7686 9.60669 53.6397 9.58325 53.486 9.58325C53.3272 9.58325 53.1879 9.6158 53.0681 9.68091C52.9509 9.74341 52.8519 9.83065 52.7712 9.94263C52.6931 10.0546 52.6332 10.1835 52.5915 10.3293C52.5498 10.4752 52.529 10.6327 52.529 10.802Z" fill="white"/>
<defs>
<filter id="filter0_d_411_1007" x="0.630737" y="0.704346" width="75.291" height="28.8835" filterUnits="userSpaceOnUse" color-interpolation-filters="sRGB">
<feFlood flood-opacity="0" result="BackgroundImageFix"/>
<feColorMatrix in="SourceAlpha" type="matrix" values="0 0 0 0 0 0 0 0 0 0 0 0 0 0 0 0 0 0 127 0" result="hardAlpha"/>
<feOffset dy="4"/>
<feGaussianBlur stdDeviation="2"/>
<feComposite in2="hardAlpha" operator="out"/>
<feColorMatrix type="matrix" values="0 0 0 0 0 0 0 0 0 0 0 0 0 0 0 0 0 0 0.25 0"/>
<feBlend mode="normal" in2="BackgroundImageFix" result="effect1_dropShadow_411_1007"/>
<feBlend mode="normal" in="SourceGraphic" in2="effect1_dropShadow_411_1007" result="shape"/>
</filter>
</defs>
</svg>
