<svg width="76" height="30" viewBox="0 0 76 30" fill="none" xmlns="http://www.w3.org/2000/svg">
<g filter="url(#filter0_d_5_6)">
<path d="M4.63071 0.704102H61.5547L71.9217 10.8972L61.5547 21.5876H4.63071L13.1128 10.8972L4.63071 0.704102Z" fill="#213315"/>
</g>
<path d="M23.5195 11.5234C23.5195 11.4141 23.5026 11.3164 23.4688 11.2305C23.4375 11.1419 23.3789 11.0625 23.293 10.9922C23.2096 10.9193 23.0911 10.849 22.9375 10.7812C22.7865 10.7109 22.5911 10.638 22.3516 10.5625C22.0859 10.4792 21.8385 10.3854 21.6094 10.2812C21.3802 10.1771 21.1784 10.056 21.0039 9.91797C20.832 9.77995 20.6979 9.62109 20.6016 9.44141C20.5052 9.25911 20.457 9.04818 20.457 8.80859C20.457 8.57422 20.5065 8.36068 20.6055 8.16797C20.707 7.97526 20.8503 7.8099 21.0352 7.67188C21.2201 7.53125 21.4375 7.42318 21.6875 7.34766C21.9401 7.27214 22.2188 7.23438 22.5234 7.23438C22.9453 7.23438 23.3099 7.3112 23.6172 7.46484C23.9271 7.61849 24.1667 7.82682 24.3359 8.08984C24.5052 8.35286 24.5898 8.64844 24.5898 8.97656H23.5195C23.5195 8.79948 23.4818 8.64323 23.4062 8.50781C23.3333 8.3724 23.2214 8.26562 23.0703 8.1875C22.9219 8.10938 22.7344 8.07031 22.5078 8.07031C22.2891 8.07031 22.1068 8.10286 21.9609 8.16797C21.8177 8.23307 21.7096 8.32161 21.6367 8.43359C21.5664 8.54557 21.5312 8.67057 21.5312 8.80859C21.5312 8.91276 21.556 9.00651 21.6055 9.08984C21.6549 9.17057 21.7292 9.2474 21.8281 9.32031C21.9271 9.39062 22.0495 9.45703 22.1953 9.51953C22.3438 9.57943 22.5156 9.63932 22.7109 9.69922C23.0234 9.79297 23.2969 9.89714 23.5312 10.0117C23.7682 10.1263 23.9648 10.2565 24.1211 10.4023C24.2799 10.5482 24.3984 10.7122 24.4766 10.8945C24.5573 11.0768 24.5977 11.2839 24.5977 11.5156C24.5977 11.7604 24.5495 11.9792 24.4531 12.1719C24.3568 12.3646 24.2188 12.5286 24.0391 12.6641C23.8594 12.7995 23.6432 12.9023 23.3906 12.9727C23.1406 13.043 22.8607 13.0781 22.5508 13.0781C22.2747 13.0781 22.0013 13.0417 21.7305 12.9688C21.4622 12.8932 21.2188 12.7812 21 12.6328C20.7812 12.4818 20.6068 12.2917 20.4766 12.0625C20.3464 11.8307 20.2812 11.5599 20.2812 11.25H21.3594C21.3594 11.4297 21.388 11.5833 21.4453 11.7109C21.5052 11.8359 21.5885 11.9388 21.6953 12.0195C21.8047 12.0977 21.9323 12.1549 22.0781 12.1914C22.224 12.2279 22.3815 12.2461 22.5508 12.2461C22.7695 12.2461 22.9492 12.2161 23.0898 12.1562C23.2331 12.0938 23.3398 12.0078 23.4102 11.8984C23.4831 11.7891 23.5195 11.6641 23.5195 11.5234ZM27.7833 11.9961V8.77344H28.8223V13H27.8458L27.7833 11.9961ZM27.9161 11.1211L28.2364 11.1133C28.2364 11.3971 28.2052 11.6589 28.1427 11.8984C28.0802 12.138 27.9825 12.3464 27.8497 12.5234C27.7195 12.6979 27.5541 12.8346 27.3536 12.9336C27.1531 13.0299 26.9161 13.0781 26.6427 13.0781C26.4343 13.0781 26.2442 13.0495 26.0723 12.9922C25.9005 12.9323 25.752 12.8398 25.627 12.7148C25.5046 12.5872 25.4096 12.4245 25.3419 12.2266C25.2742 12.026 25.2403 11.7852 25.2403 11.5039V8.77344H26.2716V11.5117C26.2716 11.6523 26.2872 11.7695 26.3184 11.8633C26.3523 11.957 26.3979 12.0339 26.4552 12.0938C26.5151 12.151 26.5841 12.1927 26.6622 12.2188C26.7429 12.2422 26.8289 12.2539 26.92 12.2539C27.17 12.2539 27.3666 12.2044 27.5098 12.1055C27.6557 12.0039 27.7598 11.8685 27.8223 11.6992C27.8848 11.5273 27.9161 11.3346 27.9161 11.1211ZM29.6525 7H30.6877V12.0664L30.5861 13H29.6525V7ZM33.4064 10.8438V10.9258C33.4064 11.2409 33.3713 11.5299 33.3009 11.793C33.2332 12.056 33.1304 12.2839 32.9923 12.4766C32.8543 12.6667 32.6824 12.8151 32.4767 12.9219C32.2736 13.026 32.0353 13.0781 31.7619 13.0781C31.5015 13.0781 31.2749 13.0273 31.0822 12.9258C30.8921 12.8242 30.7319 12.681 30.6017 12.4961C30.4715 12.3086 30.3673 12.0885 30.2892 11.8359C30.2111 11.5807 30.1525 11.3021 30.1134 11V10.7773C30.1525 10.4727 30.2111 10.194 30.2892 9.94141C30.3673 9.6888 30.4715 9.46875 30.6017 9.28125C30.7319 9.09375 30.8921 8.94922 31.0822 8.84766C31.2723 8.74609 31.4963 8.69531 31.7541 8.69531C32.0301 8.69531 32.271 8.7487 32.4767 8.85547C32.6851 8.95964 32.8569 9.10807 32.9923 9.30078C33.1304 9.49089 33.2332 9.71745 33.3009 9.98047C33.3713 10.2409 33.4064 10.5286 33.4064 10.8438ZM32.3713 10.9258V10.8438C32.3713 10.6641 32.3569 10.4948 32.3283 10.3359C32.2996 10.1745 32.2528 10.0326 32.1877 9.91016C32.1226 9.78776 32.034 9.69141 31.922 9.62109C31.8101 9.55078 31.6694 9.51562 31.5002 9.51562C31.3387 9.51562 31.2007 9.54297 31.0861 9.59766C30.9741 9.65234 30.8804 9.72786 30.8048 9.82422C30.7319 9.92057 30.6746 10.0339 30.633 10.1641C30.5939 10.2943 30.5679 10.4349 30.5548 10.5859V11.1953C30.5731 11.3958 30.616 11.5768 30.6838 11.7383C30.7515 11.8971 30.8517 12.0234 30.9845 12.1172C31.1199 12.2109 31.2944 12.2578 31.508 12.2578C31.6746 12.2578 31.814 12.2253 31.9259 12.1602C32.0379 12.0924 32.1265 11.9987 32.1916 11.8789C32.2567 11.7565 32.3022 11.6146 32.3283 11.4531C32.3569 11.2917 32.3713 11.1159 32.3713 10.9258ZM35.1038 9.64062V13H34.0725V8.77344H35.0452L35.1038 9.64062ZM34.9514 10.7344H34.635C34.635 10.4401 34.6702 10.1693 34.7405 9.92188C34.8134 9.67448 34.9202 9.45964 35.0608 9.27734C35.2014 9.09245 35.3746 8.94922 35.5803 8.84766C35.7886 8.74609 36.0295 8.69531 36.303 8.69531C36.4931 8.69531 36.6676 8.72396 36.8264 8.78125C36.9853 8.83594 37.122 8.92318 37.2366 9.04297C37.3538 9.16016 37.4436 9.3138 37.5061 9.50391C37.5686 9.69141 37.5998 9.91667 37.5998 10.1797V13H36.5686V10.2852C36.5686 10.0872 36.5399 9.93229 36.4827 9.82031C36.428 9.70833 36.3485 9.63021 36.2444 9.58594C36.1402 9.53906 36.0152 9.51562 35.8694 9.51562C35.7079 9.51562 35.5686 9.54818 35.4514 9.61328C35.3368 9.67578 35.2418 9.76302 35.1663 9.875C35.0933 9.98698 35.0386 10.1159 35.0022 10.2617C34.9683 10.4076 34.9514 10.5651 34.9514 10.7344ZM37.5217 10.543L37.0959 10.6211C37.0985 10.3555 37.135 10.1068 37.2053 9.875C37.2756 9.64062 37.3785 9.4362 37.5139 9.26172C37.6519 9.08464 37.8225 8.94661 38.0256 8.84766C38.2314 8.74609 38.4683 8.69531 38.7366 8.69531C38.9449 8.69531 39.1324 8.72526 39.2991 8.78516C39.4683 8.84245 39.6129 8.9349 39.7327 9.0625C39.8524 9.1875 39.9436 9.35026 40.0061 9.55078C40.0712 9.7513 40.1038 9.99609 40.1038 10.2852V13H39.0647V10.2812C39.0647 10.0755 39.036 9.91797 38.9788 9.80859C38.9241 9.69922 38.8446 9.6237 38.7405 9.58203C38.6363 9.53776 38.5139 9.51562 38.3733 9.51562C38.2301 9.51562 38.1051 9.54297 37.9983 9.59766C37.8941 9.64974 37.8056 9.72266 37.7327 9.81641C37.6623 9.91016 37.609 10.0195 37.5725 10.1445C37.5386 10.2669 37.5217 10.3997 37.5217 10.543ZM42.0433 8.77344V13H41.0081V8.77344H42.0433ZM40.9378 7.66797C40.9378 7.51432 40.9899 7.38672 41.0941 7.28516C41.2008 7.18359 41.3441 7.13281 41.5238 7.13281C41.7034 7.13281 41.8454 7.18359 41.9495 7.28516C42.0563 7.38672 42.1097 7.51432 42.1097 7.66797C42.1097 7.81901 42.0563 7.94531 41.9495 8.04688C41.8454 8.14844 41.7034 8.19922 41.5238 8.19922C41.3441 8.19922 41.2008 8.14844 41.0941 8.04688C40.9899 7.94531 40.9378 7.81901 40.9378 7.66797ZM44.9477 8.77344V9.51562H42.5258V8.77344H44.9477ZM43.1742 7.73438H44.2094V11.7812C44.2094 11.9062 44.2263 12.0026 44.2602 12.0703C44.294 12.138 44.3448 12.1836 44.4125 12.207C44.4802 12.2305 44.5609 12.2422 44.6547 12.2422C44.7224 12.2422 44.7849 12.2383 44.8422 12.2305C44.8995 12.2227 44.9477 12.2148 44.9867 12.207L44.9906 12.9805C44.9047 13.0091 44.807 13.0326 44.6977 13.0508C44.5909 13.069 44.4698 13.0781 44.3344 13.0781C44.1026 13.0781 43.8995 13.0391 43.725 12.9609C43.5505 12.8802 43.4151 12.7513 43.3188 12.5742C43.2224 12.3945 43.1742 12.1576 43.1742 11.8633V7.73438ZM46.6489 8.77344V13H45.6138V8.77344H46.6489ZM45.5434 7.66797C45.5434 7.51432 45.5955 7.38672 45.6997 7.28516C45.8065 7.18359 45.9497 7.13281 46.1294 7.13281C46.3091 7.13281 46.451 7.18359 46.5552 7.28516C46.6619 7.38672 46.7153 7.51432 46.7153 7.66797C46.7153 7.81901 46.6619 7.94531 46.5552 8.04688C46.451 8.14844 46.3091 8.19922 46.1294 8.19922C45.9497 8.19922 45.8065 8.14844 45.6997 8.04688C45.5955 7.94531 45.5434 7.81901 45.5434 7.66797ZM47.3697 10.9297V10.8477C47.3697 10.5378 47.414 10.2526 47.5025 9.99219C47.591 9.72917 47.7199 9.5013 47.8892 9.30859C48.0585 9.11589 48.2655 8.96615 48.5103 8.85938C48.7551 8.75 49.0338 8.69531 49.3463 8.69531C49.664 8.69531 49.9452 8.75 50.19 8.85938C50.4374 8.96615 50.6457 9.11589 50.815 9.30859C50.9843 9.5013 51.1132 9.72917 51.2017 9.99219C51.2903 10.2526 51.3345 10.5378 51.3345 10.8477V10.9297C51.3345 11.237 51.2903 11.5221 51.2017 11.7852C51.1132 12.0456 50.9843 12.2734 50.815 12.4688C50.6457 12.6615 50.4387 12.8112 50.1939 12.918C49.9491 13.0247 49.6692 13.0781 49.3541 13.0781C49.0416 13.0781 48.7616 13.0247 48.5142 12.918C48.2668 12.8112 48.0585 12.6615 47.8892 12.4688C47.7199 12.2734 47.591 12.0456 47.5025 11.7852C47.414 11.5221 47.3697 11.237 47.3697 10.9297ZM48.4009 10.8477V10.9297C48.4009 11.1146 48.4192 11.2878 48.4556 11.4492C48.4921 11.6107 48.5481 11.7526 48.6236 11.875C48.6991 11.9974 48.7968 12.0938 48.9166 12.1641C49.039 12.2318 49.1848 12.2656 49.3541 12.2656C49.5207 12.2656 49.664 12.2318 49.7838 12.1641C49.9035 12.0938 50.0012 11.9974 50.0767 11.875C50.1548 11.7526 50.2121 11.6107 50.2486 11.4492C50.2851 11.2878 50.3033 11.1146 50.3033 10.9297V10.8477C50.3033 10.6654 50.2851 10.4948 50.2486 10.3359C50.2121 10.1745 50.1548 10.0326 50.0767 9.91016C50.0012 9.78516 49.9022 9.6875 49.7798 9.61719C49.6601 9.54427 49.5155 9.50781 49.3463 9.50781C49.1796 9.50781 49.0364 9.54427 48.9166 9.61719C48.7968 9.6875 48.6991 9.78516 48.6236 9.91016C48.5481 10.0326 48.4921 10.1745 48.4556 10.3359C48.4192 10.4948 48.4009 10.6654 48.4009 10.8477ZM53.0163 9.67578V13H51.985V8.77344H52.9538L53.0163 9.67578ZM52.8522 10.7344H52.5475C52.5501 10.4271 52.5918 10.1484 52.6725 9.89844C52.7532 9.64844 52.8665 9.43359 53.0123 9.25391C53.1608 9.07422 53.3366 8.9362 53.5397 8.83984C53.7428 8.74349 53.9694 8.69531 54.2194 8.69531C54.4225 8.69531 54.6061 8.72396 54.7702 8.78125C54.9342 8.83854 55.0748 8.92969 55.192 9.05469C55.3118 9.17969 55.403 9.34375 55.4655 9.54688C55.5306 9.7474 55.5631 9.99479 55.5631 10.2891V13H54.5241V10.2812C54.5241 10.0885 54.4954 9.9362 54.4381 9.82422C54.3834 9.71224 54.3027 9.63281 54.1959 9.58594C54.0918 9.53906 53.9629 9.51562 53.8092 9.51562C53.6504 9.51562 53.511 9.54818 53.3913 9.61328C53.2741 9.67578 53.1751 9.76302 53.0944 9.875C53.0163 9.98698 52.9564 10.1159 52.9147 10.2617C52.873 10.4076 52.8522 10.5651 52.8522 10.7344Z" fill="white"/>
<defs>
<filter id="filter0_d_5_6" x="0.630707" y="0.704102" width="75.291" height="28.8835" filterUnits="userSpaceOnUse" color-interpolation-filters="sRGB">
<feFlood flood-opacity="0" result="BackgroundImageFix"/>
<feColorMatrix in="SourceAlpha" type="matrix" values="0 0 0 0 0 0 0 0 0 0 0 0 0 0 0 0 0 0 127 0" result="hardAlpha"/>
<feOffset dy="4"/>
<feGaussianBlur stdDeviation="2"/>
<feComposite in2="hardAlpha" operator="out"/>
<feColorMatrix type="matrix" values="0 0 0 0 0 0 0 0 0 0 0 0 0 0 0 0 0 0 0.25 0"/>
<feBlend mode="normal" in2="BackgroundImageFix" result="effect1_dropShadow_5_6"/>
<feBlend mode="normal" in="SourceGraphic" in2="effect1_dropShadow_5_6" result="shape"/>
</filter>
</defs>
</svg>
