<svg width="75" height="29" viewBox="0 0 75 29" fill="none" xmlns="http://www.w3.org/2000/svg">
<g filter="url(#filter0_d_1723_875)">
<path d="M4 0.00012207H59.9753L70.1695 10.1932L59.9753 20.8836H4L12.3407 10.1932L4 0.00012207Z" fill="#213315"/>
</g>
<path d="M15.9658 11.1826L17.3838 6.6084H18.5752L16.5674 12.2959H15.7744L15.9658 11.1826ZM14.6572 6.6084L16.0674 11.1826L16.2705 12.2959H15.4697L13.4697 6.6084H14.6572ZM21.1514 11.3975V9.44824C21.1514 9.30501 21.1267 9.18132 21.0772 9.07715C21.0277 8.97298 20.9522 8.89225 20.8507 8.83496C20.7491 8.77767 20.6202 8.74902 20.4639 8.74902C20.3259 8.74902 20.2048 8.77246 20.1007 8.81934C19.9991 8.86621 19.921 8.93262 19.8663 9.01855C19.8116 9.10189 19.7843 9.19824 19.7843 9.30762H18.7491C18.7491 9.13314 18.7908 8.96777 18.8741 8.81152C18.9574 8.65267 19.0759 8.51204 19.2296 8.38965C19.3858 8.26465 19.572 8.16699 19.7882 8.09668C20.0069 8.02637 20.2517 7.99121 20.5225 7.99121C20.8429 7.99121 21.128 8.0459 21.378 8.15527C21.6306 8.26204 21.8285 8.4235 21.9718 8.63965C22.1176 8.85579 22.1905 9.12793 22.1905 9.45605V11.2998C22.1905 11.5107 22.2035 11.6917 22.2296 11.8428C22.2582 11.9912 22.2999 12.1201 22.3546 12.2295V12.2959H21.3038C21.2543 12.1891 21.2165 12.0537 21.1905 11.8896C21.1645 11.723 21.1514 11.5589 21.1514 11.3975ZM21.296 9.72168L21.3038 10.335H20.6514C20.49 10.335 20.3481 10.3519 20.2257 10.3857C20.1033 10.417 20.003 10.4639 19.9249 10.5264C19.8468 10.5863 19.7882 10.6592 19.7491 10.7451C19.71 10.8285 19.6905 10.9235 19.6905 11.0303C19.6905 11.1344 19.7139 11.2282 19.7608 11.3115C19.8103 11.3949 19.8806 11.4613 19.9718 11.5107C20.0655 11.5576 20.1749 11.5811 20.2999 11.5811C20.4822 11.5811 20.641 11.5446 20.7764 11.4717C20.9119 11.3962 21.0173 11.305 21.0929 11.1982C21.1684 11.0915 21.2087 10.9899 21.2139 10.8936L21.5108 11.3389C21.4744 11.4456 21.4197 11.5589 21.3468 11.6787C21.2738 11.7985 21.1801 11.9105 21.0655 12.0146C20.9509 12.1188 20.8129 12.2048 20.6514 12.2725C20.49 12.3402 20.3025 12.374 20.0889 12.374C19.8155 12.374 19.5707 12.3193 19.3546 12.21C19.1384 12.1006 18.9679 11.9508 18.8429 11.7607C18.7179 11.5706 18.6554 11.3545 18.6554 11.1123C18.6554 10.8883 18.697 10.6904 18.7804 10.5186C18.8637 10.3467 18.9874 10.2021 19.1514 10.085C19.3155 9.96517 19.5186 9.87533 19.7608 9.81543C20.0056 9.75293 20.2856 9.72168 20.6007 9.72168H21.296ZM24.0714 8.93262V12.2959H23.0402V8.06934H24.0168L24.0714 8.93262ZM25.3566 8.04199L25.341 9.00293C25.2837 8.99251 25.2186 8.9847 25.1457 8.97949C25.0754 8.97428 25.0089 8.97168 24.9464 8.97168C24.7876 8.97168 24.6483 8.99382 24.5285 9.03809C24.4087 9.07975 24.3084 9.14095 24.2277 9.22168C24.1496 9.30241 24.0897 9.40137 24.048 9.51855C24.0063 9.63314 23.9829 9.76335 23.9777 9.90918L23.755 9.88184C23.755 9.61361 23.7824 9.36491 23.8371 9.13574C23.8918 8.90658 23.9712 8.70605 24.0754 8.53418C24.1795 8.3623 24.3097 8.22949 24.466 8.13574C24.6248 8.03939 24.8071 7.99121 25.0129 7.99121C25.0701 7.99121 25.1313 7.99642 25.1964 8.00684C25.2642 8.01465 25.3175 8.02637 25.3566 8.04199ZM26.8743 8.93262V12.2959H25.843V8.06934H26.8196L26.8743 8.93262ZM28.1594 8.04199L28.1438 9.00293C28.0865 8.99251 28.0214 8.9847 27.9485 8.97949C27.8782 8.97428 27.8118 8.97168 27.7493 8.97168C27.5904 8.97168 27.4511 8.99382 27.3313 9.03809C27.2115 9.07975 27.1112 9.14095 27.0305 9.22168C26.9524 9.30241 26.8925 9.40137 26.8508 9.51855C26.8092 9.63314 26.7857 9.76335 26.7805 9.90918L26.5579 9.88184C26.5579 9.61361 26.5852 9.36491 26.6399 9.13574C26.6946 8.90658 26.774 8.70605 26.8782 8.53418C26.9823 8.3623 27.1125 8.22949 27.2688 8.13574C27.4276 8.03939 27.6099 7.99121 27.8157 7.99121C27.873 7.99121 27.9342 7.99642 27.9993 8.00684C28.067 8.01465 28.1204 8.02637 28.1594 8.04199ZM29.7396 8.06934V12.2959H28.7044V8.06934H29.7396ZM28.6341 6.96387C28.6341 6.81022 28.6862 6.68262 28.7904 6.58105C28.8971 6.47949 29.0404 6.42871 29.22 6.42871C29.3997 6.42871 29.5417 6.47949 29.6458 6.58105C29.7526 6.68262 29.806 6.81022 29.806 6.96387C29.806 7.11491 29.7526 7.24121 29.6458 7.34277C29.5417 7.44434 29.3997 7.49512 29.22 7.49512C29.0404 7.49512 28.8971 7.44434 28.7904 7.34277C28.6862 7.24121 28.6341 7.11491 28.6341 6.96387ZM32.5424 12.374C32.2221 12.374 31.9343 12.3219 31.6791 12.2178C31.4239 12.1136 31.2064 11.9691 31.0268 11.7842C30.8497 11.5967 30.713 11.3792 30.6166 11.1318C30.5229 10.8818 30.476 10.6136 30.476 10.3271V10.1709C30.476 9.84538 30.5229 9.5498 30.6166 9.28418C30.7104 9.01595 30.8432 8.78548 31.015 8.59277C31.1869 8.40007 31.3926 8.25163 31.6322 8.14746C31.8718 8.04329 32.1361 7.99121 32.4252 7.99121C32.7247 7.99121 32.989 8.04199 33.2182 8.14355C33.4473 8.24251 33.6387 8.38314 33.7924 8.56543C33.946 8.74772 34.0619 8.96647 34.14 9.22168C34.2182 9.47428 34.2572 9.75423 34.2572 10.0615V10.4951H30.9447V9.78418H33.2416V9.70605C33.2364 9.54199 33.2051 9.39225 33.1479 9.25684C33.0906 9.11882 33.002 9.00944 32.8822 8.92871C32.7624 8.84538 32.6075 8.80371 32.4174 8.80371C32.2637 8.80371 32.1296 8.83757 32.015 8.90527C31.9031 8.97038 31.8093 9.06413 31.7338 9.18652C31.6609 9.30632 31.6062 9.44954 31.5697 9.61621C31.5333 9.78288 31.515 9.96777 31.515 10.1709V10.3271C31.515 10.5042 31.5385 10.6683 31.5854 10.8193C31.6348 10.9704 31.7064 11.1019 31.8002 11.2139C31.8965 11.3232 32.0111 11.4092 32.1439 11.4717C32.2794 11.5316 32.433 11.5615 32.6049 11.5615C32.821 11.5615 33.0163 11.5199 33.1908 11.4365C33.3679 11.3506 33.5215 11.2243 33.6518 11.0576L34.1713 11.5967C34.0827 11.7269 33.963 11.8519 33.8119 11.9717C33.6635 12.0915 33.4838 12.1891 33.2729 12.2646C33.0619 12.3376 32.8184 12.374 32.5424 12.374ZM36.8686 8.06934V8.81152H34.4468V8.06934H36.8686ZM35.0952 7.03027H36.1304V11.0771C36.1304 11.2021 36.1473 11.2985 36.1811 11.3662C36.215 11.4339 36.2658 11.4795 36.3335 11.5029C36.4012 11.5264 36.4819 11.5381 36.5757 11.5381C36.6434 11.5381 36.7059 11.5342 36.7632 11.5264C36.8205 11.5186 36.8686 11.5107 36.9077 11.5029L36.9116 12.2764C36.8257 12.305 36.728 12.3285 36.6186 12.3467C36.5119 12.3649 36.3908 12.374 36.2554 12.374C36.0236 12.374 35.8205 12.335 35.646 12.2568C35.4715 12.1761 35.3361 12.0472 35.2397 11.8701C35.1434 11.6904 35.0952 11.4535 35.0952 11.1592V7.03027ZM38.7144 11.8271L39.8472 8.06934H40.9527L39.2574 12.9365C39.2183 13.0407 39.1675 13.154 39.105 13.2764C39.0451 13.3988 38.9644 13.5146 38.8629 13.624C38.7613 13.736 38.6337 13.8271 38.48 13.8975C38.329 13.9678 38.1454 14.0029 37.9293 14.0029C37.8355 14.0029 37.7522 13.9964 37.6793 13.9834C37.6063 13.9704 37.5295 13.9535 37.4488 13.9326V13.1592C37.4748 13.1618 37.5048 13.1631 37.5386 13.1631C37.5751 13.1657 37.6063 13.167 37.6324 13.167C37.7834 13.167 37.9084 13.1488 38.0074 13.1123C38.1063 13.0785 38.1858 13.0225 38.2457 12.9443C38.3082 12.8688 38.3602 12.7699 38.4019 12.6475L38.7144 11.8271ZM38.1558 8.06934L39.1129 11.1826L39.2808 12.2725L38.5699 12.4014L37.0425 8.06934H38.1558ZM44.5075 6.6084V12.2959H43.4333V6.6084H44.5075ZM47.5096 8.06934V8.81152H45.0877V8.06934H47.5096ZM45.7361 7.03027H46.7713V11.0771C46.7713 11.2021 46.7882 11.2985 46.8221 11.3662C46.8559 11.4339 46.9067 11.4795 46.9744 11.5029C47.0421 11.5264 47.1229 11.5381 47.2166 11.5381C47.2843 11.5381 47.3468 11.5342 47.4041 11.5264C47.4614 11.5186 47.5096 11.5107 47.5486 11.5029L47.5525 12.2764C47.4666 12.305 47.3689 12.3285 47.2596 12.3467C47.1528 12.3649 47.0317 12.374 46.8963 12.374C46.6645 12.374 46.4614 12.335 46.2869 12.2568C46.1124 12.1761 45.977 12.0472 45.8807 11.8701C45.7843 11.6904 45.7361 11.4535 45.7361 11.1592V7.03027ZM50.0155 12.374C49.6952 12.374 49.4074 12.3219 49.1522 12.2178C48.897 12.1136 48.6796 11.9691 48.4999 11.7842C48.3228 11.5967 48.1861 11.3792 48.0897 11.1318C47.996 10.8818 47.9491 10.6136 47.9491 10.3271V10.1709C47.9491 9.84538 47.996 9.5498 48.0897 9.28418C48.1835 9.01595 48.3163 8.78548 48.4882 8.59277C48.66 8.40007 48.8658 8.25163 49.1054 8.14746C49.3449 8.04329 49.6093 7.99121 49.8983 7.99121C50.1978 7.99121 50.4621 8.04199 50.6913 8.14355C50.9205 8.24251 51.1119 8.38314 51.2655 8.56543C51.4192 8.74772 51.535 8.96647 51.6132 9.22168C51.6913 9.47428 51.7304 9.75423 51.7304 10.0615V10.4951H48.4179V9.78418H50.7147V9.70605C50.7095 9.54199 50.6783 9.39225 50.621 9.25684C50.5637 9.11882 50.4751 9.00944 50.3554 8.92871C50.2356 8.84538 50.0806 8.80371 49.8905 8.80371C49.7369 8.80371 49.6027 8.83757 49.4882 8.90527C49.3762 8.97038 49.2824 9.06413 49.2069 9.18652C49.134 9.30632 49.0793 9.44954 49.0429 9.61621C49.0064 9.78288 48.9882 9.96777 48.9882 10.1709V10.3271C48.9882 10.5042 49.0116 10.6683 49.0585 10.8193C49.108 10.9704 49.1796 11.1019 49.2733 11.2139C49.3697 11.3232 49.4843 11.4092 49.6171 11.4717C49.7525 11.5316 49.9061 11.5615 50.078 11.5615C50.2942 11.5615 50.4895 11.5199 50.6639 11.4365C50.841 11.3506 50.9947 11.2243 51.1249 11.0576L51.6444 11.5967C51.5559 11.7269 51.4361 11.8519 51.285 11.9717C51.1366 12.0915 50.9569 12.1891 50.746 12.2646C50.535 12.3376 50.2915 12.374 50.0155 12.374ZM53.3691 8.93652V12.2959H52.3379V8.06934H53.3105L53.3691 8.93652ZM53.2168 10.0303H52.9004C52.9004 9.736 52.9355 9.46517 53.0058 9.21777C53.0787 8.97038 53.1855 8.75553 53.3261 8.57324C53.4668 8.38835 53.6399 8.24512 53.8457 8.14355C54.054 8.04199 54.2949 7.99121 54.5683 7.99121C54.7584 7.99121 54.9329 8.01986 55.0918 8.07715C55.2506 8.13184 55.3873 8.21908 55.5019 8.33887C55.6191 8.45605 55.7089 8.6097 55.7714 8.7998C55.8339 8.9873 55.8652 9.21257 55.8652 9.47559V12.2959H54.8339V9.58105C54.8339 9.38314 54.8053 9.22819 54.748 9.11621C54.6933 9.00423 54.6139 8.92611 54.5097 8.88184C54.4056 8.83496 54.2806 8.81152 54.1347 8.81152C53.9733 8.81152 53.8339 8.84408 53.7168 8.90918C53.6022 8.97168 53.5071 9.05892 53.4316 9.1709C53.3587 9.28288 53.304 9.41178 53.2675 9.55762C53.2337 9.70345 53.2168 9.861 53.2168 10.0303ZM55.7871 9.83887L55.3613 9.91699C55.3639 9.65137 55.4004 9.40267 55.4707 9.1709C55.541 8.93652 55.6438 8.7321 55.7793 8.55762C55.9173 8.38053 56.0879 8.24251 56.291 8.14355C56.4967 8.04199 56.7337 7.99121 57.0019 7.99121C57.2102 7.99121 57.3977 8.02116 57.5644 8.08105C57.7337 8.13835 57.8782 8.23079 57.998 8.3584C58.1178 8.4834 58.2089 8.64616 58.2714 8.84668C58.3366 9.0472 58.3691 9.29199 58.3691 9.58105V12.2959H57.33V9.57715C57.33 9.37142 57.3014 9.21387 57.2441 9.10449C57.1894 8.99512 57.11 8.9196 57.0058 8.87793C56.9017 8.83366 56.7793 8.81152 56.6386 8.81152C56.4954 8.81152 56.3704 8.83887 56.2636 8.89355C56.1595 8.94564 56.0709 9.01855 55.998 9.1123C55.9277 9.20605 55.8743 9.31543 55.8379 9.44043C55.804 9.56283 55.7871 9.69564 55.7871 9.83887ZM61.5391 11.1396C61.5391 11.0511 61.5157 10.9717 61.4688 10.9014C61.4219 10.8311 61.3334 10.7673 61.2032 10.71C61.0756 10.6501 60.8881 10.5941 60.6407 10.542C60.4219 10.4951 60.2201 10.4365 60.0352 10.3662C59.8503 10.2959 59.6914 10.2113 59.5586 10.1123C59.4258 10.0107 59.3217 9.89225 59.2461 9.75684C59.1732 9.61882 59.1368 9.45996 59.1368 9.28027C59.1368 9.10579 59.1745 8.94173 59.25 8.78809C59.3256 8.63184 59.4349 8.49512 59.5782 8.37793C59.7214 8.25814 59.8959 8.16439 60.1016 8.09668C60.3073 8.02637 60.5391 7.99121 60.7969 7.99121C61.1563 7.99121 61.4649 8.0498 61.7227 8.16699C61.9831 8.28418 62.1823 8.44564 62.3204 8.65137C62.4584 8.85449 62.5274 9.08366 62.5274 9.33887H61.4961C61.4961 9.22689 61.4701 9.12533 61.418 9.03418C61.3685 8.94303 61.2917 8.87012 61.1875 8.81543C61.0834 8.75814 60.9519 8.72949 60.793 8.72949C60.6498 8.72949 60.5287 8.75293 60.4297 8.7998C60.3334 8.84668 60.2605 8.90788 60.211 8.9834C60.1615 9.05892 60.1368 9.14225 60.1368 9.2334C60.1368 9.30111 60.1498 9.3623 60.1758 9.41699C60.2045 9.46908 60.25 9.51725 60.3125 9.56152C60.375 9.60579 60.4597 9.64616 60.5664 9.68262C60.6758 9.71908 60.8099 9.75423 60.9688 9.78809C61.2839 9.85059 61.5586 9.93392 61.793 10.0381C62.03 10.1396 62.2149 10.2751 62.3477 10.4443C62.4805 10.6136 62.5469 10.8298 62.5469 11.0928C62.5469 11.2803 62.5065 11.4521 62.4258 11.6084C62.3451 11.762 62.2279 11.8962 62.0743 12.0107C61.9206 12.1253 61.737 12.2152 61.5235 12.2803C61.3099 12.3428 61.069 12.374 60.8008 12.374C60.4128 12.374 60.0847 12.305 59.8164 12.167C59.5482 12.0264 59.3451 11.8493 59.2071 11.6357C59.069 11.4196 59 11.1956 59 10.9639H59.9883C59.9961 11.1279 60.0404 11.2594 60.1211 11.3584C60.2019 11.4574 60.3034 11.529 60.4258 11.5732C60.5508 11.6149 60.6823 11.6357 60.8204 11.6357C60.9766 11.6357 61.1081 11.6149 61.2149 11.5732C61.3217 11.529 61.4024 11.4704 61.4571 11.3975C61.5118 11.3219 61.5391 11.236 61.5391 11.1396Z" fill="white"/>
<defs>
<filter id="filter0_d_1723_875" x="0" y="0.00012207" width="74.1694" height="28.8834" filterUnits="userSpaceOnUse" color-interpolation-filters="sRGB">
<feFlood flood-opacity="0" result="BackgroundImageFix"/>
<feColorMatrix in="SourceAlpha" type="matrix" values="0 0 0 0 0 0 0 0 0 0 0 0 0 0 0 0 0 0 127 0" result="hardAlpha"/>
<feOffset dy="4"/>
<feGaussianBlur stdDeviation="2"/>
<feComposite in2="hardAlpha" operator="out"/>
<feColorMatrix type="matrix" values="0 0 0 0 0 0 0 0 0 0 0 0 0 0 0 0 0 0 0.25 0"/>
<feBlend mode="normal" in2="BackgroundImageFix" result="effect1_dropShadow_1723_875"/>
<feBlend mode="normal" in="SourceGraphic" in2="effect1_dropShadow_1723_875" result="shape"/>
</filter>
</defs>
</svg>
