<svg width="99" height="29" viewBox="0 0 99 29" fill="none" xmlns="http://www.w3.org/2000/svg">
<g filter="url(#filter0_d_1723_872)">
<path d="M4 0.00012207H72.3088L84.7492 10.1932L72.3088 20.8836H4L14.1785 10.1932L4 0.00012207Z" fill="#213315"/>
</g>
<path d="M23.0977 11.1899L24.5156 6.61572H25.707L23.6992 12.3032H22.9062L23.0977 11.1899ZM21.7891 6.61572L23.1992 11.1899L23.4023 12.3032H22.6016L20.6016 6.61572H21.7891ZM28.2833 11.4048V9.45557C28.2833 9.31234 28.2585 9.18864 28.2091 9.08447C28.1596 8.98031 28.0841 8.89958 27.9825 8.84229C27.8809 8.78499 27.752 8.75635 27.5958 8.75635C27.4578 8.75635 27.3367 8.77979 27.2325 8.82666C27.1309 8.87354 27.0528 8.93994 26.9981 9.02588C26.9434 9.10921 26.9161 9.20557 26.9161 9.31494H25.8809C25.8809 9.14046 25.9226 8.9751 26.0059 8.81885C26.0893 8.65999 26.2078 8.51937 26.3614 8.39697C26.5177 8.27197 26.7039 8.17432 26.92 8.104C27.1388 8.03369 27.3835 7.99854 27.6544 7.99854C27.9747 7.99854 28.2598 8.05322 28.5098 8.1626C28.7624 8.26937 28.9604 8.43083 29.1036 8.64697C29.2494 8.86312 29.3223 9.13525 29.3223 9.46338V11.3071C29.3223 11.5181 29.3354 11.6991 29.3614 11.8501C29.3901 11.9985 29.4317 12.1274 29.4864 12.2368V12.3032H28.4356C28.3861 12.1965 28.3484 12.061 28.3223 11.897C28.2963 11.7303 28.2833 11.5662 28.2833 11.4048ZM28.4278 9.729L28.4356 10.3423H27.7833C27.6218 10.3423 27.4799 10.3592 27.3575 10.3931C27.2351 10.4243 27.1348 10.4712 27.0567 10.5337C26.9786 10.5936 26.92 10.6665 26.8809 10.7524C26.8419 10.8358 26.8223 10.9308 26.8223 11.0376C26.8223 11.1418 26.8458 11.2355 26.8927 11.3188C26.9421 11.4022 27.0124 11.4686 27.1036 11.5181C27.1973 11.5649 27.3067 11.5884 27.4317 11.5884C27.614 11.5884 27.7729 11.5519 27.9083 11.479C28.0437 11.4035 28.1492 11.3123 28.2247 11.2056C28.3002 11.0988 28.3406 10.9972 28.3458 10.9009L28.6427 11.3462C28.6062 11.453 28.5515 11.5662 28.4786 11.686C28.4057 11.8058 28.3119 11.9178 28.1973 12.022C28.0828 12.1261 27.9447 12.2121 27.7833 12.2798C27.6218 12.3475 27.4343 12.3813 27.2208 12.3813C26.9473 12.3813 26.7026 12.3267 26.4864 12.2173C26.2703 12.1079 26.0997 11.9582 25.9747 11.7681C25.8497 11.578 25.7872 11.3618 25.7872 11.1196C25.7872 10.8957 25.8289 10.6978 25.9122 10.5259C25.9955 10.354 26.1192 10.2095 26.2833 10.0923C26.4473 9.97249 26.6505 9.88265 26.8927 9.82275C27.1374 9.76025 27.4174 9.729 27.7325 9.729H28.4278ZM31.2033 8.93994V12.3032H30.172V8.07666H31.1486L31.2033 8.93994ZM32.4884 8.04932L32.4728 9.01025C32.4155 8.99984 32.3504 8.99202 32.2775 8.98682C32.2072 8.98161 32.1408 8.979 32.0783 8.979C31.9194 8.979 31.7801 9.00114 31.6603 9.04541C31.5405 9.08708 31.4403 9.14827 31.3595 9.229C31.2814 9.30973 31.2215 9.40869 31.1798 9.52588C31.1382 9.64046 31.1147 9.77067 31.1095 9.9165L30.8869 9.88916C30.8869 9.62093 30.9142 9.37223 30.9689 9.14307C31.0236 8.9139 31.103 8.71338 31.2072 8.5415C31.3114 8.36963 31.4416 8.23682 31.5978 8.14307C31.7567 8.04671 31.939 7.99854 32.1447 7.99854C32.202 7.99854 32.2632 8.00374 32.3283 8.01416C32.396 8.02197 32.4494 8.03369 32.4884 8.04932ZM34.0686 8.07666V12.3032H33.0334V8.07666H34.0686ZM32.9631 6.97119C32.9631 6.81755 33.0152 6.68994 33.1194 6.58838C33.2261 6.48682 33.3694 6.43604 33.5491 6.43604C33.7288 6.43604 33.8707 6.48682 33.9748 6.58838C34.0816 6.68994 34.135 6.81755 34.135 6.97119C34.135 7.12223 34.0816 7.24854 33.9748 7.3501C33.8707 7.45166 33.7288 7.50244 33.5491 7.50244C33.3694 7.50244 33.2261 7.45166 33.1194 7.3501C33.0152 7.24854 32.9631 7.12223 32.9631 6.97119ZM36.8714 12.3813C36.5511 12.3813 36.2633 12.3293 36.0081 12.2251C35.7529 12.1209 35.5355 11.9764 35.3558 11.7915C35.1787 11.604 35.042 11.3866 34.9456 11.1392C34.8519 10.8892 34.805 10.6209 34.805 10.3345V10.1782C34.805 9.8527 34.8519 9.55713 34.9456 9.2915C35.0394 9.02327 35.1722 8.79281 35.3441 8.6001C35.5159 8.40739 35.7217 8.25895 35.9613 8.15479C36.2008 8.05062 36.4652 7.99854 36.7542 7.99854C37.0537 7.99854 37.318 8.04932 37.5472 8.15088C37.7764 8.24984 37.9678 8.39046 38.1214 8.57275C38.2751 8.75505 38.3909 8.9738 38.4691 9.229C38.5472 9.48161 38.5863 9.76156 38.5863 10.0688V10.5024H35.2738V9.7915H37.5706V9.71338C37.5654 9.54932 37.5342 9.39958 37.4769 9.26416C37.4196 9.12614 37.331 9.01676 37.2113 8.93604C37.0915 8.8527 36.9365 8.81104 36.7464 8.81104C36.5928 8.81104 36.4586 8.84489 36.3441 8.9126C36.2321 8.9777 36.1383 9.07145 36.0628 9.19385C35.9899 9.31364 35.9352 9.45687 35.8988 9.62354C35.8623 9.7902 35.8441 9.9751 35.8441 10.1782V10.3345C35.8441 10.5116 35.8675 10.6756 35.9144 10.8267C35.9639 10.9777 36.0355 11.1092 36.1292 11.2212C36.2256 11.3306 36.3402 11.4165 36.473 11.479C36.6084 11.5389 36.762 11.5688 36.9339 11.5688C37.1501 11.5688 37.3454 11.5272 37.5198 11.4438C37.6969 11.3579 37.8506 11.2316 37.9808 11.0649L38.5003 11.604C38.4118 11.7342 38.292 11.8592 38.1409 11.979C37.9925 12.0988 37.8128 12.1965 37.6019 12.272C37.3909 12.3449 37.1474 12.3813 36.8714 12.3813ZM41.1977 8.07666V8.81885H38.7758V8.07666H41.1977ZM39.4242 7.0376H40.4594V11.0845C40.4594 11.2095 40.4763 11.3058 40.5102 11.3735C40.544 11.4412 40.5948 11.4868 40.6625 11.5103C40.7302 11.5337 40.8109 11.5454 40.9047 11.5454C40.9724 11.5454 41.0349 11.5415 41.0922 11.5337C41.1495 11.5259 41.1977 11.5181 41.2367 11.5103L41.2406 12.2837C41.1547 12.3123 41.057 12.3358 40.9477 12.354C40.8409 12.3722 40.7198 12.3813 40.5844 12.3813C40.3526 12.3813 40.1495 12.3423 39.975 12.2642C39.8005 12.1834 39.6651 12.0545 39.5688 11.8774C39.4724 11.6978 39.4242 11.4608 39.4242 11.1665V7.0376ZM43.0434 11.8345L44.1763 8.07666H45.2817L43.5864 12.9438C43.5473 13.048 43.4966 13.1613 43.4341 13.2837C43.3742 13.4061 43.2934 13.522 43.1919 13.6313C43.0903 13.7433 42.9627 13.8345 42.8091 13.9048C42.658 13.9751 42.4744 14.0103 42.2583 14.0103C42.1645 14.0103 42.0812 14.0037 42.0083 13.9907C41.9354 13.9777 41.8585 13.9608 41.7778 13.9399V13.1665C41.8039 13.1691 41.8338 13.1704 41.8677 13.1704C41.9041 13.173 41.9354 13.1743 41.9614 13.1743C42.1124 13.1743 42.2374 13.1561 42.3364 13.1196C42.4354 13.0858 42.5148 13.0298 42.5747 12.9517C42.6372 12.8761 42.6893 12.7772 42.7309 12.6548L43.0434 11.8345ZM42.4848 8.07666L43.4419 11.1899L43.6098 12.2798L42.8989 12.4087L41.3716 8.07666H42.4848ZM47.61 6.30322H48.6452V11.3696L48.5436 12.3032H47.61V6.30322ZM51.3639 10.147V10.229C51.3639 10.5441 51.3288 10.8332 51.2584 11.0962C51.1907 11.3592 51.0879 11.5871 50.9498 11.7798C50.8118 11.9699 50.6399 12.1183 50.4342 12.2251C50.2311 12.3293 49.9928 12.3813 49.7194 12.3813C49.459 12.3813 49.2324 12.3306 49.0397 12.229C48.8496 12.1274 48.6894 11.9842 48.5592 11.7993C48.429 11.6118 48.3248 11.3918 48.2467 11.1392C48.1686 10.884 48.11 10.6053 48.0709 10.3032V10.0806C48.11 9.77588 48.1686 9.49723 48.2467 9.24463C48.3248 8.99202 48.429 8.77197 48.5592 8.58447C48.6894 8.39697 48.8496 8.25244 49.0397 8.15088C49.2298 8.04932 49.4538 7.99854 49.7116 7.99854C49.9876 7.99854 50.2285 8.05192 50.4342 8.15869C50.6426 8.26286 50.8144 8.4113 50.9498 8.604C51.0879 8.79411 51.1907 9.02067 51.2584 9.28369C51.3288 9.54411 51.3639 9.83187 51.3639 10.147ZM50.3288 10.229V10.147C50.3288 9.96729 50.3144 9.79801 50.2858 9.63916C50.2571 9.4777 50.2103 9.33577 50.1452 9.21338C50.0801 9.09098 49.9915 8.99463 49.8795 8.92432C49.7676 8.854 49.6269 8.81885 49.4577 8.81885C49.2962 8.81885 49.1582 8.84619 49.0436 8.90088C48.9316 8.95557 48.8379 9.03109 48.7623 9.12744C48.6894 9.2238 48.6321 9.33708 48.5905 9.46729C48.5514 9.59749 48.5254 9.73812 48.5123 9.88916V10.4985C48.5306 10.6991 48.5735 10.88 48.6413 11.0415C48.709 11.2004 48.8092 11.3267 48.942 11.4204C49.0774 11.5142 49.2519 11.561 49.4655 11.561C49.6321 11.561 49.7715 11.5285 49.8834 11.4634C49.9954 11.3957 50.084 11.3019 50.1491 11.1821C50.2142 11.0597 50.2597 10.9178 50.2858 10.7563C50.3144 10.5949 50.3288 10.4191 50.3288 10.229ZM54.362 11.4048V9.45557C54.362 9.31234 54.3373 9.18864 54.2878 9.08447C54.2383 8.98031 54.1628 8.89958 54.0613 8.84229C53.9597 8.78499 53.8308 8.75635 53.6745 8.75635C53.5365 8.75635 53.4154 8.77979 53.3113 8.82666C53.2097 8.87354 53.1316 8.93994 53.0769 9.02588C53.0222 9.10921 52.9948 9.20557 52.9948 9.31494H51.9597C51.9597 9.14046 52.0014 8.9751 52.0847 8.81885C52.168 8.65999 52.2865 8.51937 52.4402 8.39697C52.5964 8.27197 52.7826 8.17432 52.9988 8.104C53.2175 8.03369 53.4623 7.99854 53.7331 7.99854C54.0534 7.99854 54.3386 8.05322 54.5886 8.1626C54.8412 8.26937 55.0391 8.43083 55.1823 8.64697C55.3282 8.86312 55.4011 9.13525 55.4011 9.46338V11.3071C55.4011 11.5181 55.4141 11.6991 55.4402 11.8501C55.4688 11.9985 55.5105 12.1274 55.5652 12.2368V12.3032H54.5144C54.4649 12.1965 54.4271 12.061 54.4011 11.897C54.3751 11.7303 54.362 11.5662 54.362 11.4048ZM54.5066 9.729L54.5144 10.3423H53.862C53.7006 10.3423 53.5586 10.3592 53.4363 10.3931C53.3139 10.4243 53.2136 10.4712 53.1355 10.5337C53.0573 10.5936 52.9988 10.6665 52.9597 10.7524C52.9206 10.8358 52.9011 10.9308 52.9011 11.0376C52.9011 11.1418 52.9245 11.2355 52.9714 11.3188C53.0209 11.4022 53.0912 11.4686 53.1823 11.5181C53.2761 11.5649 53.3855 11.5884 53.5105 11.5884C53.6928 11.5884 53.8516 11.5519 53.987 11.479C54.1224 11.4035 54.2279 11.3123 54.3034 11.2056C54.379 11.0988 54.4193 10.9972 54.4245 10.9009L54.7214 11.3462C54.6849 11.453 54.6303 11.5662 54.5573 11.686C54.4844 11.8058 54.3907 11.9178 54.2761 12.022C54.1615 12.1261 54.0235 12.2121 53.862 12.2798C53.7006 12.3475 53.5131 12.3813 53.2995 12.3813C53.0261 12.3813 52.7813 12.3267 52.5652 12.2173C52.349 12.1079 52.1784 11.9582 52.0534 11.7681C51.9284 11.578 51.8659 11.3618 51.8659 11.1196C51.8659 10.8957 51.9076 10.6978 51.9909 10.5259C52.0743 10.354 52.198 10.2095 52.362 10.0923C52.5261 9.97249 52.7292 9.88265 52.9714 9.82275C53.2162 9.76025 53.4961 9.729 53.8113 9.729H54.5066ZM58.2508 8.07666V8.81885H55.8289V8.07666H58.2508ZM56.4773 7.0376H57.5125V11.0845C57.5125 11.2095 57.5294 11.3058 57.5633 11.3735C57.5971 11.4412 57.6479 11.4868 57.7156 11.5103C57.7833 11.5337 57.8641 11.5454 57.9578 11.5454C58.0255 11.5454 58.088 11.5415 58.1453 11.5337C58.2026 11.5259 58.2508 11.5181 58.2898 11.5103L58.2938 12.2837C58.2078 12.3123 58.1102 12.3358 58.0008 12.354C57.894 12.3722 57.7729 12.3813 57.6375 12.3813C57.4057 12.3813 57.2026 12.3423 57.0281 12.2642C56.8536 12.1834 56.7182 12.0545 56.6219 11.8774C56.5255 11.6978 56.4773 11.4608 56.4773 11.1665V7.0376ZM60.5927 11.5688C60.7385 11.5688 60.8687 11.5402 60.9833 11.4829C61.0979 11.4256 61.189 11.3449 61.2567 11.2407C61.327 11.1366 61.3648 11.0155 61.37 10.8774H62.3427C62.3374 11.1639 62.2567 11.4204 62.1005 11.647C61.9442 11.8735 61.7359 12.0532 61.4755 12.186C61.2177 12.3162 60.9286 12.3813 60.6083 12.3813C60.2828 12.3813 59.9989 12.3267 59.7567 12.2173C59.5145 12.1079 59.3127 11.9556 59.1512 11.7603C58.9924 11.5649 58.8726 11.3384 58.7919 11.0806C58.7137 10.8228 58.6747 10.5467 58.6747 10.2524V10.1274C58.6747 9.83317 58.7137 9.55713 58.7919 9.29932C58.8726 9.0415 58.9924 8.81494 59.1512 8.61963C59.3127 8.42432 59.5145 8.27197 59.7567 8.1626C59.9989 8.05322 60.2815 7.99854 60.6044 7.99854C60.9455 7.99854 61.245 8.06494 61.5028 8.19775C61.7632 8.33057 61.9664 8.51807 62.1122 8.76025C62.2606 9.00244 62.3374 9.2876 62.3427 9.61572H61.37C61.3648 9.46468 61.3309 9.32926 61.2684 9.20947C61.2059 9.08968 61.1174 8.99333 61.0028 8.92041C60.8882 8.84749 60.7489 8.81104 60.5848 8.81104C60.4104 8.81104 60.2645 8.84749 60.1473 8.92041C60.0328 8.99333 59.9429 9.09359 59.8778 9.22119C59.8153 9.34619 59.771 9.48682 59.745 9.64307C59.7216 9.79671 59.7098 9.95817 59.7098 10.1274V10.2524C59.7098 10.4243 59.7216 10.5884 59.745 10.7446C59.771 10.9009 59.8153 11.0415 59.8778 11.1665C59.9429 11.2889 60.0328 11.3866 60.1473 11.4595C60.2645 11.5324 60.413 11.5688 60.5927 11.5688ZM63.9619 6.30322V12.3032H62.9267V6.30322H63.9619ZM63.7978 10.0376H63.4931C63.4931 9.74333 63.5322 9.47249 63.6103 9.2251C63.6884 8.9777 63.7991 8.76286 63.9423 8.58057C64.0856 8.39567 64.2561 8.25244 64.4541 8.15088C64.6546 8.04932 64.8759 7.99854 65.1181 7.99854C65.3265 7.99854 65.5153 8.02848 65.6845 8.08838C65.8564 8.14567 66.0035 8.23812 66.1259 8.36572C66.2483 8.49333 66.3421 8.65999 66.4072 8.86572C66.4749 9.06885 66.5088 9.31624 66.5088 9.60791V12.3032H65.4697V9.6001C65.4697 9.40479 65.441 9.25114 65.3838 9.13916C65.3265 9.02458 65.2444 8.94255 65.1377 8.89307C65.0335 8.84359 64.9046 8.81885 64.7509 8.81885C64.5843 8.81885 64.441 8.8514 64.3213 8.9165C64.2015 8.979 64.1025 9.06624 64.0244 9.17822C63.9489 9.2902 63.8916 9.41911 63.8525 9.56494C63.816 9.71077 63.7978 9.86833 63.7978 10.0376Z" fill="white"/>
<defs>
<filter id="filter0_d_1723_872" x="0" y="0.00012207" width="88.749" height="28.8834" filterUnits="userSpaceOnUse" color-interpolation-filters="sRGB">
<feFlood flood-opacity="0" result="BackgroundImageFix"/>
<feColorMatrix in="SourceAlpha" type="matrix" values="0 0 0 0 0 0 0 0 0 0 0 0 0 0 0 0 0 0 127 0" result="hardAlpha"/>
<feOffset dy="4"/>
<feGaussianBlur stdDeviation="2"/>
<feComposite in2="hardAlpha" operator="out"/>
<feColorMatrix type="matrix" values="0 0 0 0 0 0 0 0 0 0 0 0 0 0 0 0 0 0 0.25 0"/>
<feBlend mode="normal" in2="BackgroundImageFix" result="effect1_dropShadow_1723_872"/>
<feBlend mode="normal" in="SourceGraphic" in2="effect1_dropShadow_1723_872" result="shape"/>
</filter>
</defs>
</svg>
