<svg width="29" height="29" viewBox="0 0 29 29" fill="none" xmlns="http://www.w3.org/2000/svg">
<path d="M28.1236 19.4759H27.4178V13.5908C27.4178 12.8994 27.1928 12.2352 26.7957 11.7452L22.3885 6.30652C21.9915 5.81654 21.4533 5.53889 20.893 5.53889H18.9475V2.9257C18.9475 1.48299 17.999 0.3125 16.8299 0.3125H2.71278C1.54371 0.3125 0.595215 1.48299 0.595215 2.9257V20.347C0.595215 21.7897 1.54371 22.9602 2.71278 22.9602H3.41864C3.41864 25.8456 5.31563 28.1866 7.65378 28.1866C9.99193 28.1866 11.8889 25.8456 11.8889 22.9602H17.5358C17.5358 25.8456 19.4328 28.1866 21.7709 28.1866C24.1091 28.1866 26.006 25.8456 26.006 22.9602H28.1236C28.5118 22.9602 28.8295 22.5682 28.8295 22.0891V20.347C28.8295 19.8679 28.5118 19.4759 28.1236 19.4759ZM7.65378 25.5734C6.4847 25.5734 5.53621 24.4029 5.53621 22.9602C5.53621 21.5175 6.4847 20.347 7.65378 20.347C8.82285 20.347 9.77135 21.5175 9.77135 22.9602C9.77135 24.4029 8.82285 25.5734 7.65378 25.5734ZM21.7709 25.5734C20.6018 25.5734 19.6533 24.4029 19.6533 22.9602C19.6533 21.5175 20.6018 20.347 21.7709 20.347C22.94 20.347 23.8885 21.5175 23.8885 22.9602C23.8885 24.4029 22.94 25.5734 21.7709 25.5734ZM25.3002 14.2495H18.9475V8.15209H20.893L25.3002 13.5908V14.2495Z" fill="#B7A643"/>
</svg>
