<svg width="29" height="32" viewBox="0 0 29 32" fill="none" xmlns="http://www.w3.org/2000/svg">
<path d="M18.8668 8.12382C18.8668 7.74273 18.7442 7.37373 18.5237 7.10153L13.7248 1.17344C13.5042 0.901227 13.2052 0.75 12.8915 0.75H12.5925V8.49281H18.8668V8.12382ZM28.0331 19.3811L23.3421 13.5498C22.847 12.9389 21.999 13.3684 21.999 14.2334V18.1713H18.8619V22.0427H21.999V25.9867C21.999 26.8517 22.847 27.2812 23.3421 26.6703L28.0331 20.8329C28.3566 20.4337 28.3566 19.7804 28.0331 19.3811ZM9.45537 21.0749V19.1392C9.45537 18.6069 9.80829 18.1713 10.2397 18.1713H18.8668V10.4285H12.2004C11.5533 10.4285 11.0239 9.77522 11.0239 8.97674V0.75H1.22037C0.568436 0.75 0.0439453 1.39725 0.0439453 2.20178V30.2695C0.0439453 31.074 0.568436 31.7213 1.22037 31.7213H17.6904C18.3423 31.7213 18.8668 31.074 18.8668 30.2695V22.0427H10.2397C9.80829 22.0427 9.45537 21.6072 9.45537 21.0749Z" fill="#BEC168"/>
</svg>
