<svg width="29" height="32" viewBox="0 0 29 32" fill="none" xmlns="http://www.w3.org/2000/svg">
<path d="M18.9478 7.62382C18.9478 7.24273 18.8253 6.87373 18.6047 6.60153L13.8059 0.673435C13.5853 0.401227 13.2863 0.25 12.9726 0.25H12.6736V7.99281H18.9478V7.62382ZM28.1142 18.8811L23.4232 13.0498C22.9281 12.4389 22.0801 12.8684 22.0801 13.7334V17.6713H18.9429V21.5427H22.0801V25.4867C22.0801 26.3517 22.9281 26.7812 23.4232 26.1703L28.1142 20.3329C28.4377 19.9337 28.4377 19.2804 28.1142 18.8811ZM9.53642 20.5749V18.6392C9.53642 18.1069 9.88935 17.6713 10.3207 17.6713H18.9478V9.92852H12.2814C11.6344 9.92852 11.105 9.27522 11.105 8.47674V0.25H1.30143C0.649491 0.25 0.125 0.897251 0.125 1.70178V29.7695C0.125 30.574 0.649491 31.2213 1.30143 31.2213H17.7714C18.4234 31.2213 18.9478 30.574 18.9478 29.7695V21.5427H10.3207C9.88935 21.5427 9.53642 21.1072 9.53642 20.5749Z" fill="#BEC168"/>
</svg>
