<svg width="15" height="17" viewBox="0 0 15 17" fill="none" xmlns="http://www.w3.org/2000/svg">
<path d="M8.75 4.51562V0H0.9375C0.417969 0 0 0.355273 0 0.796875V16.2031C0 16.6447 0.417969 17 0.9375 17H14.0625C14.582 17 15 16.6447 15 16.2031V5.3125H9.6875C9.17188 5.3125 8.75 4.95391 8.75 4.51562ZM11.2961 11.6878H8.75V14.3441C8.75 14.6376 8.47031 14.8753 8.125 14.8753H6.875C6.52969 14.8753 6.25 14.6376 6.25 14.3441V11.6878H3.70391C3.14609 11.6878 2.86758 11.1137 3.26367 10.7794L7.03008 7.60186C7.28984 7.38238 7.70937 7.38238 7.96914 7.60186L11.7355 10.7794C12.132 11.1137 11.8539 11.6878 11.2961 11.6878ZM14.7266 3.48633L10.9023 0.232422C10.7266 0.0830078 10.4883 0 10.2383 0H10V4.25H15V4.04746C15 3.83828 14.9023 3.63574 14.7266 3.48633Z" fill="white"/>
</svg>
