<svg width="25" height="36" viewBox="0 0 25 36" fill="none" xmlns="http://www.w3.org/2000/svg">
<path d="M24.1534 11.2795H0.771851C0.406403 11.2795 0.110107 10.9139 0.110107 10.4629V8.01298C0.110107 6.20891 1.29518 4.74647 2.75708 4.74647H5.40405V1.20774C5.40405 0.756759 5.70035 0.391113 6.0658 0.391113H8.27161C8.63705 0.391113 8.93335 0.756759 8.93335 1.20774V4.74647H15.9919V1.20774C15.9919 0.756759 16.2882 0.391113 16.6537 0.391113H18.8595C19.2249 0.391113 19.5212 0.756759 19.5212 1.20774V4.74647H22.1682C23.6301 4.74647 24.8152 6.20891 24.8152 8.01298V10.4629C24.8152 10.9139 24.5189 11.2795 24.1534 11.2795ZM0.771851 13.4572H24.1534C24.5189 13.4572 24.8152 13.8228 24.8152 14.2738V31.9674C24.8152 33.7715 23.6301 35.2339 22.1682 35.2339H2.75708C1.29518 35.2339 0.110107 33.7715 0.110107 31.9674V14.2738C0.110107 13.8228 0.406403 13.4572 0.771851 13.4572ZM19.1515 19.9866L17.5982 18.054C17.3408 17.7339 16.9218 17.7318 16.6623 18.0494L10.8149 25.2074L8.27933 22.0531C8.02196 21.7329 7.60292 21.7308 7.34346 22.0485L5.7775 23.9655C5.51804 24.2831 5.51633 24.8002 5.77375 25.1203L10.3288 30.787C10.5862 31.1072 11.0052 31.1093 11.2646 30.7916L19.1478 21.1414C19.4073 20.8238 19.409 20.3068 19.1515 19.9866Z" fill="#B7A643"/>
</svg>
