<svg width="29" height="32" viewBox="0 0 29 32" fill="none" xmlns="http://www.w3.org/2000/svg">
<path d="M19.1598 8.12382C19.1598 7.74273 19.0372 7.37373 18.8166 7.10153L14.0178 1.17344C13.7972 0.901227 13.4982 0.75 13.1845 0.75H12.8855V8.49281H19.1598V8.12382ZM28.3261 19.3811L23.6351 13.5498C23.14 12.9389 22.292 13.3684 22.292 14.2334V18.1713H19.1549V22.0427H22.292V25.9867C22.292 26.8517 23.14 27.2812 23.6351 26.6703L28.3261 20.8329C28.6496 20.4337 28.6496 19.7804 28.3261 19.3811ZM9.74833 21.0749V19.1392C9.74833 18.6069 10.1013 18.1713 10.5326 18.1713H19.1598V10.4285H12.4933C11.8463 10.4285 11.3169 9.77522 11.3169 8.97674V0.75H1.51334C0.861405 0.75 0.336914 1.39725 0.336914 2.20178V30.2695C0.336914 31.074 0.861405 31.7213 1.51334 31.7213H17.9833C18.6353 31.7213 19.1598 31.074 19.1598 30.2695V22.0427H10.5326C10.1013 22.0427 9.74833 21.6072 9.74833 21.0749Z" fill="#BEC168"/>
</svg>
