<svg width="106" height="24" viewBox="0 0 106 24" fill="none" xmlns="http://www.w3.org/2000/svg">
<rect x="1.57544" y="1.47681" width="102.521" height="21.0437" rx="4" fill="#2E4324" stroke="url(#paint0_linear_1723_1880)" stroke-width="2"/>
<path d="M1.65332 3.62915C1.65332 2.52458 2.54875 1.62915 3.65332 1.62915H21.049V22.3685H3.65332C2.54875 22.3685 1.65332 21.473 1.65332 20.3685V3.62915Z" fill="#23351B"/>
<path d="M27.3538 14.8792L29.8674 7.64282H31.092L27.9338 16.1741H27.0608L27.3538 14.8792ZM25.0042 7.64282L27.4944 14.8792L27.8049 16.1741H26.9319L23.7795 7.64282H25.0042ZM33.4534 7.64282V16.1741H32.3225V7.64282H33.4534ZM40.9299 15.2542V16.1741H36.4124V15.2542H40.9299ZM36.6409 7.64282V16.1741H35.51V7.64282H36.6409ZM40.3323 11.3108V12.2307H36.4124V11.3108H40.3323ZM40.8713 7.64282V8.5686H36.4124V7.64282H40.8713ZM44.5745 13.5959L46.2678 7.64282H47.0881L46.6135 9.95728L44.7913 16.1741H43.9768L44.5745 13.5959ZM42.8225 7.64282L44.1702 13.4788L44.5745 16.1741H43.7659L41.6975 7.64282H42.8225ZM49.2795 13.4729L50.5979 7.64282H51.7288L49.6663 16.1741H48.8577L49.2795 13.4729ZM47.2112 7.64282L48.8577 13.5959L49.4553 16.1741H48.6409L46.8831 9.95728L46.4026 7.64282H47.2112ZM62.5276 11.6389V12.178C62.5276 12.8186 62.4475 13.3928 62.2874 13.9006C62.1272 14.4084 61.8967 14.8401 61.5959 15.1956C61.2952 15.551 60.9338 15.8225 60.512 16.01C60.094 16.1975 59.6252 16.2913 59.1057 16.2913C58.6018 16.2913 58.1389 16.1975 57.717 16.01C57.2991 15.8225 56.9358 15.551 56.6272 15.1956C56.3225 14.8401 56.0862 14.4084 55.9182 13.9006C55.7502 13.3928 55.6663 12.8186 55.6663 12.178V11.6389C55.6663 10.9983 55.7483 10.426 55.9124 9.92212C56.0803 9.41431 56.3167 8.98267 56.6213 8.6272C56.926 8.26782 57.2874 7.99438 57.7053 7.80688C58.1272 7.61938 58.5901 7.52563 59.094 7.52563C59.6135 7.52563 60.0823 7.61938 60.5002 7.80688C60.9221 7.99438 61.2834 8.26782 61.5842 8.6272C61.8889 8.98267 62.1213 9.41431 62.2815 9.92212C62.4456 10.426 62.5276 10.9983 62.5276 11.6389ZM61.4084 12.178V11.6272C61.4084 11.1194 61.3557 10.6702 61.2502 10.2795C61.1487 9.88892 60.9983 9.56079 60.7991 9.29517C60.5999 9.02954 60.3557 8.82837 60.0667 8.69165C59.7815 8.55493 59.4573 8.48657 59.094 8.48657C58.7424 8.48657 58.4241 8.55493 58.1389 8.69165C57.8577 8.82837 57.6155 9.02954 57.4124 9.29517C57.2131 9.56079 57.0588 9.88892 56.9495 10.2795C56.8401 10.6702 56.7854 11.1194 56.7854 11.6272V12.178C56.7854 12.6897 56.8401 13.1428 56.9495 13.5374C57.0588 13.928 57.2151 14.2581 57.4182 14.5276C57.6252 14.7932 57.8694 14.9944 58.1506 15.1311C58.4358 15.2678 58.7542 15.3362 59.1057 15.3362C59.4729 15.3362 59.7991 15.2678 60.0842 15.1311C60.3694 14.9944 60.6096 14.7932 60.8049 14.5276C61.0042 14.2581 61.1545 13.928 61.2561 13.5374C61.3577 13.1428 61.4084 12.6897 61.4084 12.178ZM70.7834 7.64282V16.1741H69.6467L65.3518 9.59399V16.1741H64.2209V7.64282H65.3518L69.6643 14.2405V7.64282H70.7834ZM76.1213 7.64282H77.217L80.012 14.5979L82.801 7.64282H83.9026L80.4338 16.1741H79.5784L76.1213 7.64282ZM75.7639 7.64282H76.7307L76.8889 12.8459V16.1741H75.7639V7.64282ZM83.2874 7.64282H84.2542V16.1741H83.1292V12.8459L83.2874 7.64282ZM89.5042 8.39868L86.6799 16.1741H85.5256L88.7776 7.64282H89.5217L89.5042 8.39868ZM91.8713 16.1741L89.0413 8.39868L89.0237 7.64282H89.7678L93.0315 16.1741H91.8713ZM91.7249 13.0159V13.9417H86.9319V13.0159H91.7249ZM97.3206 12.8284H95.0413V11.9084H97.3206C97.762 11.9084 98.1194 11.8381 98.3928 11.6975C98.6663 11.5569 98.8655 11.3616 98.9905 11.1116C99.1194 10.8616 99.1838 10.5764 99.1838 10.2561C99.1838 9.96313 99.1194 9.68774 98.9905 9.42993C98.8655 9.17212 98.6663 8.96509 98.3928 8.80884C98.1194 8.64868 97.762 8.5686 97.3206 8.5686H95.3049V16.1741H94.1741V7.64282H97.3206C97.9651 7.64282 98.51 7.75415 98.9553 7.97681C99.4006 8.19946 99.7385 8.50806 99.969 8.90259C100.199 9.29321 100.315 9.74048 100.315 10.2444C100.315 10.7913 100.199 11.2581 99.969 11.6448C99.7385 12.0315 99.4006 12.3264 98.9553 12.5295C98.51 12.7288 97.9651 12.8284 97.3206 12.8284Z" fill="url(#paint1_linear_1723_1880)"/>
<path d="M9.4353 7.51831H8.23804C7.9205 7.51831 7.61597 7.65319 7.39144 7.89327C7.16691 8.13336 7.04077 8.45898 7.04077 8.79851V16.4797C7.04077 16.8193 7.16691 17.1449 7.39144 17.385C7.61597 17.6251 7.9205 17.7599 8.23804 17.7599H14.2244C14.5419 17.7599 14.8464 17.6251 15.071 17.385C15.2955 17.1449 15.4216 16.8193 15.4216 16.4797V8.79851C15.4216 8.45898 15.2955 8.13336 15.071 7.89327C14.8464 7.65319 14.5419 7.51831 14.2244 7.51831H13.0271" stroke="url(#paint2_linear_1723_1880)" stroke-width="1.7" stroke-linecap="round" stroke-linejoin="round"/>
<path d="M11.8298 6.23804H10.6326C9.97134 6.23804 9.4353 6.8112 9.4353 7.51824C9.4353 8.22528 9.97134 8.79844 10.6326 8.79844H11.8298C12.4911 8.79844 13.0271 8.22528 13.0271 7.51824C13.0271 6.8112 12.4911 6.23804 11.8298 6.23804Z" stroke="url(#paint3_linear_1723_1880)" stroke-width="1.7" stroke-linecap="round" stroke-linejoin="round"/>
<path d="M9.4353 15.1993V11.9988" stroke="url(#paint4_linear_1723_1880)" stroke-width="1.7" stroke-linecap="round" stroke-linejoin="round"/>
<path d="M11.2307 15.1994V14.5593" stroke="url(#paint5_linear_1723_1880)" stroke-width="1.7" stroke-linecap="round" stroke-linejoin="round"/>
<path d="M13.0276 15.1994V13.2791" stroke="url(#paint6_linear_1723_1880)" stroke-width="1.7" stroke-linecap="round" stroke-linejoin="round"/>
<defs>
<linearGradient id="paint0_linear_1723_1880" x1="105.097" y1="11.9986" x2="0.575439" y2="11.9986" gradientUnits="userSpaceOnUse">
<stop stop-color="#9BFF99"/>
<stop offset="1" stop-color="#22941F"/>
</linearGradient>
<linearGradient id="paint1_linear_1723_1880" x1="63.8532" y1="5.17407" x2="63.8532" y2="21.3046" gradientUnits="userSpaceOnUse">
<stop stop-color="#23D220"/>
<stop offset="0.510417" stop-color="#8DFF8B"/>
<stop offset="1" stop-color="#03A600" stop-opacity="0"/>
</linearGradient>
<linearGradient id="paint2_linear_1723_1880" x1="11.2312" y1="7.51831" x2="11.2312" y2="17.7599" gradientUnits="userSpaceOnUse">
<stop stop-color="#7EE47B"/>
<stop offset="1" stop-color="#36A533"/>
</linearGradient>
<linearGradient id="paint3_linear_1723_1880" x1="11.2312" y1="6.23804" x2="11.2312" y2="8.79844" gradientUnits="userSpaceOnUse">
<stop stop-color="#7EE47B"/>
<stop offset="1" stop-color="#36A533"/>
</linearGradient>
<linearGradient id="paint4_linear_1723_1880" x1="9.9353" y1="11.9988" x2="9.9353" y2="15.1993" gradientUnits="userSpaceOnUse">
<stop stop-color="#7EE47B"/>
<stop offset="1" stop-color="#36A533"/>
</linearGradient>
<linearGradient id="paint5_linear_1723_1880" x1="11.7307" y1="14.5593" x2="11.7307" y2="15.1994" gradientUnits="userSpaceOnUse">
<stop stop-color="#7EE47B"/>
<stop offset="1" stop-color="#36A533"/>
</linearGradient>
<linearGradient id="paint6_linear_1723_1880" x1="13.5276" y1="13.2791" x2="13.5276" y2="15.1994" gradientUnits="userSpaceOnUse">
<stop stop-color="#7EE47B"/>
<stop offset="1" stop-color="#36A533"/>
</linearGradient>
</defs>
</svg>
