<svg width="19" height="20" viewBox="0 0 19 20" fill="none" xmlns="http://www.w3.org/2000/svg">
<path d="M2 11.5011C2 12.3678 2.175 13.1884 2.525 13.9631C2.875 14.7384 3.375 15.4178 4.025 16.0011C4.00833 15.9178 4 15.8428 4 15.7761V15.5511C4 15.0178 4.1 14.5178 4.3 14.0511C4.5 13.5844 4.79167 13.1594 5.175 12.7761L8 10.0011L10.825 12.7761C11.2083 13.1594 11.5 13.5844 11.7 14.0511C11.9 14.5178 12 15.0178 12 15.5511V15.7761C12 15.8428 11.9917 15.9178 11.975 16.0011C12.625 15.4178 13.125 14.7384 13.475 13.9631C13.825 13.1884 14 12.3678 14 11.5011C14 10.6678 13.846 9.8801 13.538 9.1381C13.2293 8.39677 12.7833 7.73443 12.2 7.1511C11.8667 7.36776 11.5167 7.5301 11.15 7.6381C10.7833 7.74677 10.4083 7.8011 10.025 7.8011C8.99167 7.8011 8.096 7.45943 7.338 6.7761C6.57933 6.09276 6.14167 5.2511 6.025 4.2511C5.375 4.8011 4.8 5.37177 4.3 5.9631C3.8 6.5551 3.37933 7.1551 3.038 7.7631C2.696 8.37177 2.43767 8.99277 2.263 9.6261C2.08767 10.2594 2 10.8844 2 11.5011ZM8 12.8011L6.575 14.2011C6.39167 14.3844 6.25 14.5928 6.15 14.8261C6.05 15.0594 6 15.3011 6 15.5511C6 16.0844 6.196 16.5428 6.588 16.9261C6.97933 17.3094 7.45 17.5011 8 17.5011C8.55 17.5011 9.021 17.3094 9.413 16.9261C9.80433 16.5428 10 16.0844 10 15.5511C10 15.2844 9.95 15.0384 9.85 14.8131C9.75 14.5884 9.60833 14.3844 9.425 14.2011L8 12.8011ZM8 0.501099V3.8011C8 4.36777 8.196 4.84277 8.588 5.2261C8.97933 5.60943 9.45833 5.8011 10.025 5.8011C10.325 5.8011 10.6043 5.73877 10.863 5.6141C11.121 5.48877 11.35 5.3011 11.55 5.0511L12 4.5011C13.2333 5.2011 14.2083 6.1761 14.925 7.4261C15.6417 8.6761 16 10.0344 16 11.5011C16 13.7344 15.225 15.6261 13.675 17.1761C12.125 18.7261 10.2333 19.5011 8 19.5011C5.76667 19.5011 3.875 18.7261 2.325 17.1761C0.775 15.6261 0 13.7344 0 11.5011C0 9.3511 0.720667 7.30943 2.162 5.3761C3.604 3.44277 5.55 1.81777 8 0.501099ZM18 8.5011C17.7167 8.5011 17.4793 8.4051 17.288 8.2131C17.096 8.02177 17 7.78443 17 7.5011C17 7.21777 17.096 6.9801 17.288 6.7881C17.4793 6.59677 17.7167 6.5011 18 6.5011C18.2833 6.5011 18.5207 6.59677 18.712 6.7881C18.904 6.9801 19 7.21777 19 7.5011C19 7.78443 18.904 8.02177 18.712 8.2131C18.5207 8.4051 18.2833 8.5011 18 8.5011ZM17 5.5011V0.501099H19V5.5011H17Z" fill="#6751ED"/>
</svg>
