<svg width="18" height="20" viewBox="0 0 18 20" fill="none" xmlns="http://www.w3.org/2000/svg">
<path d="M2 20C1.45 20 0.979 19.8043 0.587 19.413C0.195667 19.021 0 18.55 0 18V13.45L2.75 10.325L4.175 11.75L2.175 14H15.825L13.875 11.8L15.3 10.375L18 13.45V18C18 18.55 17.8043 19.021 17.413 19.413C17.021 19.8043 16.55 20 16 20H2ZM2 18H16V16H2V18ZM7.625 12.375L4.1 8.84997C3.71667 8.46663 3.52933 7.99597 3.538 7.43797C3.546 6.8793 3.74167 6.4083 4.125 6.02497L9.025 1.12497C9.40833 0.741634 9.88333 0.541634 10.45 0.524967C11.0167 0.508301 11.4917 0.691634 11.875 1.07497L15.4 4.59997C15.7833 4.9833 15.9833 5.44997 16 5.99997C16.0167 6.54997 15.8333 7.01663 15.45 7.39997L10.45 12.4C10.0667 12.7833 9.596 12.9706 9.038 12.962C8.47933 12.954 8.00833 12.7583 7.625 12.375ZM14 6.02497L10.475 2.49997L5.525 7.44997L9.05 10.975L14 6.02497Z" fill="#6751ED"/>
</svg>
