<svg width="21" height="14" viewBox="0 0 21 14" fill="none" xmlns="http://www.w3.org/2000/svg">
<path d="M2.39524 13.5L0.995239 12.05L8.49524 4.55005L12.4952 8.55005L15.3952 5.30005C14.5452 4.30005 13.5452 3.50838 12.3952 2.92505C11.2452 2.34172 9.97857 2.05005 8.59524 2.05005C7.41191 2.05005 6.29524 2.27105 5.24524 2.71305C4.19524 3.15438 3.24524 3.75005 2.39524 4.50005L0.995239 3.05005C2.02857 2.11672 3.18691 1.38338 4.47024 0.850049C5.75357 0.316715 7.12857 0.0500488 8.59524 0.0500488C10.2286 0.0500488 11.7369 0.379049 13.1202 1.03705C14.5036 1.69572 15.7119 2.61672 16.7452 3.80005L19.5952 0.550049L20.9952 2.00005L17.9952 5.40005C18.5452 6.28338 18.9912 7.24171 19.3332 8.27505C19.6746 9.30838 19.8952 10.4 19.9952 11.55H17.9952C17.8952 10.7167 17.7246 9.92072 17.4832 9.16205C17.2412 8.40405 16.9286 7.68338 16.5452 7.00005L12.5952 11.45L8.49524 7.40005L2.39524 13.5Z" fill="#6751ED"/>
</svg>
