<svg width="394" height="48" viewBox="0 0 394 48" fill="none" xmlns="http://www.w3.org/2000/svg">
<rect y="0.501099" width="394" height="47" rx="20" fill="#F0EEFC"/>
<path d="M28.4716 16.5636C28.4186 16.0674 28.1951 15.681 27.8011 15.4045C27.411 15.128 26.9034 14.9897 26.2784 14.9897C25.839 14.9897 25.4621 15.056 25.1477 15.1886C24.8333 15.3212 24.5928 15.5011 24.4261 15.7284C24.2595 15.9556 24.1742 16.2151 24.1705 16.5068C24.1705 16.7492 24.2254 16.9594 24.3352 17.1375C24.4489 17.3155 24.6023 17.467 24.7955 17.592C24.9886 17.7132 25.2027 17.8155 25.4375 17.8988C25.6723 17.9822 25.9091 18.0522 26.1477 18.1091L27.2386 18.3818C27.678 18.4841 28.1004 18.6223 28.5057 18.7966C28.9148 18.9708 29.2803 19.1905 29.6023 19.4556C29.928 19.7208 30.1856 20.0409 30.375 20.4159C30.5644 20.7909 30.6591 21.2303 30.6591 21.7341C30.6591 22.4159 30.4848 23.0163 30.1364 23.5352C29.7879 24.0503 29.2841 24.4538 28.625 24.7454C27.9697 25.0333 27.1761 25.1772 26.2443 25.1772C25.339 25.1772 24.553 25.0371 23.8864 24.7568C23.2235 24.4765 22.7045 24.0674 22.3295 23.5295C21.9583 22.9916 21.7576 22.3363 21.7273 21.5636H23.8011C23.8314 21.9689 23.9564 22.306 24.1761 22.575C24.3958 22.8439 24.6818 23.0447 25.0341 23.1772C25.3902 23.3098 25.7879 23.3761 26.2273 23.3761C26.6856 23.3761 27.0871 23.3079 27.4318 23.1716C27.7803 23.0314 28.053 22.8382 28.25 22.592C28.447 22.342 28.5473 22.0503 28.5511 21.717C28.5473 21.414 28.4583 21.164 28.2841 20.967C28.1098 20.7662 27.8655 20.5996 27.5511 20.467C27.2405 20.3306 26.8769 20.2094 26.4602 20.1034L25.1364 19.7625C24.178 19.5163 23.4205 19.1431 22.8636 18.6431C22.3106 18.1394 22.0341 17.4708 22.0341 16.6375C22.0341 15.9519 22.2197 15.3515 22.5909 14.8363C22.9659 14.3212 23.4754 13.9216 24.1193 13.6375C24.7633 13.3496 25.4924 13.2056 26.3068 13.2056C27.1326 13.2056 27.8561 13.3496 28.4773 13.6375C29.1023 13.9216 29.5928 14.3174 29.9489 14.825C30.3049 15.3287 30.4886 15.9083 30.5 16.5636H28.4716ZM36.3111 25.1716C35.4361 25.1716 34.6804 24.9897 34.044 24.6261C33.4115 24.2587 32.9247 23.7397 32.5838 23.0693C32.2429 22.395 32.0724 21.6015 32.0724 20.6886C32.0724 19.7909 32.2429 19.003 32.5838 18.325C32.9285 17.6431 33.4096 17.1128 34.027 16.7341C34.6444 16.3515 35.3698 16.1602 36.2031 16.1602C36.741 16.1602 37.2486 16.2473 37.7259 16.4216C38.2069 16.592 38.6312 16.8572 38.9986 17.217C39.3698 17.5769 39.6615 18.0352 39.8736 18.592C40.0857 19.145 40.1918 19.8041 40.1918 20.5693V21.2H33.0384V19.8136H38.2202C38.2164 19.4197 38.1312 19.0693 37.9645 18.7625C37.7978 18.4519 37.5649 18.2075 37.2656 18.0295C36.9702 17.8515 36.6255 17.7625 36.2315 17.7625C35.8111 17.7625 35.4418 17.8647 35.1236 18.0693C34.8054 18.27 34.5573 18.5352 34.3793 18.8647C34.205 19.1905 34.116 19.5484 34.1122 19.9386V21.1488C34.1122 21.6564 34.205 22.092 34.3906 22.4556C34.5762 22.8155 34.8357 23.092 35.169 23.2852C35.5024 23.4746 35.8925 23.5693 36.3395 23.5693C36.6387 23.5693 36.9096 23.5276 37.152 23.4443C37.3944 23.3572 37.6046 23.2303 37.7827 23.0636C37.9607 22.8969 38.0952 22.6905 38.1861 22.4443L40.1065 22.6602C39.9853 23.1678 39.7543 23.6109 39.4134 23.9897C39.0762 24.3647 38.6444 24.6564 38.1179 24.8647C37.5914 25.0693 36.9891 25.1716 36.3111 25.1716ZM44.4432 25.1772C43.8902 25.1772 43.392 25.0788 42.9489 24.8818C42.5095 24.681 42.161 24.3856 41.9034 23.9954C41.6496 23.6053 41.5227 23.1242 41.5227 22.5522C41.5227 22.0598 41.6136 21.6526 41.7955 21.3306C41.9773 21.0087 42.2254 20.7511 42.5398 20.5579C42.8542 20.3647 43.2083 20.2189 43.6023 20.1204C44 20.0181 44.411 19.9443 44.8352 19.8988C45.3466 19.8458 45.7614 19.7984 46.0795 19.7568C46.3977 19.7113 46.6288 19.6431 46.7727 19.5522C46.9205 19.4575 46.9943 19.3117 46.9943 19.1147V19.0806C46.9943 18.6526 46.8674 18.3212 46.6136 18.0863C46.3598 17.8515 45.9943 17.7341 45.517 17.7341C45.0133 17.7341 44.6136 17.8439 44.3182 18.0636C44.0265 18.2833 43.8295 18.5428 43.7273 18.842L41.8068 18.5693C41.9583 18.039 42.2083 17.5958 42.5568 17.2397C42.9053 16.8799 43.3314 16.6109 43.8352 16.4329C44.339 16.2511 44.8958 16.1602 45.5057 16.1602C45.9261 16.1602 46.3447 16.2094 46.7614 16.3079C47.178 16.4064 47.5587 16.5693 47.9034 16.7966C48.2481 17.02 48.5246 17.325 48.733 17.7113C48.9451 18.0977 49.0511 18.5806 49.0511 19.1602V25.0011H47.0739V23.8022H47.0057C46.8807 24.0447 46.7045 24.2719 46.4773 24.4841C46.2538 24.6924 45.9716 24.8609 45.6307 24.9897C45.2936 25.1147 44.8977 25.1772 44.4432 25.1772ZM44.9773 23.6659C45.3902 23.6659 45.7481 23.5844 46.0511 23.4216C46.3542 23.2549 46.5871 23.0352 46.75 22.7625C46.9167 22.4897 47 22.1924 47 21.8704V20.842C46.9356 20.895 46.8258 20.9443 46.6705 20.9897C46.5189 21.0352 46.3485 21.075 46.1591 21.1091C45.9697 21.1431 45.7822 21.1734 45.5966 21.2C45.411 21.2265 45.25 21.2492 45.1136 21.2681C44.8068 21.3098 44.5322 21.378 44.2898 21.4727C44.0473 21.5674 43.8561 21.7 43.7159 21.8704C43.5758 22.0371 43.5057 22.253 43.5057 22.5181C43.5057 22.8969 43.6439 23.1829 43.9205 23.3761C44.197 23.5693 44.5492 23.6659 44.9773 23.6659ZM51.1193 25.0011V16.2738H53.1136V17.7284H53.2045C53.3636 17.2246 53.6364 16.8363 54.0227 16.5636C54.4129 16.2871 54.858 16.1488 55.358 16.1488C55.4716 16.1488 55.5985 16.1545 55.7386 16.1659C55.8826 16.1734 56.0019 16.1867 56.0966 16.2056V18.0977C56.0095 18.0674 55.8712 18.0409 55.6818 18.0181C55.4962 17.9916 55.3163 17.9784 55.142 17.9784C54.767 17.9784 54.4299 18.0598 54.1307 18.2227C53.8352 18.3818 53.6023 18.6034 53.4318 18.8875C53.2614 19.1716 53.1761 19.4992 53.1761 19.8704V25.0011H51.1193ZM60.9105 25.1716C60.0393 25.1716 59.2912 24.9803 58.6662 24.5977C58.045 24.2151 57.5658 23.6867 57.2287 23.0125C56.8954 22.3344 56.7287 21.5541 56.7287 20.6716C56.7287 19.7852 56.8991 19.003 57.2401 18.325C57.581 17.6431 58.062 17.1128 58.6832 16.7341C59.3082 16.3515 60.0469 16.1602 60.8991 16.1602C61.6075 16.1602 62.2344 16.2909 62.7798 16.5522C63.3291 16.8098 63.7666 17.1753 64.0923 17.6488C64.4181 18.1185 64.6037 18.6678 64.6491 19.2966H62.6832C62.6037 18.8761 62.4143 18.5257 62.1151 18.2454C61.8196 17.9613 61.4238 17.8193 60.9276 17.8193C60.5071 17.8193 60.1378 17.9329 59.8196 18.1602C59.5014 18.3837 59.2533 18.7056 59.0753 19.1261C58.901 19.5466 58.8139 20.0503 58.8139 20.6375C58.8139 21.2322 58.901 21.7435 59.0753 22.1716C59.2495 22.5958 59.4938 22.9234 59.8082 23.1545C60.1264 23.3818 60.4995 23.4954 60.9276 23.4954C61.2306 23.4954 61.5014 23.4386 61.7401 23.325C61.9825 23.2075 62.1851 23.039 62.348 22.8193C62.5109 22.5996 62.6226 22.3325 62.6832 22.0181H64.6491C64.5999 22.6356 64.4181 23.1829 64.1037 23.6602C63.7893 24.1337 63.3613 24.5049 62.8196 24.7738C62.2779 25.039 61.6416 25.1716 60.9105 25.1716ZM68.3949 19.8875V25.0011H66.3381V13.3647H68.3494V17.7568H68.4517C68.6563 17.2644 68.9725 16.8761 69.4006 16.592C69.8324 16.3041 70.3816 16.1602 71.0483 16.1602C71.6544 16.1602 72.1828 16.2871 72.6335 16.5409C73.0843 16.7947 73.4328 17.1659 73.679 17.6545C73.929 18.1431 74.054 18.7397 74.054 19.4443V25.0011H71.9972V19.7625C71.9972 19.1753 71.8456 18.7189 71.5426 18.3931C71.2434 18.0636 70.8229 17.8988 70.2812 17.8988C69.9176 17.8988 69.5919 17.9784 69.304 18.1375C69.0199 18.2928 68.7964 18.5181 68.6335 18.8136C68.4744 19.1091 68.3949 19.467 68.3949 19.8875Z" fill="#FF6C88"/>
<g clip-path="url(#clip0_519_47932)">
<path d="M156.548 27.1033C158.243 24.791 159.002 21.9242 158.673 19.0763C158.345 16.2285 156.953 13.6097 154.777 11.7438C152.601 9.87795 149.8 8.90264 146.935 9.01302C144.071 9.1234 141.353 10.3113 139.327 12.3391C137.301 14.3669 136.115 17.0851 136.006 19.9497C135.898 22.8144 136.875 25.6144 138.743 27.7894C140.61 29.9645 143.23 31.3542 146.078 31.6806C148.926 32.007 151.793 31.246 154.104 29.5498H154.102C154.154 29.6198 154.21 29.6863 154.273 29.7511L161.011 36.4886C161.339 36.817 161.784 37.0015 162.248 37.0017C162.713 37.0019 163.158 36.8176 163.486 36.4895C163.815 36.1613 163.999 35.7162 163.999 35.252C164 34.7877 163.815 34.3425 163.487 34.0141L156.75 27.2766C156.687 27.2133 156.62 27.1548 156.548 27.1016V27.1033ZM157 20.3763C157 21.6403 156.751 22.8919 156.267 24.0597C155.784 25.2274 155.075 26.2885 154.181 27.1822C153.287 28.076 152.226 28.785 151.058 29.2687C149.89 29.7524 148.639 30.0013 147.375 30.0013C146.111 30.0013 144.859 29.7524 143.692 29.2687C142.524 28.785 141.463 28.076 140.569 27.1822C139.675 26.2885 138.966 25.2274 138.483 24.0597C137.999 22.8919 137.75 21.6403 137.75 20.3763C137.75 17.8236 138.764 15.3755 140.569 13.5704C142.374 11.7654 144.822 10.7513 147.375 10.7513C149.928 10.7513 152.376 11.7654 154.181 13.5704C155.986 15.3755 157 17.8236 157 20.3763Z" fill="#FF6C88"/>
</g>
<rect x="169" y="10.0011" width="3" height="28" rx="1.5" fill="#AB94DA"/>
<path d="M184.324 21.2113C184.278 20.753 184.083 20.3969 183.739 20.1431C183.394 19.8894 182.926 19.7625 182.335 19.7625C181.934 19.7625 181.595 19.8193 181.318 19.9329C181.042 20.0428 180.83 20.1962 180.682 20.3931C180.538 20.5901 180.466 20.8136 180.466 21.0636C180.458 21.2719 180.502 21.4538 180.597 21.6091C180.695 21.7644 180.83 21.8988 181 22.0125C181.17 22.1223 181.367 22.2189 181.591 22.3022C181.814 22.3818 182.053 22.45 182.307 22.5068L183.352 22.7568C183.86 22.8704 184.326 23.0219 184.75 23.2113C185.174 23.4007 185.542 23.6337 185.852 23.9102C186.163 24.1867 186.403 24.5125 186.574 24.8875C186.748 25.2625 186.837 25.6924 186.841 26.1772C186.837 26.8894 186.655 27.5068 186.295 28.0295C185.939 28.5484 185.424 28.9519 184.75 29.2397C184.08 29.5238 183.271 29.6659 182.324 29.6659C181.384 29.6659 180.566 29.5219 179.869 29.2341C179.176 28.9462 178.634 28.52 178.244 27.9556C177.858 27.3875 177.655 26.6848 177.636 25.8477H180.017C180.044 26.2378 180.155 26.5636 180.352 26.825C180.553 27.0825 180.82 27.2776 181.153 27.4102C181.491 27.539 181.871 27.6034 182.295 27.6034C182.712 27.6034 183.074 27.5428 183.381 27.4216C183.691 27.3003 183.932 27.1318 184.102 26.9159C184.273 26.7 184.358 26.4519 184.358 26.1716C184.358 25.9102 184.28 25.6905 184.125 25.5125C183.973 25.3344 183.75 25.1829 183.455 25.0579C183.163 24.9329 182.805 24.8193 182.381 24.717L181.114 24.3988C180.133 24.1602 179.358 23.7871 178.79 23.2795C178.222 22.7719 177.939 22.0882 177.943 21.2284C177.939 20.5238 178.127 19.9083 178.506 19.3818C178.888 18.8553 179.413 18.4443 180.08 18.1488C180.746 17.8534 181.504 17.7056 182.352 17.7056C183.216 17.7056 183.97 17.8534 184.614 18.1488C185.261 18.4443 185.765 18.8553 186.125 19.3818C186.485 19.9083 186.67 20.5181 186.682 21.2113H184.324ZM199.189 23.6829C199.189 24.9519 198.948 26.0314 198.467 26.9216C197.99 27.8117 197.339 28.4916 196.513 28.9613C195.691 29.4272 194.767 29.6602 193.74 29.6602C192.706 29.6602 191.778 29.4253 190.956 28.9556C190.134 28.4859 189.484 27.806 189.007 26.9159C188.53 26.0257 188.291 24.9481 188.291 23.6829C188.291 22.414 188.53 21.3344 189.007 20.4443C189.484 19.5541 190.134 18.8761 190.956 18.4102C191.778 17.9405 192.706 17.7056 193.74 17.7056C194.767 17.7056 195.691 17.9405 196.513 18.4102C197.339 18.8761 197.99 19.5541 198.467 20.4443C198.948 21.3344 199.189 22.414 199.189 23.6829ZM196.695 23.6829C196.695 22.8609 196.571 22.1678 196.325 21.6034C196.083 21.039 195.74 20.6109 195.297 20.3193C194.854 20.0276 194.335 19.8818 193.74 19.8818C193.145 19.8818 192.626 20.0276 192.183 20.3193C191.74 20.6109 191.395 21.039 191.149 21.6034C190.907 22.1678 190.786 22.8609 190.786 23.6829C190.786 24.5049 190.907 25.1981 191.149 25.7625C191.395 26.3269 191.74 26.7549 192.183 27.0466C192.626 27.3382 193.145 27.4841 193.74 27.4841C194.335 27.4841 194.854 27.3382 195.297 27.0466C195.74 26.7549 196.083 26.3269 196.325 25.7625C196.571 25.1981 196.695 24.5049 196.695 23.6829ZM201.011 29.5011V17.8647H205.602C206.481 17.8647 207.231 18.0219 207.852 18.3363C208.477 18.6469 208.953 19.0882 209.278 19.6602C209.608 20.2284 209.773 20.8969 209.773 21.6659C209.773 22.4386 209.606 23.1034 209.273 23.6602C208.939 24.2132 208.456 24.6375 207.824 24.9329C207.195 25.2284 206.434 25.3761 205.54 25.3761H202.466V23.3988H205.142C205.612 23.3988 206.002 23.3344 206.312 23.2056C206.623 23.0769 206.854 22.8837 207.006 22.6261C207.161 22.3685 207.239 22.0484 207.239 21.6659C207.239 21.2795 207.161 20.9537 207.006 20.6886C206.854 20.4234 206.621 20.2227 206.307 20.0863C205.996 19.9462 205.604 19.8761 205.131 19.8761H203.472V29.5011H201.011ZM207.295 24.2056L210.188 29.5011H207.472L204.642 24.2056H207.295ZM211.068 19.8931V17.8647H220.625V19.8931H217.062V29.5011H214.631V19.8931H211.068ZM225.902 29.5011V17.8647H230.561C231.417 17.8647 232.131 17.9916 232.703 18.2454C233.275 18.4992 233.705 18.8515 233.993 19.3022C234.281 19.7492 234.425 20.2644 234.425 20.8477C234.425 21.3022 234.334 21.7019 234.152 22.0466C233.97 22.3875 233.72 22.6678 233.402 22.8875C233.088 23.1034 232.728 23.2568 232.322 23.3477V23.4613C232.766 23.4803 233.18 23.6053 233.567 23.8363C233.957 24.0674 234.273 24.3912 234.516 24.8079C234.758 25.2208 234.879 25.7132 234.879 26.2852C234.879 26.9026 234.726 27.4538 234.419 27.9386C234.116 28.4197 233.667 28.8003 233.072 29.0806C232.478 29.3609 231.745 29.5011 230.874 29.5011H225.902ZM228.362 27.4897H230.368C231.054 27.4897 231.554 27.3591 231.868 27.0977C232.182 26.8325 232.339 26.4803 232.339 26.0409C232.339 25.7189 232.262 25.4348 232.107 25.1886C231.951 24.9424 231.73 24.7492 231.442 24.6091C231.158 24.4689 230.819 24.3988 230.425 24.3988H228.362V27.4897ZM228.362 22.7341H230.186C230.523 22.7341 230.822 22.6753 231.084 22.5579C231.349 22.4367 231.557 22.2663 231.709 22.0466C231.864 21.8269 231.942 21.5636 231.942 21.2568C231.942 20.8363 231.792 20.4973 231.493 20.2397C231.197 19.9822 230.777 19.8534 230.232 19.8534H228.362V22.7341ZM235.798 17.8647H238.554L241.207 22.8761H241.321L243.974 17.8647H246.73L242.486 25.3875V29.5011H240.043V25.3875L235.798 17.8647ZM248.443 28.1488C248.068 28.1488 247.746 28.0163 247.477 27.7511C247.212 27.4859 247.08 27.164 247.08 26.7852C247.08 26.414 247.212 26.0958 247.477 25.8306C247.746 25.5655 248.068 25.4329 248.443 25.4329C248.807 25.4329 249.125 25.5655 249.398 25.8306C249.67 26.0958 249.807 26.414 249.807 26.7852C249.807 27.0352 249.742 27.2644 249.614 27.4727C249.489 27.6772 249.324 27.842 249.119 27.967C248.915 28.0882 248.689 28.1488 248.443 28.1488ZM248.443 22.4386C248.068 22.4386 247.746 22.306 247.477 22.0409C247.212 21.7757 247.08 21.4537 247.08 21.075C247.08 20.7037 247.212 20.3875 247.477 20.1261C247.746 19.8609 248.068 19.7284 248.443 19.7284C248.807 19.7284 249.125 19.8609 249.398 20.1261C249.67 20.3875 249.807 20.7037 249.807 21.075C249.807 21.3287 249.742 21.5598 249.614 21.7681C249.489 21.9727 249.324 22.1356 249.119 22.2568C248.915 22.378 248.689 22.4386 248.443 22.4386ZM255.543 29.5011V17.8647H260.134C261.016 17.8647 261.768 18.0333 262.389 18.3704C263.01 18.7037 263.484 19.1678 263.81 19.7625C264.139 20.3534 264.304 21.0352 264.304 21.8079C264.304 22.5806 264.137 23.2625 263.804 23.8534C263.471 24.4443 262.988 24.9045 262.355 25.2341C261.726 25.5636 260.965 25.7284 260.071 25.7284H257.145V23.7568H259.673C260.147 23.7568 260.537 23.6753 260.844 23.5125C261.154 23.3458 261.385 23.1166 261.537 22.825C261.692 22.5295 261.77 22.1905 261.77 21.8079C261.77 21.4216 261.692 21.0844 261.537 20.7966C261.385 20.5049 261.154 20.2795 260.844 20.1204C260.533 19.9575 260.139 19.8761 259.662 19.8761H258.003V29.5011H255.543ZM266.564 29.5011H263.928L267.945 17.8647H271.115L275.126 29.5011H272.49L269.575 20.5238H269.484L266.564 29.5011ZM266.399 24.9272H272.626V26.8477H266.399V24.9272ZM276.527 29.5011V17.8647H281.118C281.997 17.8647 282.747 18.0219 283.368 18.3363C283.993 18.6469 284.468 19.0882 284.794 19.6602C285.124 20.2284 285.288 20.8969 285.288 21.6659C285.288 22.4386 285.122 23.1034 284.788 23.6602C284.455 24.2132 283.972 24.6375 283.339 24.9329C282.711 25.2284 281.949 25.3761 281.055 25.3761H277.982V23.3988H280.658C281.127 23.3988 281.518 23.3344 281.828 23.2056C282.139 23.0769 282.37 22.8837 282.521 22.6261C282.677 22.3685 282.754 22.0484 282.754 21.6659C282.754 21.2795 282.677 20.9537 282.521 20.6886C282.37 20.4234 282.137 20.2227 281.822 20.0863C281.512 19.9462 281.12 19.8761 280.646 19.8761H278.987V29.5011H276.527ZM282.811 24.2056L285.703 29.5011H282.987L280.158 24.2056H282.811ZM286.584 19.8931V17.8647H296.141V19.8931H292.578V29.5011H290.146V19.8931H286.584ZM300.175 17.8647V29.5011H297.714V17.8647H300.175ZM302.199 29.5011V17.8647H310.04V19.8931H304.659V22.6659H309.636V24.6943H304.659V27.4727H310.062V29.5011H302.199ZM318.308 21.2113C318.263 20.753 318.068 20.3969 317.723 20.1431C317.378 19.8894 316.911 19.7625 316.32 19.7625C315.918 19.7625 315.579 19.8193 315.303 19.9329C315.026 20.0428 314.814 20.1962 314.666 20.3931C314.522 20.5901 314.45 20.8136 314.45 21.0636C314.443 21.2719 314.486 21.4538 314.581 21.6091C314.679 21.7644 314.814 21.8988 314.984 22.0125C315.155 22.1223 315.352 22.2189 315.575 22.3022C315.799 22.3818 316.037 22.45 316.291 22.5068L317.337 22.7568C317.844 22.8704 318.31 23.0219 318.734 23.2113C319.159 23.4007 319.526 23.6337 319.837 23.9102C320.147 24.1867 320.388 24.5125 320.558 24.8875C320.732 25.2625 320.821 25.6924 320.825 26.1772C320.821 26.8894 320.64 27.5068 320.28 28.0295C319.924 28.5484 319.409 28.9519 318.734 29.2397C318.064 29.5238 317.255 29.6659 316.308 29.6659C315.369 29.6659 314.551 29.5219 313.854 29.2341C313.161 28.9462 312.619 28.52 312.229 27.9556C311.842 27.3875 311.64 26.6848 311.621 25.8477H314.001C314.028 26.2378 314.14 26.5636 314.337 26.825C314.537 27.0825 314.804 27.2776 315.138 27.4102C315.475 27.539 315.856 27.6034 316.28 27.6034C316.696 27.6034 317.058 27.5428 317.365 27.4216C317.676 27.3003 317.916 27.1318 318.087 26.9159C318.257 26.7 318.342 26.4519 318.342 26.1716C318.342 25.9102 318.265 25.6905 318.109 25.5125C317.958 25.3344 317.734 25.1829 317.439 25.0579C317.147 24.9329 316.789 24.8193 316.365 24.717L315.098 24.3988C314.117 24.1602 313.342 23.7871 312.774 23.2795C312.206 22.7719 311.924 22.0882 311.928 21.2284C311.924 20.5238 312.111 19.9083 312.49 19.3818C312.873 18.8553 313.397 18.4443 314.064 18.1488C314.731 17.8534 315.488 17.7056 316.337 17.7056C317.2 17.7056 317.954 17.8534 318.598 18.1488C319.246 18.4443 319.75 18.8553 320.109 19.3818C320.469 19.9083 320.655 20.5181 320.666 21.2113H318.308Z" fill="#FF6C88"/>
<g clip-path="url(#clip1_519_47932)">
<path d="M360.75 26.5011H373V28.5792L369.5 32.5167V37.0011H364.25V32.5167L360.75 28.5792V26.5011ZM367.75 31.8605L370.949 28.2511H362.801L366 31.8605V35.2511H367.75V31.8605ZM362.5 14.2511V16.0011H352V14.2511H362.5ZM352 26.5011V24.7511H359V26.5011H352ZM346.75 31.7511H361.229L362.5 33.1866V33.5011H345V9.0011H366V24.7511H364.25V10.7511H346.75V31.7511ZM362.5 19.5011V21.2511H352V19.5011H362.5ZM350.25 14.2511V16.0011H348.5V14.2511H350.25ZM350.25 19.5011V21.2511H348.5V19.5011H350.25ZM348.5 26.5011V24.7511H350.25V26.5011H348.5Z" fill="#FF6C88"/>
</g>
<defs>
<clipPath id="clip0_519_47932">
<rect width="28" height="28" fill="white" transform="translate(136 10.0011)"/>
</clipPath>
<clipPath id="clip1_519_47932">
<rect width="28" height="28" fill="white" transform="translate(345 10.0011)"/>
</clipPath>
</defs>
</svg>
