<svg width="21" height="16" viewBox="0 0 21 16" fill="none" xmlns="http://www.w3.org/2000/svg">
<path d="M7.99048 12H9.99048V9H12.9905V7H9.99048V4H7.99048V7H4.99048V9H7.99048V12ZM2.99048 16C2.44048 16 1.96981 15.8043 1.57848 15.413C1.18648 15.021 0.990479 14.55 0.990479 14V2C0.990479 1.45 1.18648 0.979333 1.57848 0.588C1.96981 0.196 2.44048 0 2.99048 0H14.9905C15.5405 0 16.0115 0.196 16.4035 0.588C16.7948 0.979333 16.9905 1.45 16.9905 2V6.5L20.9905 2.5V13.5L16.9905 9.5V14C16.9905 14.55 16.7948 15.021 16.4035 15.413C16.0115 15.8043 15.5405 16 14.9905 16H2.99048ZM2.99048 14H14.9905V2H2.99048V14Z" fill="#6966FF"/>
</svg>
