<svg width="11" height="20" viewBox="0 0 11 20" fill="none" xmlns="http://www.w3.org/2000/svg">
<path d="M3.98096 20V14H0.980957L4.03096 6.3C4.19762 5.9 4.45596 5.58333 4.80596 5.35C5.15596 5.11667 5.54762 5 5.98096 5C6.41429 5 6.80596 5.11667 7.15596 5.35C7.50596 5.58333 7.76429 5.9 7.93096 6.3L10.981 14H7.98096V20H3.98096ZM5.98096 4C5.43096 4 4.96029 3.804 4.56896 3.412C4.17696 3.02067 3.98096 2.55 3.98096 2C3.98096 1.45 4.17696 0.979 4.56896 0.587C4.96029 0.195667 5.43096 0 5.98096 0C6.53096 0 7.00196 0.195667 7.39396 0.587C7.78529 0.979 7.98096 1.45 7.98096 2C7.98096 2.55 7.78529 3.02067 7.39396 3.412C7.00196 3.804 6.53096 4 5.98096 4Z" fill="#6966FF"/>
</svg>
